<?xml version="1.0" standalone="no"?>
<!DOCTYPE svg PUBLIC "-//W3C//DTD SVG 1.1//EN" "http://www.w3.org/Graphics/SVG/1.1/DTD/svg11.dtd" >
<svg xmlns="http://www.w3.org/2000/svg" xmlns:xlink="http://www.w3.org/1999/xlink" version="1.1">
<metadata>
Created by FontForge 20170731 at Fri May 14 22:26:32 2021
 By Aleksey,,,
Copyright (c) 2012 by Jos Buivenga. All rights reserved.
</metadata>
<defs>
<font id="MuseoSansCyrl-500" horiz-adv-x="790" >
  <font-face 
    font-family="Museo Sans Cyrl 500"
    font-weight="400"
    font-stretch="normal"
    units-per-em="2048"
    panose-1="2 0 0 0 0 0 0 0 0 0"
    ascent="1536"
    descent="-512"
    x-height="1036"
    cap-height="1446"
    bbox="-246 -440 2228 1827"
    underline-thickness="102"
    underline-position="-307"
    unicode-range="U+0020-FB04"
  />
<missing-glyph horiz-adv-x="1044" 
d="M10 0v1434h1024v-1434h-1024zM522 809l348 522h-696zM584 717l348 -522v1044zM113 195l348 522l-348 522v-1044zM174 102h696l-348 523z" />
    <glyph glyph-name="f_f" unicode="ff" horiz-adv-x="1382" 
d="M201 0v877h-129v159h129v35q0 100 28 171q29 72 71 113q40 39 98 63q55 23 102 31q42 7 92 7q49 0 76 -6v-172q-15 4 -52 4q-217 0 -217 -213v-33h494v35q0 98 29 171q29 74 70 113q39 38 99 63q56 23 101 31q42 7 92 7q49 0 76 -6v-172q-15 4 -51 4q-217 0 -217 -213
v-33h243v-159h-243v-877h-199v877h-494v-877h-198z" />
    <glyph glyph-name="fi" unicode="fi" horiz-adv-x="1189" 
d="M201 0v877h-129v159h129v35q0 100 28 171q29 72 71 113q40 39 98 63q55 23 102 31q42 7 92 7q36 0 76 -6v-172q-15 4 -52 4q-217 0 -217 -213v-33h639v-1036h-196v877h-443v-877h-198zM838 1245v201h202v-201h-202z" />
    <glyph glyph-name="fl" unicode="fl" horiz-adv-x="1224" 
d="M829 285v1161h197v-1129q0 -83 30 -115t83 -32q19 0 35 2v-176q-44 -6 -66 -6q-279 0 -279 295zM203 0v864h-129v162h129v45q0 100 28 171q29 72 71 113q40 39 98 63q55 23 102 31q42 7 92 7q37 0 76 -6v-172q-15 4 -52 4q-217 0 -217 -213v-43h244v-162h-244v-864h-198z
" />
    <glyph glyph-name="f_f_i" unicode="ffi" horiz-adv-x="1882" 
d="M201 0v877h-129v159h129v35q0 100 28 171q29 72 71 113q40 39 98 63q55 23 102 31q42 7 92 7q36 0 76 -6v-172q-15 4 -52 4q-217 0 -217 -213v-33h494v35q0 98 29 171q29 74 70 113q39 38 99 63q56 23 101 31q42 7 92 7q36 0 76 -6v-172q-15 4 -51 4q-217 0 -217 -213
v-33h639v-1036h-197v877h-442v-877h-199v877h-494v-877h-198zM1530 1245v201h205v-201h-205z" />
    <glyph glyph-name="f_f_l" unicode="ffl" horiz-adv-x="1914" 
d="M201 0v877h-129v159h129v35q0 100 28 171q29 72 71 113q40 39 98 63q55 23 102 31q42 7 92 7q36 0 76 -6v-172q-15 4 -52 4q-217 0 -217 -213v-33h494v35q0 98 29 171q29 74 70 113q39 38 99 63q56 23 101 31q42 7 92 7q36 0 76 -6v-172q-15 4 -51 4q-217 0 -217 -213
v-33h243v-159h-243v-877h-199v877h-494v-877h-198zM1520 285v1161h198v-1129q0 -83 30 -115t83 -32q19 0 35 2v-176q-44 -6 -66 -6q-280 0 -280 295z" />
    <glyph glyph-name="f_j" unicode="fj" horiz-adv-x="1189" 
d="M201 0v877h-129v159h129v35q0 100 28 171q29 72 71 113q40 39 98 63q55 23 102 31q42 7 92 7q36 0 76 -6v-172q-15 4 -52 4q-217 0 -217 -213v-33h639v-1071q0 -101 -29 -172q-30 -73 -72 -114q-41 -40 -100 -64q-62 -25 -103 -31q-43 -6 -91 -6q-30 0 -70 4v170
q19 -4 45 -4q33 0 68 8q29 7 71 30q36 20 61 71q24 49 24 120v900h-443v-877h-198zM838 1245v201h202v-201h-202z" />
    <glyph glyph-name=".notdef" horiz-adv-x="1044" 
d="M10 0v1434h1024v-1434h-1024zM522 809l348 522h-696zM584 717l348 -522v1044zM113 195l348 522l-348 522v-1044zM174 102h696l-348 523z" />
    <glyph glyph-name=".null" horiz-adv-x="0" 
 />
    <glyph glyph-name="nonmarkingreturn" horiz-adv-x="681" 
 />
    <glyph glyph-name="space" unicode=" " horiz-adv-x="512" 
 />
    <glyph glyph-name="exclam" unicode="!" horiz-adv-x="563" 
d="M190 397l-12 1049h205l-14 -1049h-179zM178 0v203h205v-203h-205z" />
    <glyph glyph-name="quotedbl" unicode="&#x22;" horiz-adv-x="747" 
d="M440 1085v385h156v-385h-156zM152 1085v385h157v-385h-157z" />
    <glyph glyph-name="numbersign" unicode="#" horiz-adv-x="1476" 
d="M289 0l67 391h-268l27 150h268l61 346h-266l25 149h266l72 410h166l-72 -410h317l72 410h166l-72 -410h268l-26 -149h-266l-62 -346h264l-24 -150h-264l-70 -391h-166l68 391h-318l-67 -391h-166zM549 541h317l62 346h-320z" />
    <glyph glyph-name="dollar" unicode="$" horiz-adv-x="1181" 
d="M123 166l113 153q69 -69 168 -111q103 -44 200 -44q106 0 178 57t72 156q0 81 -73 142q-76 63 -177 105q-91 38 -209 95q-106 51 -177 139q-73 90 -73 209q0 149 106 261t275 136v193h144v-191q206 -12 352 -143l-92 -166q-60 54 -148 91q-85 36 -170 36q-113 0 -187 -62
q-75 -63 -75 -151q0 -68 52 -120q52 -53 132 -84q92 -37 171 -74q91 -43 171 -90q78 -46 131 -129q52 -82 52 -191q0 -157 -105 -270q-105 -112 -284 -133v-189h-144v189q-251 24 -403 186z" />
    <glyph glyph-name="percent" unicode="%" horiz-adv-x="1562" 
d="M410 864q-131 0 -220 88q-90 88 -90 215q0 125 90 214q91 89 220 89t221 -89t92 -214t-92 -214t-221 -89zM131 0l1108 1446h193l-1106 -1446h-195zM410 1016q65 0 109 44t44 107q0 64 -45 109t-108 45q-64 0 -107 -45q-43 -44 -43 -109q0 -64 43 -107q44 -44 107 -44z
M844 276q0 128 90 217q91 89 219 89t220 -89q91 -88 91 -217q0 -125 -91 -213t-220 -88q-130 0 -219 88q-90 89 -90 213zM1004 279q0 -65 43 -108q44 -44 106 -44q64 0 108 44t44 108q0 62 -44 108q-43 45 -108 45q-63 0 -106 -45q-43 -44 -43 -108z" />
    <glyph glyph-name="ampersand" unicode="&#x26;" horiz-adv-x="1380" 
d="M115 403q0 127 68 230t186 141v4q-89 39 -141 121t-52 199q0 175 124 274q123 98 323 98q84 0 176 -22l-51 -162q-47 12 -109 12q-112 0 -183 -59q-73 -61 -73 -162q0 -90 58 -158q59 -69 206 -69h268v197h201v-197h193v-176h-193v-193q0 -239 -133 -372
q-134 -134 -369 -134q-220 0 -360 122q-139 121 -139 306zM322 416q0 -111 80 -182q81 -72 212 -72q144 0 223 82q78 81 78 248v182h-274q-154 0 -237 -68q-82 -67 -82 -190z" />
    <glyph glyph-name="quotesingle" unicode="'" horiz-adv-x="462" 
d="M152 1085v385h157v-385h-157z" />
    <glyph glyph-name="parenleft" unicode="(" horiz-adv-x="600" 
d="M346 -195q-237 396 -237 891q0 430 237 809h174q-231 -387 -231 -811q0 -469 231 -889h-174z" />
    <glyph glyph-name="parenright" unicode=")" horiz-adv-x="600" 
d="M80 -195q231 420 231 889q0 424 -231 811h174q238 -381 238 -809q0 -493 -238 -891h-174z" />
    <glyph glyph-name="asterisk" unicode="*" horiz-adv-x="1013" 
d="M348 674l-149 106l184 226v4l-281 75l56 175l272 -105l-16 291h186l-16 -291l274 102l55 -170l-280 -77v-4l182 -226l-147 -106l-160 241h-4z" />
    <glyph glyph-name="plus" unicode="+" horiz-adv-x="1181" 
d="M49 504v160h459v503h168v-503h457v-160h-457v-504h-168v504h-459z" />
    <glyph glyph-name="comma" unicode="," horiz-adv-x="557" 
d="M72 -207l127 422h209l-179 -422h-157z" />
    <glyph glyph-name="hyphen" unicode="-" horiz-adv-x="884" 
d="M143 496v176h598v-176h-598z" />
    <glyph glyph-name="period" unicode="." horiz-adv-x="499" 
d="M143 0v215h213v-215h-213z" />
    <glyph glyph-name="slash" unicode="/" horiz-adv-x="851" 
d="M78 -86l520 1610h176l-520 -1610h-176z" />
    <glyph glyph-name="zero" unicode="0" horiz-adv-x="1273" 
d="M637 -25q-138 0 -242 58q-102 57 -159 162t-84 235t-27 295q0 163 27 294q27 129 84 233t159 161t242 57q512 0 512 -745q0 -750 -512 -750zM637 162q303 0 303 563q0 559 -303 559t-303 -559q0 -563 303 -563z" />
    <glyph glyph-name="one" unicode="1" horiz-adv-x="1011" 
d="M117 0v176h319v934l2 88h-4q-18 -33 -69 -84l-136 -131l-123 127l347 336h180v-1270h317v-176h-833z" />
    <glyph glyph-name="two" unicode="2" horiz-adv-x="1173" 
d="M123 0q-10 63 -10 111q0 104 39 194q40 92 101 156q65 68 138 124q71 55 153 109q67 44 139 103q62 50 101 113t39 130q0 107 -73 173q-75 67 -189 67q-87 0 -167 -51t-126 -133l-149 100q67 123 186 198q121 76 273 76q200 0 327 -114t127 -301q0 -111 -51 -207
q-51 -95 -128 -159q-61 -51 -167 -128q-90 -66 -168 -117t-130 -121q-52 -71 -54 -147h721v-176h-932z" />
    <glyph glyph-name="three" unicode="3" horiz-adv-x="1161" 
d="M90 172l111 154q64 -69 157 -113q95 -45 193 -45q123 0 209 75t86 189q0 128 -97 197t-241 69h-98l-48 109l316 371q28 32 43 48t35 36l12 10v4q-44 -6 -123 -6h-489v176h864v-129l-393 -455q106 -11 195 -53q92 -44 160 -140q69 -97 69 -231q0 -188 -138 -326
q-137 -137 -354 -137q-127 0 -254 52q-126 52 -215 145z" />
    <glyph glyph-name="four" unicode="4" horiz-adv-x="1249" 
d="M70 387v127l669 932h230v-889h196v-170h-196v-387h-199v387h-700zM293 557h477v528l8 146h-4q-34 -72 -72 -121l-409 -549v-4z" />
    <glyph glyph-name="five" unicode="5" horiz-adv-x="1153" 
d="M100 176l115 148q127 -156 317 -156q133 0 224 82q92 83 92 211q0 129 -93 213t-235 84q-136 0 -244 -72l-118 43l71 717h732v-176h-555l-33 -305l-13 -74h5q82 43 188 43q226 0 365 -136t139 -337q0 -206 -147 -346q-148 -140 -365 -140q-127 0 -247 53
q-119 53 -198 148z" />
    <glyph glyph-name="six" unicode="6" horiz-adv-x="1222" 
d="M117 655q0 115 24 229q23 111 77 220q52 105 126 187q73 80 183 130q108 49 239 49q161 0 283 -59l-66 -174q-91 47 -209 47q-184 0 -295 -142q-110 -141 -137 -343h4q44 60 134 98q87 37 186 37q202 0 329 -135q127 -134 127 -342t-131 -345t-334 -137q-234 0 -387 189
t-153 491zM664 162q114 0 186 84t72 211q0 136 -80 222q-79 85 -217 85q-120 0 -207 -59q-88 -60 -88 -154q0 -133 95 -261t239 -128z" />
    <glyph glyph-name="seven" unicode="7" horiz-adv-x="1099" 
d="M188 0l564 1137q13 28 39 70q20 33 32 48l11 15v4q-25 -4 -103 -4h-647v176h967v-139l-652 -1307h-211z" />
    <glyph glyph-name="eight" unicode="8" horiz-adv-x="1234" 
d="M113 412q0 78 26 146q27 72 70 120q44 50 74 77q27 24 61 48q-162 113 -162 284q0 161 117 272t334 111q203 0 329 -105q125 -104 125 -280q0 -119 -58 -220q-56 -98 -116 -158q197 -119 197 -308q0 -174 -137 -299t-359 -125q-215 0 -358 124t-143 313zM758 784
q131 140 131 285q0 103 -72 161q-71 58 -188 58q-114 0 -180 -57t-66 -144q0 -30 9 -57q8 -23 23 -47q14 -22 40 -42q38 -30 47 -36q22 -16 58 -33q12 -6 33 -15.5t29 -13.5q28 -14 68 -30q41 -16 68 -29zM319 428q0 -116 89 -193t204 -77q121 0 205 68q86 69 86 177
q0 47 -21 85t-71 71q-44 29 -88 53q-37 20 -116 54q-87 38 -111 49q-177 -124 -177 -287z" />
    <glyph glyph-name="nine" unicode="9" horiz-adv-x="1222" 
d="M172 35l66 176q98 -49 206 -49q186 0 297 142q111 143 138 343h-5q-43 -60 -133 -98q-89 -37 -186 -37q-203 0 -330 135q-127 134 -127 340q0 212 131 348q130 135 334 135q236 0 388 -188q153 -189 153 -494q0 -144 -40 -283q-40 -138 -117 -261q-76 -121 -205 -195
q-128 -74 -289 -74q-159 0 -281 60zM596 682q122 0 209 62q88 63 88 141q0 148 -97 273q-98 126 -231 126q-120 0 -192 -83t-72 -214q0 -134 80 -220q79 -85 215 -85z" />
    <glyph glyph-name="colon" unicode=":" horiz-adv-x="495" 
d="M143 825v211h209v-211h-209zM143 0v211h209v-211h-209z" />
    <glyph glyph-name="semicolon" unicode=";" horiz-adv-x="589" 
d="M221 825v211h205v-211h-205zM109 -207l108 422h205l-156 -422h-157z" />
    <glyph glyph-name="less" unicode="&#x3c;" horiz-adv-x="1181" 
d="M86 516v135l954 426v-182l-731 -309v-4l731 -310v-182z" />
    <glyph glyph-name="equal" unicode="=" horiz-adv-x="1181" 
d="M102 696v160h977v-160h-977zM102 309v160h977v-160h-977z" />
    <glyph glyph-name="greater" unicode="&#x3e;" horiz-adv-x="1181" 
d="M139 90v182l731 310v4l-731 309v182l955 -426v-135z" />
    <glyph glyph-name="question" unicode="?" horiz-adv-x="954" 
d="M309 397v97q0 86 36 155q37 70 86 118q50 49 101 92q51 44 88 102q35 55 35 124q0 87 -66 145q-65 58 -167 58q-125 0 -232 -86l-110 141q149 132 356 132q178 0 303 -105t125 -270q0 -95 -37 -169q-38 -76 -90 -125q-47 -45 -107 -96q-52 -45 -91 -104q-37 -56 -37 -125
v-84h-193zM303 0v203h205v-203h-205z" />
    <glyph glyph-name="at" unicode="@" horiz-adv-x="1630" 
d="M115 494q0 317 217 537t530 220q279 0 405 -117q128 -119 128 -298v-580h147v-150h-559q-187 0 -305 114q-119 114 -119 272q0 160 118 272q119 113 306 113h221q-2 90 -90 150t-242 60q-235 0 -397 -176q-162 -175 -162 -417q0 -249 163 -418q164 -170 419 -170v-162
q-339 0 -559 216q-221 216 -221 534zM760 496q0 -102 67 -170q68 -70 170 -70h207v483h-203q-104 0 -173 -70q-68 -69 -68 -173z" />
    <glyph glyph-name="A" unicode="A" horiz-adv-x="1312" 
d="M31 0l518 1446h215l518 -1446h-209l-145 416h-545l-145 -416h-207zM436 584h438l-159 456l-58 207h-4q-27 -119 -55 -207z" />
    <glyph glyph-name="B" unicode="B" horiz-adv-x="1277" 
d="M190 0v1446h506q190 0 304 -98q116 -99 116 -271q0 -103 -48 -186q-47 -81 -132 -125v-4q113 -33 176 -129q64 -98 64 -221q0 -196 -134 -304t-333 -108h-519zM393 838h303q97 0 155 61t58 158q0 95 -57 154t-158 59h-301v-432zM393 176h326q115 0 181 68q67 69 67 180
q0 110 -68 178t-180 68h-326v-494z" />
    <glyph glyph-name="C" unicode="C" horiz-adv-x="1468" 
d="M102 731q0 318 208 529q207 210 528 210q331 0 528 -190l-102 -152q-78 71 -194 115q-113 43 -224 43q-246 0 -390 -158q-145 -159 -145 -395q0 -237 148 -405q147 -166 391 -166q119 0 239 50q115 48 205 138l109 -145q-230 -230 -559 -230q-331 0 -536 216
q-206 217 -206 540z" />
    <glyph glyph-name="D" unicode="D" horiz-adv-x="1509" 
d="M190 0v1446h482q334 0 532 -192q199 -193 199 -529q0 -339 -199 -532t-532 -193h-482zM393 176h264q250 0 393 142q144 142 144 407q0 260 -145 402q-146 143 -392 143h-264v-1094z" />
    <glyph glyph-name="E" unicode="E" horiz-adv-x="1155" 
d="M190 0v1446h842v-176h-639v-453h518v-176h-518v-465h674v-176h-877z" />
    <glyph glyph-name="F" unicode="F" horiz-adv-x="1052" 
d="M190 0v1446h797v-176h-594v-477h506v-177h-506v-616h-203z" />
    <glyph glyph-name="G" unicode="G" horiz-adv-x="1560" 
d="M102 725q0 316 211 530q212 215 527 215q317 0 526 -176l-102 -149q-71 59 -188 101q-113 40 -222 40q-245 0 -394 -160t-149 -397q0 -247 152 -407t379 -160q235 0 409 180v209h-233v176h420v-727h-178v90l2 62h-5q-78 -81 -194 -128q-121 -49 -250 -49q-297 0 -504 212
q-207 211 -207 538z" />
    <glyph glyph-name="H" unicode="H" horiz-adv-x="1536" 
d="M190 0v1446h203v-635h752v635h201v-1446h-201v635h-752v-635h-203z" />
    <glyph glyph-name="I" unicode="I" horiz-adv-x="585" 
d="M190 0v1446h203v-1446h-203z" />
    <glyph glyph-name="J" unicode="J" horiz-adv-x="1091" 
d="M57 416v71h201v-61q0 -115 56 -189q57 -75 171 -75q100 0 163 62q65 63 65 194v852h-365v176h565v-1030q0 -219 -126 -330t-302 -111q-175 0 -302 112q-126 111 -126 329z" />
    <glyph glyph-name="K" unicode="K" horiz-adv-x="1257" 
d="M190 0v1446h203v-608h215l367 608h223l-422 -686v-4l449 -756h-232l-385 662h-215v-662h-203z" />
    <glyph glyph-name="L" unicode="L" horiz-adv-x="1077" 
d="M190 0v1446h203v-1270h649v-176h-852z" />
    <glyph glyph-name="M" unicode="M" horiz-adv-x="1742" 
d="M135 0l119 1446h211l334 -782l69 -195h4q42 123 72 195l334 782h211l117 -1446h-201l-70 911l-4 213h-4q-45 -134 -78 -213l-288 -651h-181l-286 651l-78 217h-4q4 -120 -4 -217l-70 -911h-203z" />
    <glyph glyph-name="N" unicode="N" horiz-adv-x="1540" 
d="M190 0v1446h201l645 -938l119 -211h4q-12 129 -12 211v938h201v-1446h-199l-645 938l-119 211h-4q12 -129 12 -211v-938h-203z" />
    <glyph glyph-name="O" unicode="O" horiz-adv-x="1685" 
d="M100 733q0 314 211 525q212 212 533 212q318 0 530 -212q211 -211 211 -525q0 -322 -211 -539q-213 -219 -530 -219q-319 0 -532 219q-212 218 -212 539zM309 733q0 -243 152 -407t383 -164q229 0 381 164q151 163 151 407q0 236 -151 394q-151 159 -381 159
q-232 0 -383 -159q-152 -160 -152 -394z" />
    <glyph glyph-name="P" unicode="P" horiz-adv-x="1241" 
d="M190 0v1446h531q202 0 327 -124q126 -124 126 -329q0 -204 -127 -331t-326 -127h-328v-535h-203zM393 711h295q130 0 205 75q76 76 76 207q0 129 -75 203q-76 74 -204 74h-297v-559z" />
    <glyph glyph-name="Q" unicode="Q" horiz-adv-x="1687" 
d="M102 731q0 316 211 527q212 212 529 212q323 0 533 -212t210 -527q0 -271 -168 -477l170 -164l-119 -127l-168 170q-193 -158 -458 -158q-319 0 -530 220q-210 219 -210 536zM311 731q0 -239 153 -404t378 -165q187 0 315 106l-170 166l117 127l166 -170q106 146 106 340
q0 238 -152 396q-153 159 -382 159q-225 0 -378 -159t-153 -396z" />
    <glyph glyph-name="R" unicode="R" horiz-adv-x="1286" 
d="M190 0v1446h459q183 0 269 -39q106 -46 167 -145q62 -100 62 -234q0 -139 -71 -249q-70 -109 -187 -148v-4q18 -23 41 -66l307 -561h-229l-306 575h-309v-575h-203zM393 752h291q119 0 188 72q70 73 70 194q0 170 -135 227q-58 25 -174 25h-240v-518z" />
    <glyph glyph-name="S" unicode="S" horiz-adv-x="1116" 
d="M84 166l115 153q69 -67 168 -111q100 -44 196 -44q117 0 185 56q69 57 69 151q0 87 -72 150q-71 62 -175 106q-115 48 -205 92q-105 51 -175 137q-71 87 -71 213q0 180 134 291q132 110 339 110q247 0 403 -147l-92 -166q-63 58 -148 92q-88 35 -171 35q-115 0 -187 -56
q-73 -57 -73 -149q0 -71 51 -127t129 -87q86 -35 168 -73q90 -42 168 -87t129 -127q51 -83 51 -191q0 -175 -123 -294q-122 -118 -338 -118q-279 0 -475 191z" />
    <glyph glyph-name="T" unicode="T" horiz-adv-x="1259" 
d="M528 0v1270h-497v176h1196v-176h-498v-1270h-201z" />
    <glyph glyph-name="U" unicode="U" horiz-adv-x="1486" 
d="M174 512v934h203v-932q0 -166 99 -259t267 -93t267 93q98 92 98 261v930h203v-934q0 -242 -156 -389q-157 -148 -410 -148q-254 0 -413 148q-158 147 -158 389z" />
    <glyph glyph-name="V" unicode="V" horiz-adv-x="1318" 
d="M553 0l-528 1446h217l360 -1022l55 -199h5q29 124 55 199l362 1022h215l-528 -1446h-213z" />
    <glyph glyph-name="W" unicode="W" horiz-adv-x="1927" 
d="M428 0l-369 1446h213l252 -1061l29 -154h4q12 76 33 154l284 1061h179l282 -1061l33 -154h4q6 64 27 154l268 1061h209l-381 -1446h-231l-254 938l-43 203h-9q-18 -109 -45 -203l-251 -938h-234z" />
    <glyph glyph-name="X" unicode="X" horiz-adv-x="1224" 
d="M33 0l454 745l-426 701h232l227 -391l92 -172h4q36 82 89 172l229 391h233l-430 -701l457 -745h-227l-265 444l-90 166h-4q-53 -104 -88 -166l-262 -444h-225z" />
    <glyph glyph-name="Y" unicode="Y" horiz-adv-x="1212" 
d="M506 0v612l-486 834h230l266 -475l88 -183h4q46 104 88 183l267 475h229l-485 -834v-612h-201z" />
    <glyph glyph-name="Z" unicode="Z" horiz-adv-x="1216" 
d="M74 0v135l694 1004q20 31 51 69q27 33 41 47l12 15v4q-35 -4 -106 -4h-657v176h1015v-133l-696 -1006q-16 -23 -50 -67q-10 -13 -24 -30l-14 -17l-14 -17v-4q33 4 106 4h701v-176h-1059z" />
    <glyph glyph-name="bracketleft" unicode="[" horiz-adv-x="616" 
d="M176 -195v1700h340v-149h-166v-1399h166v-152h-340z" />
    <glyph glyph-name="backslash" unicode="\" horiz-adv-x="851" 
d="M598 -86l-520 1610h176l520 -1610h-176z" />
    <glyph glyph-name="bracketright" unicode="]" horiz-adv-x="616" 
d="M100 -43h166v1399h-166v149h340v-1700h-340v152z" />
    <glyph glyph-name="asciicircum" unicode="^" horiz-adv-x="1253" 
d="M141 506l410 940h129l410 -940h-181l-295 721l-292 -721h-181z" />
    <glyph glyph-name="underscore" unicode="_" horiz-adv-x="1222" 
d="M59 0h1104v-160h-1104v160z" />
    <glyph glyph-name="grave" unicode="`" horiz-adv-x="1021" 
d="M524 1546l-194 260h213l149 -260h-168z" />
    <glyph glyph-name="a" unicode="a" horiz-adv-x="1079" 
d="M68 283q0 114 63 192q62 77 169 112q102 33 196 46q90 12 190 12h53v21q0 227 -227 227q-151 0 -291 -100l-80 145q64 54 172 88q110 35 215 35q196 0 303 -105t107 -301v-655h-186v104l6 82h-4q-46 -90 -139 -151q-91 -60 -201 -60q-142 0 -244 84t-102 224zM266 299
q0 -67 51 -117q50 -49 144 -49q122 0 201 103q77 101 77 227v39h-51q-422 0 -422 -203z" />
    <glyph glyph-name="b" unicode="b" horiz-adv-x="1230" 
d="M154 0v1446h198v-479l-8 -88h4q46 83 138 133q91 49 198 49q209 0 332 -150t123 -393q0 -245 -131 -394t-340 -149q-100 0 -191 51q-87 49 -139 136h-4q6 -30 6 -78v-84h-186zM346 514q0 -149 77 -258t216 -109q127 0 213 100t86 269q0 167 -81 269t-212 102
q-128 0 -213 -94q-86 -95 -86 -279z" />
    <glyph glyph-name="c" unicode="c" horiz-adv-x="1116" 
d="M86 518q0 230 157 387q156 156 398 156q245 0 389 -152l-94 -139q-119 119 -287 119q-155 0 -258 -106q-102 -105 -102 -263q0 -160 103 -266q104 -107 263 -107q85 0 173 38q85 36 147 102l80 -146q-71 -76 -183 -121q-111 -45 -231 -45q-242 0 -399 154
q-156 153 -156 389z" />
    <glyph glyph-name="d" unicode="d" horiz-adv-x="1230" 
d="M90 518q0 245 131 394t338 149q100 0 186 -44q87 -44 136 -126h4q-4 27 -4 70v485h196v-1446h-188v104l6 70h-4q-45 -86 -136 -143q-89 -56 -208 -56q-207 0 -332 150q-125 151 -125 393zM293 518q0 -167 81 -269t212 -102q127 0 213 95t86 278q0 150 -77 259
q-76 108 -218 108q-126 0 -212 -100q-85 -98 -85 -269z" />
    <glyph glyph-name="e" unicode="e" horiz-adv-x="1140" 
d="M86 518q0 243 147 393t373 150q212 0 330 -138q119 -139 119 -348q0 -22 -8 -83h-754q7 -162 109 -253q103 -92 247 -92q171 0 305 121l84 -145q-74 -67 -183 -108q-108 -40 -218 -40q-241 0 -396 155t-155 388zM299 635h555q-4 129 -75 201q-70 71 -177 71
q-118 0 -200 -72q-82 -71 -103 -200z" />
    <glyph glyph-name="f" unicode="f" horiz-adv-x="694" 
d="M203 0v864h-129v162h129v45q0 100 28 171q29 72 71 113q40 39 98 63q55 23 102 31q42 7 92 7q37 0 76 -6v-172q-15 4 -52 4q-217 0 -217 -213v-43h244v-162h-244v-864h-198z" />
    <glyph glyph-name="g" unicode="g" horiz-adv-x="1216" 
d="M252 -188q142 -70 285 -70q144 0 236 71q91 70 91 218v84l6 65h-4q-100 -168 -311 -168t-337 150t-126 379t121 374q122 146 332 146q103 0 192 -39q88 -39 135 -119h7q-7 14 -7 31v102h191v-993q0 -121 -44 -217q-44 -95 -120 -149q-74 -53 -166 -80q-90 -27 -192 -27
q-181 0 -355 86zM293 547q0 -164 81 -263q82 -100 220 -100q122 0 198 84q76 83 76 273q0 348 -293 348q-132 0 -207 -91q-75 -92 -75 -251z" />
    <glyph glyph-name="h" unicode="h" horiz-adv-x="1234" 
d="M154 0v1446h198v-537l-8 -86h4q44 90 146 164q103 74 243 74q355 0 355 -397v-664h-199v618q0 126 -40 193q-41 68 -155 68q-148 0 -247 -110q-99 -109 -99 -277v-492h-198z" />
    <glyph glyph-name="i" unicode="i" horiz-adv-x="503" 
d="M150 1245v201h204v-201h-204zM154 0v1036h198v-1036h-198z" />
    <glyph glyph-name="j" unicode="j" horiz-adv-x="503" 
d="M150 1245v201h204v-201h-204zM154 -23v1059h198v-1071q0 -101 -29 -172q-30 -73 -72 -114q-41 -40 -100 -64q-62 -25 -104 -31q-45 -6 -92 -6q-26 0 -70 4v170q19 -4 45 -4q35 0 70 8q29 7 71 30q37 21 60 71q23 51 23 120z" />
    <glyph glyph-name="k" unicode="k" horiz-adv-x="1069" 
d="M154 0v1446h198v-791h148l280 381h226l-344 -456v-5l382 -575h-231l-309 485h-152v-485h-198z" />
    <glyph glyph-name="l" unicode="l" horiz-adv-x="546" 
d="M154 285v1161h196v-1129q0 -83 30 -115t83 -32q19 0 35 2v-176q-44 -6 -66 -6q-278 0 -278 295z" />
    <glyph glyph-name="m" unicode="m" horiz-adv-x="1871" 
d="M154 0v1036h192v-141l-6 -78h4q39 97 141 170q103 74 220 74q256 0 309 -236h4q46 98 146 166q103 70 222 70q178 0 260 -98q83 -100 83 -299v-664h-199v621q0 124 -38 192t-144 68q-138 0 -223 -120q-85 -119 -85 -278v-483h-198v621q0 122 -36 191t-142 69
q-141 0 -226 -121q-86 -122 -86 -277v-483h-198z" />
    <glyph glyph-name="n" unicode="n" horiz-adv-x="1234" 
d="M154 0v1036h192v-141l-6 -78h4q39 89 140 166q102 78 253 78q355 0 355 -397v-664h-199v618q0 126 -40 193q-41 68 -155 68q-148 0 -247 -110q-99 -109 -99 -271v-498h-198z" />
    <glyph glyph-name="o" unicode="o" horiz-adv-x="1288" 
d="M86 520q0 232 162 386q163 155 395 155q234 0 397 -154q162 -153 162 -387q0 -233 -162 -389t-395 -156t-396 156t-163 389zM289 520q0 -163 103 -267q104 -106 253 -106q147 0 252 107q104 105 104 266q0 160 -104 264q-105 105 -252 105q-149 0 -253 -105
q-103 -104 -103 -264z" />
    <glyph glyph-name="p" unicode="p" horiz-adv-x="1230" 
d="M154 -410v1446h184v-92l-6 -78h4q51 94 141 144q91 51 207 51q209 0 332 -150t123 -393q0 -245 -131 -394t-338 -149t-322 177h-4q8 -40 8 -91v-471h-198zM346 514q0 -148 79 -257q80 -110 214 -110q127 0 213 100t86 269q0 167 -81 269t-212 102q-128 0 -213 -94
q-86 -95 -86 -279z" />
    <glyph glyph-name="q" unicode="q" horiz-adv-x="1230" 
d="M90 518q0 245 131 394t338 149q103 0 192 -48t138 -132h4q-4 27 -4 71v84h188v-1446h-196v480l4 90h-4q-45 -80 -132 -132q-88 -53 -202 -53q-207 0 -332 150q-125 151 -125 393zM293 518q0 -167 81 -269t212 -102q127 0 213 95t86 278q0 150 -77 259q-76 108 -218 108
q-126 0 -212 -100q-85 -98 -85 -269z" />
    <glyph glyph-name="r" unicode="r" horiz-adv-x="770" 
d="M154 0v1036h192v-186l-6 -76h4q39 120 127 197q89 78 203 78q16 0 53 -5v-196q-15 4 -57 4q-156 0 -237 -126t-81 -296v-430h-198z" />
    <glyph glyph-name="s" unicode="s" horiz-adv-x="915" 
d="M66 127l94 135q124 -121 305 -121q80 0 128 36t48 99q0 54 -55 93q-55 38 -133 67q-65 24 -156 64q-77 34 -133 101q-55 65 -55 161q0 141 106 220t266 79q207 0 336 -115l-80 -143q-44 43 -117 67q-75 25 -145 25q-80 0 -128 -33t-48 -96q0 -55 55 -94q59 -41 133 -67
q70 -24 157 -62q76 -33 134 -102q56 -67 56 -160q0 -135 -105 -220q-106 -86 -268 -86q-245 0 -395 152z" />
    <glyph glyph-name="t" unicode="t" horiz-adv-x="714" 
d="M197 379v485h-136v162h140v295h194v-295h250v-162h-250v-463q0 -58 17 -103q18 -47 40 -69q24 -24 55 -39q26 -13 57 -18q23 -4 52 -4t48 4v-176q-50 -6 -70 -6q-50 0 -93 7q-49 8 -104 31q-60 25 -99 63q-42 41 -72 115q-29 72 -29 173z" />
    <glyph glyph-name="u" unicode="u" horiz-adv-x="1222" 
d="M141 373v663h199v-618q0 -123 41 -191q40 -67 154 -67q153 0 245 114q92 115 92 277v485h197v-1036h-192v143l8 76h-4q-40 -90 -144 -168q-101 -76 -241 -76q-355 0 -355 398z" />
    <glyph glyph-name="v" unicode="v" horiz-adv-x="1081" 
d="M428 0l-389 1036h211l252 -700l37 -141h4q16 80 35 141l251 700h209l-383 -1036h-227z" />
    <glyph glyph-name="w" unicode="w" horiz-adv-x="1695" 
d="M383 0l-334 1036h211l215 -727l27 -110h4q11 54 29 110l223 725h184l223 -725l27 -110h4q11 58 27 110l217 727h207l-332 -1036h-221l-213 666l-31 112h-4q-11 -54 -29 -112l-213 -666h-221z" />
    <glyph glyph-name="x" unicode="x" horiz-adv-x="1021" 
d="M35 0l354 532l-334 504h228l192 -315l33 -62h4q6 10 35 62l192 315h228l-334 -504l354 -532h-225l-217 346l-33 55h-4q-18 -36 -31 -55l-217 -346h-225z" />
    <glyph glyph-name="y" unicode="y" horiz-adv-x="1095" 
d="M102 -215q57 -45 119 -45q126 0 189 154l51 118l-434 1024h223l260 -678l39 -125h4q17 69 35 123l252 680h215l-488 -1222q-45 -119 -134 -182q-87 -62 -202 -62q-52 0 -100 16q-50 17 -74 33l-24 14z" />
    <glyph glyph-name="z" unicode="z" horiz-adv-x="1046" 
d="M74 0v115l524 655l84 96v4q-29 -4 -100 -4h-486v170h854v-114l-522 -656q-16 -21 -41 -48q-15 -16 -35 -36l-12 -12v-4q34 6 102 6h527v-172h-895z" />
    <glyph glyph-name="braceleft" unicode="{" horiz-adv-x="727" 
d="M258 158v196q0 89 -44 150q-43 59 -130 74v176q82 16 128 74t46 153v172q0 91 26 161q25 68 61 104q37 36 86 59q49 22 86 27q40 5 73 5l47 -2v-151h-27q-29 0 -51 -7q-25 -8 -56 -27q-31 -20 -51 -66q-20 -48 -20 -115v-211q0 -91 -45 -160q-46 -71 -121 -100v-4
q166 -66 166 -260v-236q0 -69 20 -117q20 -47 51 -66q33 -20 56 -26q24 -6 51 -6h27v-152q-16 -4 -47 -4q-33 0 -73 5q-34 4 -86 28q-51 23 -86 58t-61 106q-26 70 -26 162z" />
    <glyph glyph-name="bar" unicode="|" horiz-adv-x="520" 
d="M172 -326v1948h174v-1948h-174z" />
    <glyph glyph-name="braceright" unicode="}" horiz-adv-x="727" 
d="M90 -45h29q26 0 50 6q22 5 55 26q32 19 51 66q20 48 20 117v236q0 93 43 161q45 71 123 99v4q-70 28 -118 96q-48 69 -48 164v211q0 67 -20 115q-19 46 -51 66t-55 27q-22 7 -50 7h-29v151q24 2 47 2q33 0 73 -5q37 -5 86 -27q50 -23 86 -59t61 -104q26 -70 26 -161v-172
q0 -90 45 -152q44 -60 129 -75v-176q-82 -10 -128 -73q-46 -62 -46 -151v-196q0 -92 -26 -162q-26 -71 -61 -106t-86 -58q-52 -24 -86 -28q-40 -5 -73 -5l-47 4v152z" />
    <glyph glyph-name="asciitilde" unicode="~" horiz-adv-x="1251" 
d="M139 418q0 174 75 260t212 86q71 0 130 -32q61 -33 89 -68q29 -36 76 -69q46 -32 96 -32q74 0 106 58q31 56 31 135h162q0 -346 -285 -346q-61 0 -107 20q-50 22 -80 49q-21 19 -61 59q-28 28 -67 50q-36 20 -80 20q-72 0 -102 -57q-31 -59 -31 -133h-164z" />
    <glyph glyph-name="uni00A0" unicode="&#xa0;" horiz-adv-x="512" 
 />
    <glyph glyph-name="exclamdown" unicode="&#xa1;" horiz-adv-x="520" 
d="M348 637l12 -1049h-204l14 1049h178zM360 1034v-203h-204v203h204z" />
    <glyph glyph-name="cent" unicode="&#xa2;" horiz-adv-x="1181" 
d="M541 -25v175q-200 27 -316 187q-116 159 -116 386q0 229 116 388q116 160 316 187v172h145v-172q135 -21 233 -103q99 -83 152 -214l-180 -70q-90 203 -273 203q-145 0 -226 -109t-81 -282q0 -176 80 -283q79 -106 227 -106q183 0 273 201l180 -70q-52 -124 -152 -213
q-97 -87 -233 -102v-175h-145z" />
    <glyph glyph-name="sterling" unicode="&#xa3;" horiz-adv-x="1181" 
d="M98 0v176h125v477h-90v144h90v278q0 171 126 283q125 112 319 112t342 -131l-119 -141q-94 88 -221 88q-111 0 -176 -62q-66 -63 -66 -157v-270h377v-144h-377v-477h666v-176h-996z" />
    <glyph glyph-name="currency" unicode="&#xa4;" horiz-adv-x="1249" 
d="M254 0v348h-143v144h143v143h-143v164h143v647h477q211 0 331 -111t120 -301q0 -186 -128 -294q-126 -107 -331 -107h-266v-141h512v-144h-512v-348h-203zM457 799h239q132 0 204 66q73 67 73 177q0 112 -72 176q-71 64 -201 64h-243v-483z" />
    <glyph glyph-name="yen" unicode="&#xa5;" horiz-adv-x="1181" 
d="M154 408v131h333v73l-53 99h-280v129h211l-338 606h231l242 -451l88 -207h4q46 118 88 207l244 451h231l-338 -606h207v-129h-276l-56 -99v-73h332v-131h-332v-408h-205v408h-333z" />
    <glyph glyph-name="section" unicode="&#xa7;" horiz-adv-x="915" 
d="M293 227l-146 799q-10 37 -10 94q0 153 104 252q102 98 281 98q173 0 289 -104l-94 -131q-87 70 -195 70q-94 0 -156 -54q-61 -53 -61 -153q0 -45 10 -82l140 -789h-162zM104 -23l91 138q88 -76 198 -76q96 0 156 56q61 57 61 159q0 41 -12 92l-135 770h162l143 -799
q10 -53 10 -92q0 -156 -104 -254t-281 -98q-169 0 -289 104z" />
    <glyph glyph-name="dieresis" unicode="&#xa8;" horiz-adv-x="1021" 
d="M602 1599v207h162v-207h-162zM258 1599v207h164v-207h-164z" />
    <glyph glyph-name="copyright" unicode="&#xa9;" horiz-adv-x="1685" 
d="M113 723q0 311 213 529t514 218q306 0 521 -218q214 -217 214 -529t-214 -529q-216 -219 -521 -219q-300 0 -514 219q-213 218 -213 529zM262 723q0 -255 167 -433q167 -177 411 -177q246 0 416 176q169 175 169 434t-169 434q-170 176 -416 176q-244 0 -411 -177
q-167 -178 -167 -433zM453 721q0 167 111 289q110 120 292 120q106 0 195 -55t139 -147l-127 -68q-28 55 -83 91q-58 38 -120 38q-115 0 -184 -78q-70 -79 -70 -190q0 -115 68 -192q67 -76 186 -76q66 0 117 35q52 36 86 94l127 -68q-43 -83 -134 -143q-92 -60 -200 -60
q-182 0 -293 120q-110 119 -110 290z" />
    <glyph glyph-name="ordfeminine" unicode="&#xaa;" horiz-adv-x="872" 
d="M375 784q-90 0 -157 53q-66 53 -66 144q0 225 387 225h20v13q0 129 -131 129q-83 0 -170 -58l-59 101q99 75 247 75q128 0 194 -66q67 -67 67 -192v-411h-140v94h-4q-23 -46 -74 -76q-53 -31 -114 -31zM406 903q66 0 109 56q44 58 44 126v17h-24q-234 0 -234 -111
q0 -38 28 -63t77 -25zM152 543v116h561v-116h-561z" />
    <glyph glyph-name="guillemotleft" unicode="&#xab;" horiz-adv-x="1148" 
d="M506 578l336 421h198l-335 -421l335 -420h-198zM428 158l-336 420l336 421h199l-336 -421l336 -420h-199z" />
    <glyph glyph-name="logicalnot" unicode="&#xac;" horiz-adv-x="1282" 
d="M147 696v160h977v-549h-166v389h-811z" />
    <glyph glyph-name="uni00AD" unicode="&#xad;" horiz-adv-x="884" 
d="M143 496v176h598v-176h-598z" />
    <glyph glyph-name="registered" unicode="&#xae;" horiz-adv-x="1685" 
d="M113 723q0 311 213 529t514 218q306 0 521 -218q214 -217 214 -529t-214 -529q-216 -219 -521 -219q-300 0 -514 219q-213 218 -213 529zM262 723q0 -255 167 -433q167 -177 411 -177q246 0 416 176q169 175 169 434t-169 434q-170 176 -416 176q-244 0 -411 -177
q-167 -178 -167 -433zM590 340v774h299q110 0 175 -65q66 -66 66 -172q0 -84 -43 -137t-98 -68v-4q10 -10 27 -43l149 -285h-161l-142 299h-127v-299h-145zM735 745h123q59 0 92 35q33 34 33 97q0 59 -33 92q-32 32 -90 32h-125v-256z" />
    <glyph glyph-name="macron" unicode="&#xaf;" horiz-adv-x="1021" 
d="M252 1606v145h520v-145h-520z" />
    <glyph glyph-name="degree" unicode="&#xb0;" horiz-adv-x="837" 
d="M418 864q-130 0 -219 88q-90 88 -90 215q0 125 90 214q91 89 219 89q129 0 221 -89t92 -214t-92 -214t-221 -89zM418 1014q65 0 109 44t44 109q0 64 -45 109t-108 45q-64 0 -107 -45q-43 -44 -43 -109q0 -66 43 -109q44 -44 107 -44z" />
    <glyph glyph-name="plusminus" unicode="&#xb1;" horiz-adv-x="1181" 
d="M49 504v160h459v503h168v-503h457v-160h-457v-504h-168v504h-459zM82 -195h1018v-157h-1018v157z" />
    <glyph glyph-name="twosuperior" unicode="&#xb2;" 
d="M96 866q-6 38 -6 74q0 96 45 171q44 73 109 121q46 34 127 86q63 40 108 87t45 102q0 59 -42 96q-41 37 -105 37q-92 0 -174 -98l-101 92q45 65 120 106q77 42 161 42q127 0 211 -75t84 -194q0 -81 -42 -147t-102 -108q-40 -28 -122 -78q-63 -38 -107 -81t-49 -98h436
v-135h-596z" />
    <glyph glyph-name="threesuperior" unicode="&#xb3;" 
d="M373 846q-84 0 -168 35q-82 34 -133 100l86 109q29 -42 88 -73q57 -30 121 -30q69 0 119 45q51 46 51 111q0 66 -54 106q-53 39 -127 39h-69l-35 78l182 211l51 49v4q-39 -6 -75 -6h-289v137h555v-98l-223 -258q102 -15 171 -81q68 -65 68 -181q0 -121 -90 -209
q-89 -88 -229 -88z" />
    <glyph glyph-name="acute" unicode="&#xb4;" horiz-adv-x="1021" 
d="M330 1546l147 260h215l-196 -260h-166z" />
    <glyph glyph-name="mu" unicode="&#xb5;" horiz-adv-x="1230" 
d="M332 41q16 -99 16 -164v-287h-176v1446h199v-618q0 -126 39 -192t151 -66q155 0 247 114q91 113 91 277v485h199v-1036h-191v141l4 74h-6q-5 -11 -12 -27q-6 -13 -40 -57q-33 -42 -71 -73q-39 -32 -109 -57q-72 -26 -151 -26q-129 0 -186 66h-4z" />
    <glyph glyph-name="mu" unicode="&#x3bc;" horiz-adv-x="1230" 
d="M332 41q16 -99 16 -164v-287h-176v1446h199v-618q0 -126 39 -192t151 -66q155 0 247 114q91 113 91 277v485h199v-1036h-191v141l4 74h-6q-5 -11 -12 -27q-6 -13 -40 -57q-33 -42 -71 -73q-39 -32 -109 -57q-72 -26 -151 -26q-129 0 -186 66h-4z" />
    <glyph glyph-name="paragraph" unicode="&#xb6;" horiz-adv-x="1222" 
d="M563 -102v596q-198 0 -342 138q-143 137 -143 339q0 199 142 337t343 138h555v-176h-403v-1372h-152zM842 -102v1255h153v-1255h-153z" />
    <glyph glyph-name="periodcentered" unicode="&#xb7;" horiz-adv-x="495" 
d="M143 487v215h207v-215h-207z" />
    <glyph glyph-name="cedilla" unicode="&#xb8;" horiz-adv-x="1021" 
d="M389 -180l60 227l100 -22v-15l-25 -112q65 -7 107 -48q41 -39 41 -102q0 -87 -61 -130q-60 -42 -148 -42q-57 0 -113 12v121q32 -14 86 -14q99 0 99 63q0 64 -109 64z" />
    <glyph glyph-name="onesuperior" unicode="&#xb9;" 
d="M147 866v135h191v510l4 54h-4q-7 -17 -35 -45l-74 -70l-92 100l217 211h138v-760h188v-135h-533z" />
    <glyph glyph-name="ordmasculine" unicode="&#xba;" horiz-adv-x="989" 
d="M494 786q-146 0 -249 98q-102 98 -102 246q0 144 102 241q101 97 247 97q148 0 250 -96t102 -242q0 -148 -102 -246q-103 -98 -248 -98zM494 920q84 0 142 59t58 151q0 91 -58 149t-142 58q-87 0 -145 -58t-58 -149q0 -92 58 -151t145 -59zM176 543v116h639v-116h-639z
" />
    <glyph glyph-name="guillemotright" unicode="&#xbb;" horiz-adv-x="1148" 
d="M520 158l336 420l-336 421h199l336 -421l-336 -420h-199zM109 158l335 420l-335 421h198l336 -421l-336 -420h-198z" />
    <glyph glyph-name="onequarter" unicode="&#xbc;" horiz-adv-x="1953" 
d="M1593 0v219h-424v103l410 573h166v-541h127v-135h-127v-219h-152zM1335 354h258v252l6 119h-4q-27 -56 -59 -98l-201 -269v-4zM688 0h-153l688 1446h151zM123 553v135h190v510l4 53h-4q-8 -19 -34 -45l-74 -69l-92 100l217 211h137v-760h188v-135h-532z" />
    <glyph glyph-name="onehalf" unicode="&#xbd;" horiz-adv-x="1931" 
d="M1233 0q-6 38 -6 74q0 96 45 171q44 74 108 121q46 34 127 86q66 42 109 87q45 47 45 102q0 57 -42 95q-43 38 -106 38q-92 0 -174 -98l-100 92q43 63 120 105t161 42q128 0 211 -74q84 -75 84 -194q0 -81 -42 -147q-41 -65 -103 -108q-51 -36 -122 -79q-60 -37 -106 -81
q-44 -43 -49 -97h436v-135h-596zM688 0h-153l688 1446h151zM121 553v135h190v510l4 53h-4q-7 -17 -35 -45l-73 -69l-92 100l217 211h137v-760h188v-135h-532z" />
    <glyph glyph-name="threequarters" unicode="&#xbe;" horiz-adv-x="1986" 
d="M1624 0v219h-424v103l410 573h166v-541h127v-135h-127v-219h-152zM1366 354h258v252l6 119h-4q-27 -56 -59 -98l-201 -269v-4zM389 532q-84 0 -168 35q-81 34 -133 101l86 108q29 -42 88 -73q55 -29 121 -29q71 0 120 45q50 45 50 110q0 68 -53 107q-52 39 -127 39h-70
l-35 78l183 211l51 49v4q-39 -6 -76 -6h-289v137h555v-98l-223 -258q102 -15 171 -81t69 -182q0 -119 -91 -208t-229 -89zM719 0h-154l688 1446h152z" />
    <glyph glyph-name="questiondown" unicode="&#xbf;" horiz-adv-x="935" 
d="M633 637v-96q0 -87 -36 -156q-37 -71 -87 -118q-52 -49 -101 -92q-50 -44 -86 -101t-36 -125q0 -87 66 -145q65 -58 167 -58q125 0 232 86l110 -141q-148 -131 -356 -131q-180 0 -303 104q-125 105 -125 270q0 95 37 169q38 76 90 125q59 56 107 97q54 46 91 103
q37 56 37 125v84h193zM639 1034v-203h-205v203h205z" />
    <glyph glyph-name="Agrave" unicode="&#xc0;" horiz-adv-x="1312" 
d="M31 0l518 1446h215l518 -1446h-209l-145 416h-545l-145 -416h-207zM436 584h438l-159 456l-58 207h-4q-27 -119 -55 -207zM575 1546l-194 260h213l149 -260h-168z" />
    <glyph glyph-name="Aacute" unicode="&#xc1;" horiz-adv-x="1312" 
d="M31 0l518 1446h215l518 -1446h-209l-145 416h-545l-145 -416h-207zM436 584h438l-159 456l-58 207h-4q-27 -119 -55 -207zM567 1546l148 260h215l-197 -260h-166z" />
    <glyph glyph-name="Acircumflex" unicode="&#xc2;" horiz-adv-x="1312" 
d="M31 0l518 1446h215l518 -1446h-209l-145 416h-545l-145 -416h-207zM436 584h438l-159 456l-58 207h-4q-27 -119 -55 -207zM371 1546l180 260h205l182 -260h-174l-109 164h-4l-106 -164h-174z" />
    <glyph glyph-name="Atilde" unicode="&#xc3;" horiz-adv-x="1312" 
d="M31 0l518 1446h215l518 -1446h-209l-145 416h-545l-145 -416h-207zM436 584h438l-159 456l-58 207h-4q-27 -119 -55 -207zM309 1548q0 260 209 260q61 0 105 -34q35 -27 82 -70q38 -35 71 -35q42 0 61 40q19 39 19 93h143q0 -260 -208 -260q-59 0 -105 35q-35 27 -82 70
q-37 34 -72 34q-79 0 -79 -133h-144z" />
    <glyph glyph-name="Adieresis" unicode="&#xc4;" horiz-adv-x="1312" 
d="M31 0l518 1446h215l518 -1446h-209l-145 416h-545l-145 -416h-207zM436 584h438l-159 456l-58 207h-4q-27 -119 -55 -207zM745 1599v207h162v-207h-162zM401 1599v207h164v-207h-164z" />
    <glyph glyph-name="Aring" unicode="&#xc5;" horiz-adv-x="1312" 
d="M31 0l518 1446h215l518 -1446h-209l-145 416h-545l-145 -416h-207zM436 584h438l-159 456l-58 207h-4q-27 -119 -55 -207zM655 1522q-72 0 -123 42t-51 109q0 70 51 112t123 42q73 0 122 -42q50 -42 50 -112q0 -67 -51 -109t-121 -42zM655 1606q29 0 48 19q20 20 20 48
q0 32 -20 52t-48 20q-31 0 -49 -20q-18 -19 -18 -52q0 -29 18 -48t49 -19z" />
    <glyph glyph-name="AE" unicode="&#xc6;" horiz-adv-x="1796" 
d="M18 0l598 1446h1059v-176h-639v-453h518v-176h-518v-465h672v-176h-872v643h-351l-256 -643h-211zM553 811h283v459h-97z" />
    <glyph glyph-name="Ccedilla" unicode="&#xc7;" horiz-adv-x="1468" 
d="M721 -180l41 160q-298 27 -478 237q-182 212 -182 514q0 318 208 529q207 210 528 210q331 0 528 -190l-102 -152q-78 71 -194 115q-113 43 -224 43q-246 0 -390 -158q-145 -159 -145 -395q0 -237 148 -405q147 -166 391 -166q119 0 239 50q115 48 205 138l109 -145
q-217 -217 -531 -228l-16 -79q65 -7 107 -48q41 -39 41 -102q0 -87 -61 -130q-60 -42 -148 -42q-57 0 -113 12v121q32 -14 86 -14q98 0 98 63q0 64 -108 64z" />
    <glyph glyph-name="Egrave" unicode="&#xc8;" horiz-adv-x="1155" 
d="M190 0v1446h842v-176h-639v-453h518v-176h-518v-465h674v-176h-877zM553 1546l-195 260h213l150 -260h-168z" />
    <glyph glyph-name="Eacute" unicode="&#xc9;" horiz-adv-x="1155" 
d="M543 1546l147 260h215l-196 -260h-166zM190 0v1446h842v-176h-639v-453h518v-176h-518v-465h674v-176h-877z" />
    <glyph glyph-name="Ecircumflex" unicode="&#xca;" horiz-adv-x="1155" 
d="M348 1546l180 260h205l182 -260h-174l-108 164h-4l-107 -164h-174zM190 0v1446h842v-176h-639v-453h518v-176h-518v-465h674v-176h-877z" />
    <glyph glyph-name="Edieresis" unicode="&#xcb;" horiz-adv-x="1155" 
d="M725 1599v207h162v-207h-162zM381 1599v207h164v-207h-164zM190 0v1446h842v-176h-639v-453h518v-176h-518v-465h674v-176h-877z" />
    <glyph glyph-name="Igrave" unicode="&#xcc;" horiz-adv-x="585" 
d="M190 0v1446h203v-1446h-203zM215 1546l-195 260h213l150 -260h-168z" />
    <glyph glyph-name="Iacute" unicode="&#xcd;" horiz-adv-x="585" 
d="M190 0v1446h203v-1446h-203zM207 1546l147 260h215l-196 -260h-166z" />
    <glyph glyph-name="Icircumflex" unicode="&#xce;" horiz-adv-x="585" 
d="M190 0v1446h203v-1446h-203zM12 1546l181 260h204l183 -260h-174l-109 164h-4l-107 -164h-174z" />
    <glyph glyph-name="Idieresis" unicode="&#xcf;" horiz-adv-x="585" 
d="M190 0v1446h203v-1446h-203zM387 1599v207h162v-207h-162zM43 1599v207h164v-207h-164z" />
    <glyph glyph-name="Eth" unicode="&#xd0;" horiz-adv-x="1521" 
d="M203 0v639h-119v168h119v639h481q335 0 533 -192t198 -529q0 -340 -198 -532q-199 -193 -533 -193h-481zM403 176h267q249 0 392 142q144 142 144 407q0 260 -145 402q-146 143 -391 143h-267v-463h308v-168h-308v-463z" />
    <glyph glyph-name="Ntilde" unicode="&#xd1;" horiz-adv-x="1540" 
d="M190 0v1446h201l645 -938l119 -211h4q-12 129 -12 211v938h201v-1446h-199l-645 938l-119 211h-4q12 -129 12 -211v-938h-203zM424 1548q0 260 209 260q60 0 104 -34q35 -27 82 -70q38 -35 72 -35q41 0 60 40q20 42 20 93h143q0 -260 -209 -260q-58 0 -104 35
q-35 27 -82 70q-37 34 -72 34q-80 0 -80 -133h-143z" />
    <glyph glyph-name="Ograve" unicode="&#xd2;" horiz-adv-x="1685" 
d="M100 733q0 314 211 525q212 212 533 212q318 0 530 -212q211 -211 211 -525q0 -322 -211 -539q-213 -219 -530 -219q-319 0 -532 219q-212 218 -212 539zM309 733q0 -243 152 -407t383 -164q229 0 381 164q151 163 151 407q0 236 -151 394q-151 159 -381 159
q-232 0 -383 -159q-152 -160 -152 -394zM762 1546l-195 260h213l150 -260h-168z" />
    <glyph glyph-name="Oacute" unicode="&#xd3;" horiz-adv-x="1685" 
d="M754 1546l147 260h215l-196 -260h-166zM100 733q0 314 211 525q212 212 533 212q318 0 530 -212q211 -211 211 -525q0 -322 -211 -539q-213 -219 -530 -219q-319 0 -532 219q-212 218 -212 539zM309 733q0 -243 152 -407t383 -164q229 0 381 164q151 163 151 407
q0 236 -151 394q-151 159 -381 159q-232 0 -383 -159q-152 -160 -152 -394z" />
    <glyph glyph-name="Ocircumflex" unicode="&#xd4;" horiz-adv-x="1685" 
d="M559 1546l180 260h205l182 -260h-174l-108 164h-4l-107 -164h-174zM100 733q0 314 211 525q212 212 533 212q318 0 530 -212q211 -211 211 -525q0 -322 -211 -539q-213 -219 -530 -219q-319 0 -532 219q-212 218 -212 539zM309 733q0 -243 152 -407t383 -164
q229 0 381 164q151 163 151 407q0 236 -151 394q-151 159 -381 159q-232 0 -383 -159q-152 -160 -152 -394z" />
    <glyph glyph-name="Otilde" unicode="&#xd5;" horiz-adv-x="1685" 
d="M100 733q0 314 211 525q212 212 533 212q318 0 530 -212q211 -211 211 -525q0 -322 -211 -539q-213 -219 -530 -219q-319 0 -532 219q-212 218 -212 539zM309 733q0 -243 152 -407t383 -164q229 0 381 164q151 163 151 407q0 236 -151 394q-151 159 -381 159
q-232 0 -383 -159q-152 -160 -152 -394zM498 1548q0 260 209 260q60 0 104 -34q35 -27 82 -70q38 -35 72 -35q41 0 60 40q19 39 19 93h144q0 -260 -209 -260q-59 0 -105 35q-29 23 -81 70q-37 34 -72 34q-80 0 -80 -133h-143z" />
    <glyph glyph-name="Odieresis" unicode="&#xd6;" horiz-adv-x="1685" 
d="M934 1599v207h162v-207h-162zM590 1599v207h164v-207h-164zM100 733q0 314 211 525q212 212 533 212q318 0 530 -212q211 -211 211 -525q0 -322 -211 -539q-213 -219 -530 -219q-319 0 -532 219q-212 218 -212 539zM309 733q0 -243 152 -407t383 -164q229 0 381 164
q151 163 151 407q0 236 -151 394q-151 159 -381 159q-232 0 -383 -159q-152 -160 -152 -394z" />
    <glyph glyph-name="multiply" unicode="&#xd7;" horiz-adv-x="1181" 
d="M57 113l424 471l-424 471l115 112l418 -465l418 465l114 -112l-424 -471l424 -471l-114 -113l-418 465l-418 -465z" />
    <glyph glyph-name="Oslash" unicode="&#xd8;" horiz-adv-x="1683" 
d="M252 18l100 140q-117 105 -184 254q-68 151 -68 319q0 313 215 526t529 213q206 0 379 -100l94 129l100 -69l-92 -130q125 -106 192 -250q68 -145 68 -319q0 -318 -214 -536q-215 -220 -527 -220q-218 0 -393 111l-97 -137zM471 324l637 886q-122 76 -264 76
q-222 0 -379 -160q-156 -159 -156 -395q0 -241 162 -407zM563 244q127 -82 279 -82q223 0 379 164q155 162 155 405q0 247 -170 406z" />
    <glyph glyph-name="Ugrave" unicode="&#xd9;" horiz-adv-x="1486" 
d="M174 512v934h203v-932q0 -166 99 -259t267 -93t267 93q98 92 98 261v930h203v-934q0 -242 -156 -389q-157 -148 -410 -148q-254 0 -413 148q-158 147 -158 389zM662 1546l-195 260h213l149 -260h-167z" />
    <glyph glyph-name="Uacute" unicode="&#xda;" horiz-adv-x="1486" 
d="M653 1546l148 260h215l-197 -260h-166zM174 512v934h203v-932q0 -166 99 -259t267 -93t267 93q98 92 98 261v930h203v-934q0 -242 -156 -389q-157 -148 -410 -148q-254 0 -413 148q-158 147 -158 389z" />
    <glyph glyph-name="Ucircumflex" unicode="&#xdb;" horiz-adv-x="1486" 
d="M459 1546l180 260h205l182 -260h-174l-109 164h-4l-106 -164h-174zM174 512v934h203v-932q0 -166 99 -259t267 -93t267 93q98 92 98 261v930h203v-934q0 -242 -156 -389q-157 -148 -410 -148q-254 0 -413 148q-158 147 -158 389z" />
    <glyph glyph-name="Udieresis" unicode="&#xdc;" horiz-adv-x="1486" 
d="M834 1599v207h161v-207h-161zM489 1599v207h164v-207h-164zM174 512v934h203v-932q0 -166 99 -259t267 -93t267 93q98 92 98 261v930h203v-934q0 -242 -156 -389q-157 -148 -410 -148q-254 0 -413 148q-158 147 -158 389z" />
    <glyph glyph-name="Yacute" unicode="&#xdd;" horiz-adv-x="1212" 
d="M506 0v612l-486 834h230l266 -475l88 -183h4q46 104 88 183l267 475h229l-485 -834v-612h-201zM516 1546l148 260h215l-197 -260h-166z" />
    <glyph glyph-name="Thorn" unicode="&#xde;" horiz-adv-x="1245" 
d="M190 0v1446h203v-246h328q202 0 327 -124q126 -124 126 -328q0 -205 -127 -332t-328 -127h-326v-289h-203zM393 465h295q129 0 205 76t76 207q0 128 -75 202q-76 74 -204 74h-297v-559z" />
    <glyph glyph-name="germandbls" unicode="&#xdf;" horiz-adv-x="1204" 
d="M154 0v1085q0 179 132 282q131 103 310 103q166 0 278 -95q111 -95 111 -234q0 -67 -32 -126t-70 -93q-40 -36 -71 -78q-32 -44 -32 -84q0 -34 38 -72q33 -33 92 -74q80 -55 108 -78q54 -44 91 -105q38 -64 38 -134q0 -150 -101 -230q-102 -81 -249 -81q-180 0 -291 59
v176q123 -63 266 -63q74 0 123 37t49 110q0 56 -57 110q-56 53 -126 94q-72 42 -126 105q-57 66 -57 140q0 59 32 110q33 53 71 89t71 86q32 48 32 100q0 63 -52 111q-53 48 -142 48q-100 0 -168 -59q-70 -61 -70 -168v-1071h-198z" />
    <glyph glyph-name="agrave" unicode="&#xe0;" horiz-adv-x="1079" 
d="M68 283q0 114 63 192q62 77 169 112q102 33 196 46q90 12 190 12h53v21q0 227 -227 227q-151 0 -291 -100l-80 145q64 54 172 88q110 35 215 35q196 0 303 -105t107 -301v-655h-186v104l6 82h-4q-46 -90 -139 -151q-91 -60 -201 -60q-142 0 -244 84t-102 224zM266 299
q0 -67 51 -117q50 -49 144 -49q122 0 201 103q77 101 77 227v39h-51q-422 0 -422 -203zM457 1188l-195 260h213l150 -260h-168z" />
    <glyph glyph-name="aacute" unicode="&#xe1;" horiz-adv-x="1079" 
d="M68 283q0 114 63 192q62 77 169 112q102 33 196 46q90 12 190 12h53v21q0 227 -227 227q-151 0 -291 -100l-80 145q64 54 172 88q110 35 215 35q196 0 303 -105t107 -301v-655h-186v104l6 82h-4q-46 -90 -139 -151q-91 -60 -201 -60q-142 0 -244 84t-102 224zM266 299
q0 -67 51 -117q50 -49 144 -49q122 0 201 103q77 101 77 227v39h-51q-422 0 -422 -203zM442 1188l148 260h215l-197 -260h-166z" />
    <glyph glyph-name="acircumflex" unicode="&#xe2;" horiz-adv-x="1079" 
d="M68 283q0 114 63 192q62 77 169 112q102 33 196 46q90 12 190 12h53v21q0 227 -227 227q-151 0 -291 -100l-80 145q64 54 172 88q110 35 215 35q196 0 303 -105t107 -301v-655h-186v104l6 82h-4q-46 -90 -139 -151q-91 -60 -201 -60q-142 0 -244 84t-102 224zM266 299
q0 -67 51 -117q50 -49 144 -49q122 0 201 103q77 101 77 227v39h-51q-422 0 -422 -203zM248 1188l180 260h205l182 -260h-174l-109 164h-4l-106 -164h-174z" />
    <glyph glyph-name="atilde" unicode="&#xe3;" horiz-adv-x="1079" 
d="M68 283q0 114 63 192q62 77 169 112q102 33 196 46q90 12 190 12h53v21q0 227 -227 227q-151 0 -291 -100l-80 145q64 54 172 88q110 35 215 35q196 0 303 -105t107 -301v-655h-186v104l6 82h-4q-46 -90 -139 -151q-91 -60 -201 -60q-142 0 -244 84t-102 224zM266 299
q0 -67 51 -117q50 -49 144 -49q122 0 201 103q77 101 77 227v39h-51q-422 0 -422 -203zM188 1190q0 260 209 260q59 0 105 -35q42 -32 82 -69q38 -35 71 -35q42 0 61 40q19 39 19 93h144q0 -260 -209 -260q-59 0 -105 35q-42 32 -82 69q-38 35 -71 35q-80 0 -80 -133h-144z
" />
    <glyph glyph-name="adieresis" unicode="&#xe4;" horiz-adv-x="1079" 
d="M68 283q0 114 63 192q62 77 169 112q102 33 196 46q90 12 190 12h53v21q0 227 -227 227q-151 0 -291 -100l-80 145q64 54 172 88q110 35 215 35q196 0 303 -105t107 -301v-655h-186v104l6 82h-4q-46 -90 -139 -151q-91 -60 -201 -60q-142 0 -244 84t-102 224zM266 299
q0 -67 51 -117q50 -49 144 -49q122 0 201 103q77 101 77 227v39h-51q-422 0 -422 -203zM625 1241v207h161v-207h-161zM281 1241v207h163v-207h-163z" />
    <glyph glyph-name="aring" unicode="&#xe5;" horiz-adv-x="1079" 
d="M68 283q0 114 63 192q62 77 169 112q102 33 196 46q90 12 190 12h53v21q0 227 -227 227q-151 0 -291 -100l-80 145q64 54 172 88q110 35 215 35q196 0 303 -105t107 -301v-655h-186v104l6 82h-4q-46 -90 -139 -151q-91 -60 -201 -60q-142 0 -244 84t-102 224zM266 299
q0 -67 51 -117q50 -49 144 -49q122 0 201 103q77 101 77 227v39h-51q-422 0 -422 -203zM532 1163q-71 0 -122 42q-52 43 -52 110q0 68 52 111q51 42 122 42q72 0 122 -42q51 -43 51 -111q0 -67 -52 -110q-51 -42 -121 -42zM532 1247q29 0 49 20q19 19 19 48q0 33 -19 52
t-49 19q-31 0 -49 -19t-18 -52q0 -29 18 -48q18 -20 49 -20z" />
    <glyph glyph-name="ae" unicode="&#xe6;" horiz-adv-x="1767" 
d="M70 291q0 82 29 141q30 61 85 98q53 36 113 61q55 23 136 34q73 10 133 13q54 3 122 3h51v25q0 227 -233 227q-148 0 -287 -100l-80 145q64 54 171 89q103 34 208 34q262 0 346 -182h4q122 182 367 182q207 0 326 -137q118 -136 118 -344q0 -33 -4 -84h-745
q7 -165 104 -257t242 -92q171 0 307 119l82 -143q-74 -67 -182 -107q-112 -41 -219 -41q-154 0 -269 68t-176 190h-4q-11 -30 -34 -63q-28 -40 -67 -82q-44 -47 -121 -79q-78 -32 -169 -32q-150 0 -252 84t-102 230zM938 641h541q-5 123 -75 192q-69 68 -171 68
q-117 0 -196 -67q-78 -66 -99 -193zM270 301q0 -69 52 -118q51 -48 145 -48q121 0 198 104q76 103 76 228v29h-98q-373 0 -373 -195z" />
    <glyph glyph-name="ccedilla" unicode="&#xe7;" horiz-adv-x="1118" 
d="M514 -180l41 162q-210 28 -340 176q-129 147 -129 360q0 230 157 387q156 156 398 156q245 0 389 -152l-94 -139q-119 119 -287 119q-155 0 -258 -106q-102 -105 -102 -263q0 -160 103 -266q104 -107 263 -107q85 0 173 38q85 36 147 102l80 -146q-145 -155 -389 -166
l-17 -77q65 -7 107 -48q41 -39 41 -102q0 -87 -61 -130q-60 -42 -148 -42q-58 0 -113 12v121q35 -14 86 -14q98 0 98 63q0 64 -108 64z" />
    <glyph glyph-name="egrave" unicode="&#xe8;" horiz-adv-x="1140" 
d="M86 518q0 243 147 393t373 150q212 0 330 -138q119 -139 119 -348q0 -22 -8 -83h-754q7 -162 109 -253q103 -92 247 -92q171 0 305 121l84 -145q-74 -67 -183 -108q-108 -40 -218 -40q-241 0 -396 155t-155 388zM299 635h555q-4 129 -75 201q-70 71 -177 71
q-118 0 -200 -72q-82 -71 -103 -200zM526 1188l-194 260h213l149 -260h-168z" />
    <glyph glyph-name="eacute" unicode="&#xe9;" horiz-adv-x="1140" 
d="M514 1188l148 260h215l-197 -260h-166zM86 518q0 243 147 393t373 150q212 0 330 -138q119 -139 119 -348q0 -22 -8 -83h-754q7 -162 109 -253q103 -92 247 -92q171 0 305 121l84 -145q-74 -67 -183 -108q-108 -40 -218 -40q-241 0 -396 155t-155 388zM299 635h555
q-4 129 -75 201q-70 71 -177 71q-118 0 -200 -72q-82 -71 -103 -200z" />
    <glyph glyph-name="ecircumflex" unicode="&#xea;" horiz-adv-x="1140" 
d="M319 1188l181 260h205l182 -260h-174l-109 164h-4l-106 -164h-175zM86 518q0 243 147 393t373 150q212 0 330 -138q119 -139 119 -348q0 -22 -8 -83h-754q7 -162 109 -253q103 -92 247 -92q171 0 305 121l84 -145q-74 -67 -183 -108q-108 -40 -218 -40q-241 0 -396 155
t-155 388zM299 635h555q-4 129 -75 201q-70 71 -177 71q-118 0 -200 -72q-82 -71 -103 -200z" />
    <glyph glyph-name="edieresis" unicode="&#xeb;" horiz-adv-x="1140" 
d="M696 1241v207h162v-207h-162zM352 1241v207h164v-207h-164zM86 518q0 243 147 393t373 150q212 0 330 -138q119 -139 119 -348q0 -22 -8 -83h-754q7 -162 109 -253q103 -92 247 -92q171 0 305 121l84 -145q-74 -67 -183 -108q-108 -40 -218 -40q-241 0 -396 155t-155 388
zM299 635h555q-4 129 -75 201q-70 71 -177 71q-118 0 -200 -72q-82 -71 -103 -200z" />
    <glyph glyph-name="igrave" unicode="&#xec;" horiz-adv-x="503" 
d="M154 0v1036h198v-1036h-198zM176 1188l-194 260h213l149 -260h-168z" />
    <glyph glyph-name="iacute" unicode="&#xed;" horiz-adv-x="503" 
d="M166 1188l147 260h215l-196 -260h-166zM154 0v1036h198v-1036h-198z" />
    <glyph glyph-name="icircumflex" unicode="&#xee;" horiz-adv-x="503" 
d="M-29 1188l181 260h204l183 -260h-174l-109 164h-4l-107 -164h-174zM154 0v1036h198v-1036h-198z" />
    <glyph glyph-name="idieresis" unicode="&#xef;" horiz-adv-x="503" 
d="M348 1241v207h162v-207h-162zM4 1241v207h164v-207h-164zM154 0v1036h198v-1036h-198z" />
    <glyph glyph-name="eth" unicode="&#xf0;" horiz-adv-x="1189" 
d="M90 481q0 193 130 333t355 140q74 0 137 -21q60 -20 89 -44l26 -21h4q-62 166 -223 273l-370 -164l-21 127l254 113q-112 59 -264 94l55 162q252 -61 424 -164l285 125l18 -125l-188 -86q295 -246 295 -660q0 -109 -30 -209q-30 -102 -89 -187q-60 -87 -164 -139
q-106 -53 -238 -53q-220 0 -353 151q-132 150 -132 355zM293 477q0 -135 76 -233q77 -99 213 -99q152 0 232 116q79 115 79 267q0 117 -79 192q-80 75 -210 75q-148 0 -230 -94q-81 -93 -81 -224z" />
    <glyph glyph-name="ntilde" unicode="&#xf1;" horiz-adv-x="1234" 
d="M154 0v1036h192v-141l-6 -78h4q39 89 140 166q102 78 253 78q355 0 355 -397v-664h-199v618q0 126 -40 193q-41 68 -155 68q-148 0 -247 -110q-99 -109 -99 -271v-498h-198zM293 1190q0 260 209 260q58 0 104 -35q42 -32 82 -69q38 -35 72 -35q41 0 60 40q20 42 20 93
h143q0 -260 -209 -260q-58 0 -104 35q-42 32 -82 69q-38 35 -72 35q-80 0 -80 -133h-143z" />
    <glyph glyph-name="ograve" unicode="&#xf2;" horiz-adv-x="1288" 
d="M86 520q0 232 162 386q163 155 395 155q234 0 397 -154q162 -153 162 -387q0 -233 -162 -389t-395 -156t-396 156t-163 389zM289 520q0 -163 103 -267q104 -106 253 -106q147 0 252 107q104 105 104 266q0 160 -104 264q-105 105 -252 105q-149 0 -253 -105
q-103 -104 -103 -264zM563 1188l-194 260h213l149 -260h-168z" />
    <glyph glyph-name="oacute" unicode="&#xf3;" horiz-adv-x="1288" 
d="M555 1188l147 260h216l-197 -260h-166zM86 520q0 232 162 386q163 155 395 155q234 0 397 -154q162 -153 162 -387q0 -233 -162 -389t-395 -156t-396 156t-163 389zM289 520q0 -163 103 -267q104 -106 253 -106q147 0 252 107q104 105 104 266q0 160 -104 264
q-105 105 -252 105q-149 0 -253 -105q-103 -104 -103 -264z" />
    <glyph glyph-name="ocircumflex" unicode="&#xf4;" horiz-adv-x="1288" 
d="M360 1188l181 260h204l183 -260h-174l-109 164h-4l-106 -164h-175zM86 520q0 232 162 386q163 155 395 155q234 0 397 -154q162 -153 162 -387q0 -233 -162 -389t-395 -156t-396 156t-163 389zM289 520q0 -163 103 -267q104 -106 253 -106q147 0 252 107q104 105 104 266
q0 160 -104 264q-105 105 -252 105q-149 0 -253 -105q-103 -104 -103 -264z" />
    <glyph glyph-name="otilde" unicode="&#xf5;" horiz-adv-x="1288" 
d="M86 520q0 232 162 386q163 155 395 155q234 0 397 -154q162 -153 162 -387q0 -233 -162 -389t-395 -156t-396 156t-163 389zM289 520q0 -163 103 -267q104 -106 253 -106q147 0 252 107q104 105 104 266q0 160 -104 264q-105 105 -252 105q-149 0 -253 -105
q-103 -104 -103 -264zM299 1190q0 260 209 260q58 0 104 -35q42 -32 82 -69q38 -35 72 -35q41 0 60 40q20 42 20 93h143q0 -260 -209 -260q-58 0 -104 35q-42 32 -82 69q-38 35 -72 35q-80 0 -80 -133h-143z" />
    <glyph glyph-name="odieresis" unicode="&#xf6;" horiz-adv-x="1288" 
d="M735 1241v207h162v-207h-162zM391 1241v207h164v-207h-164zM86 520q0 232 162 386q163 155 395 155q234 0 397 -154q162 -153 162 -387q0 -233 -162 -389t-395 -156t-396 156t-163 389zM289 520q0 -163 103 -267q104 -106 253 -106q147 0 252 107q104 105 104 266
q0 160 -104 264q-105 105 -252 105q-149 0 -253 -105q-103 -104 -103 -264z" />
    <glyph glyph-name="divide" unicode="&#xf7;" horiz-adv-x="1181" 
d="M494 891v186h192v-186h-192zM74 504v160h1034v-160h-1034zM494 90v186h192v-186h-192z" />
    <glyph glyph-name="oslash" unicode="&#xf8;" horiz-adv-x="1290" 
d="M205 -8l78 108q-197 159 -197 420q0 234 162 387q163 154 397 154q147 0 277 -68l82 113l96 -70l-80 -110q184 -157 184 -406q0 -233 -163 -389t-396 -156q-144 0 -262 62l-80 -115zM393 256l422 588q-78 45 -170 45q-147 0 -252 -105q-104 -104 -104 -264
q0 -157 104 -264zM489 184q77 -37 156 -37q149 0 253 106q103 104 103 267q0 148 -94 246z" />
    <glyph glyph-name="ugrave" unicode="&#xf9;" horiz-adv-x="1222" 
d="M141 373v663h199v-618q0 -123 41 -191q40 -67 154 -67q153 0 245 114q92 115 92 277v485h197v-1036h-192v143l8 76h-4q-40 -90 -144 -168q-101 -76 -241 -76q-355 0 -355 398zM526 1188l-194 260h213l149 -260h-168z" />
    <glyph glyph-name="uacute" unicode="&#xfa;" horiz-adv-x="1222" 
d="M516 1188l148 260h215l-197 -260h-166zM141 373v663h199v-618q0 -123 41 -191q40 -67 154 -67q153 0 245 114q92 115 92 277v485h197v-1036h-192v143l8 76h-4q-40 -90 -144 -168q-101 -76 -241 -76q-355 0 -355 398z" />
    <glyph glyph-name="ucircumflex" unicode="&#xfb;" horiz-adv-x="1222" 
d="M319 1188l181 260h205l182 -260h-174l-109 164h-4l-106 -164h-175zM141 373v663h199v-618q0 -123 41 -191q40 -67 154 -67q153 0 245 114q92 115 92 277v485h197v-1036h-192v143l8 76h-4q-40 -90 -144 -168q-101 -76 -241 -76q-355 0 -355 398z" />
    <glyph glyph-name="udieresis" unicode="&#xfc;" horiz-adv-x="1222" 
d="M696 1241v207h162v-207h-162zM352 1241v207h164v-207h-164zM141 373v663h199v-618q0 -123 41 -191q40 -67 154 -67q153 0 245 114q92 115 92 277v485h197v-1036h-192v143l8 76h-4q-40 -90 -144 -168q-101 -76 -241 -76q-355 0 -355 398z" />
    <glyph glyph-name="yacute" unicode="&#xfd;" horiz-adv-x="1095" 
d="M102 -215q57 -45 119 -45q126 0 189 154l51 118l-434 1024h223l260 -678l39 -125h4q17 69 35 123l252 680h215l-488 -1222q-45 -119 -134 -182q-87 -62 -202 -62q-52 0 -100 16q-50 17 -74 33l-24 14zM461 1188l147 260h215l-196 -260h-166z" />
    <glyph glyph-name="thorn" unicode="&#xfe;" horiz-adv-x="1228" 
d="M154 -410v1856h198v-473l-4 -84h4q44 79 128 125q86 47 200 47q209 0 334 -152t125 -391q0 -240 -130 -391q-131 -152 -335 -152q-98 0 -188 44q-89 44 -134 126h-4q4 -33 4 -90v-465h-198zM346 516q0 -164 81 -267q81 -104 216 -104q127 0 211 104q84 103 84 269
q0 164 -81 267q-81 104 -210 104t-215 -92t-86 -281z" />
    <glyph glyph-name="ydieresis" unicode="&#xff;" horiz-adv-x="1095" 
d="M102 -215q57 -45 119 -45q126 0 189 154l51 118l-434 1024h223l260 -678l39 -125h4q17 69 35 123l252 680h215l-488 -1222q-45 -119 -134 -182q-87 -62 -202 -62q-52 0 -100 16q-50 17 -74 33l-24 14zM641 1241v207h162v-207h-162zM297 1241v207h164v-207h-164z" />
    <glyph glyph-name="Amacron" unicode="&#x100;" horiz-adv-x="1312" 
d="M31 0l518 1446h215l518 -1446h-209l-145 416h-545l-145 -416h-207zM436 584h438l-159 456l-58 207h-4q-27 -119 -55 -207zM395 1606v145h520v-145h-520z" />
    <glyph glyph-name="amacron" unicode="&#x101;" horiz-adv-x="1079" 
d="M68 283q0 114 63 192q62 77 169 112q102 33 196 46q90 12 190 12h53v21q0 227 -227 227q-151 0 -291 -100l-80 145q64 54 172 88q110 35 215 35q196 0 303 -105t107 -301v-655h-186v104l6 82h-4q-46 -90 -139 -151q-91 -60 -201 -60q-142 0 -244 84t-102 224zM266 299
q0 -67 51 -117q50 -49 144 -49q122 0 201 103q77 101 77 227v39h-51q-422 0 -422 -203zM274 1247v146h521v-146h-521z" />
    <glyph glyph-name="Abreve" unicode="&#x102;" horiz-adv-x="1312" 
d="M31 0l518 1446h215l518 -1446h-209l-145 416h-545l-145 -416h-207zM436 584h438l-159 456l-58 207h-4q-27 -119 -55 -207zM655 1538q-110 0 -191 64q-79 63 -79 176v28h147v-26q0 -62 36 -92q37 -31 87 -31q48 0 85 32q36 31 36 93v24h148v-28q0 -113 -79 -176
q-81 -64 -190 -64z" />
    <glyph glyph-name="abreve" unicode="&#x103;" horiz-adv-x="1079" 
d="M68 283q0 114 63 192q62 77 169 112q102 33 196 46q90 12 190 12h53v21q0 227 -227 227q-151 0 -291 -100l-80 145q64 54 172 88q110 35 215 35q196 0 303 -105t107 -301v-655h-186v104l6 82h-4q-46 -90 -139 -151q-91 -60 -201 -60q-142 0 -244 84t-102 224zM266 299
q0 -67 51 -117q50 -49 144 -49q122 0 201 103q77 101 77 227v39h-51q-422 0 -422 -203zM532 1180q-112 0 -191 63t-79 176v29h148v-27q0 -63 35 -92q37 -31 87 -31q48 0 85 32q36 32 36 93v25h148v-29q0 -113 -79 -176q-80 -63 -190 -63z" />
    <glyph glyph-name="Aogonek" unicode="&#x104;" horiz-adv-x="1312" 
d="M31 0l518 1446h215l518 -1446q-131 -105 -131 -182q0 -36 29 -57q28 -21 57 -27l27 -4l-47 -154q-11 0 -26 3q-17 3 -56 15q-41 12 -73 32q-30 19 -57 58q-26 38 -26 87q0 123 135 229h-41l-145 416h-545l-145 -416h-207zM436 584h438l-159 456l-58 207h-4
q-27 -119 -55 -207z" />
    <glyph glyph-name="aogonek" unicode="&#x105;" horiz-adv-x="1079" 
d="M68 283q0 114 63 192q62 77 169 112q102 33 196 46q90 12 190 12h53v21q0 227 -227 227q-151 0 -291 -100l-80 145q64 54 172 88q110 35 215 35q196 0 303 -105t107 -301v-655q-133 -102 -133 -182q0 -35 28 -57q27 -21 56 -27l28 -4l-45 -154q-10 0 -26 3q-19 3 -58 15
t-72 32q-32 20 -58 58q-25 37 -25 87q0 117 141 229h-22v104l6 82h-4q-46 -90 -139 -151q-91 -60 -201 -60q-142 0 -244 84t-102 224zM266 299q0 -67 51 -117q50 -49 144 -49q121 0 200 103q78 102 78 227v39h-51q-422 0 -422 -203z" />
    <glyph glyph-name="Cacute" unicode="&#x106;" horiz-adv-x="1468" 
d="M733 1546l148 260h215l-197 -260h-166zM102 731q0 318 208 529q207 210 528 210q331 0 528 -190l-102 -152q-78 71 -194 115q-113 43 -224 43q-246 0 -390 -158q-145 -159 -145 -395q0 -237 148 -405q147 -166 391 -166q119 0 239 50q115 48 205 138l109 -145
q-230 -230 -559 -230q-331 0 -536 216q-206 217 -206 540z" />
    <glyph glyph-name="cacute" unicode="&#x107;" horiz-adv-x="1116" 
d="M510 1188l147 260h215l-196 -260h-166zM86 518q0 230 157 387q156 156 398 156q245 0 389 -152l-94 -139q-119 119 -287 119q-155 0 -258 -106q-102 -105 -102 -263q0 -160 103 -266q104 -107 263 -107q85 0 173 38q85 36 147 102l80 -146q-71 -76 -183 -121
q-111 -45 -231 -45q-242 0 -399 154q-156 153 -156 389z" />
    <glyph glyph-name="Ccircumflex" unicode="&#x108;" horiz-adv-x="1468" 
d="M539 1546l180 260h205l182 -260h-174l-109 164h-4l-106 -164h-174zM102 731q0 318 208 529q207 210 528 210q331 0 528 -190l-102 -152q-78 71 -194 115q-113 43 -224 43q-246 0 -390 -158q-145 -159 -145 -395q0 -237 148 -405q147 -166 391 -166q119 0 239 50
q115 48 205 138l109 -145q-230 -230 -559 -230q-331 0 -536 216q-206 217 -206 540z" />
    <glyph glyph-name="ccircumflex" unicode="&#x109;" horiz-adv-x="1116" 
d="M315 1188l181 260h204l183 -260h-174l-109 164h-4l-107 -164h-174zM86 518q0 230 157 387q156 156 398 156q245 0 389 -152l-94 -139q-119 119 -287 119q-155 0 -258 -106q-102 -105 -102 -263q0 -160 103 -266q104 -107 263 -107q85 0 173 38q85 36 147 102l80 -146
q-71 -76 -183 -121q-111 -45 -231 -45q-242 0 -399 154q-156 153 -156 389z" />
    <glyph glyph-name="Cdotaccent" unicode="&#x10a;" horiz-adv-x="1468" 
d="M102 731q0 318 208 529q207 210 528 210q331 0 528 -190l-102 -152q-78 71 -194 115q-113 43 -224 43q-246 0 -390 -158q-145 -159 -145 -395q0 -237 148 -405q147 -166 391 -166q119 0 239 50q115 48 205 138l109 -145q-230 -230 -559 -230q-331 0 -536 216
q-206 217 -206 540zM735 1606v200h176v-200h-176z" />
    <glyph glyph-name="cdotaccent" unicode="&#x10b;" horiz-adv-x="1116" 
d="M86 518q0 230 157 387q156 156 398 156q245 0 389 -152l-94 -139q-119 119 -287 119q-155 0 -258 -106q-102 -105 -102 -263q0 -160 103 -266q104 -107 263 -107q85 0 173 38q85 36 147 102l80 -146q-71 -76 -183 -121q-111 -45 -231 -45q-242 0 -399 154
q-156 153 -156 389zM514 1247v201h176v-201h-176z" />
    <glyph glyph-name="Ccaron" unicode="&#x10c;" horiz-adv-x="1468" 
d="M719 1546l-180 260h174l106 -166h4l109 166h174l-182 -260h-205zM102 731q0 318 208 529q207 210 528 210q331 0 528 -190l-102 -152q-78 71 -194 115q-113 43 -224 43q-246 0 -390 -158q-145 -159 -145 -395q0 -237 148 -405q147 -166 391 -166q119 0 239 50
q115 48 205 138l109 -145q-230 -230 -559 -230q-331 0 -536 216q-206 217 -206 540z" />
    <glyph glyph-name="ccaron" unicode="&#x10d;" horiz-adv-x="1116" 
d="M496 1188l-181 260h174l107 -166h4l109 166h174l-183 -260h-204zM86 518q0 230 157 387q156 156 398 156q245 0 389 -152l-94 -139q-119 119 -287 119q-155 0 -258 -106q-102 -105 -102 -263q0 -160 103 -266q104 -107 263 -107q85 0 173 38q85 36 147 102l80 -146
q-71 -76 -183 -121q-111 -45 -231 -45q-242 0 -399 154q-156 153 -156 389z" />
    <glyph glyph-name="Dcaron" unicode="&#x10e;" horiz-adv-x="1509" 
d="M596 1546l-180 260h174l106 -166h4l109 166h174l-182 -260h-205zM190 0v1446h482q334 0 532 -192q199 -193 199 -529q0 -339 -199 -532t-532 -193h-482zM393 176h264q250 0 393 142q144 142 144 407q0 260 -145 402q-146 143 -392 143h-264v-1094z" />
    <glyph glyph-name="dcaron" unicode="&#x10f;" horiz-adv-x="1249" 
d="M1194 1444h174q14 -52 14 -105q0 -84 -51 -192h-151q39 111 39 172q0 59 -25 125zM90 518q0 245 131 394t338 149q100 0 186 -44q87 -44 136 -126h4q-4 27 -4 70v485h196v-1446h-188v104l6 70h-4q-45 -86 -136 -143q-89 -56 -208 -56q-207 0 -332 150q-125 151 -125 393z
M293 518q0 -167 81 -269t212 -102q127 0 213 95t86 278q0 150 -77 259q-76 108 -218 108q-126 0 -212 -100q-85 -98 -85 -269z" />
    <glyph glyph-name="Dcroat" unicode="&#x110;" horiz-adv-x="1521" 
d="M203 0v639h-119v168h119v639h481q335 0 533 -192t198 -529q0 -340 -198 -532q-199 -193 -533 -193h-481zM403 176h267q249 0 392 142q144 142 144 407q0 260 -145 402q-146 143 -391 143h-267v-463h308v-168h-308v-463z" />
    <glyph glyph-name="dcroat" unicode="&#x111;" horiz-adv-x="1230" 
d="M90 518q0 245 131 394t338 149q98 0 185 -42q89 -43 135 -122h4q-2 40 -2 70v186h-269v129h269v164h196v-164h156v-129h-156v-1153h-188v98l2 70h-4q-46 -87 -135 -140t-205 -53q-207 0 -332 150q-125 151 -125 393zM293 518q0 -167 81 -269t212 -102q127 0 213 95
t86 278q0 151 -77 260t-218 109q-126 0 -212 -101q-85 -100 -85 -270z" />
    <glyph glyph-name="Emacron" unicode="&#x112;" horiz-adv-x="1155" 
d="M190 0v1446h842v-176h-639v-453h518v-176h-518v-465h674v-176h-877zM375 1606v145h520v-145h-520z" />
    <glyph glyph-name="emacron" unicode="&#x113;" horiz-adv-x="1140" 
d="M86 518q0 243 147 393t373 150q212 0 330 -138q119 -139 119 -348q0 -22 -8 -83h-754q7 -162 109 -253q103 -92 247 -92q171 0 305 121l84 -145q-74 -67 -183 -108q-108 -40 -218 -40q-241 0 -396 155t-155 388zM299 635h555q-4 129 -75 201q-70 71 -177 71
q-118 0 -200 -72q-82 -71 -103 -200zM346 1247v146h520v-146h-520z" />
    <glyph glyph-name="Ebreve" unicode="&#x114;" horiz-adv-x="1155" 
d="M190 0v1446h842v-176h-639v-453h518v-176h-518v-465h674v-176h-877zM633 1538q-111 0 -192 64q-79 63 -79 176v28h148v-26q0 -62 36 -92q37 -31 87 -31q48 0 85 32q36 31 36 93v24h147v-28q0 -113 -79 -176q-81 -64 -189 -64z" />
    <glyph glyph-name="ebreve" unicode="&#x115;" horiz-adv-x="1140" 
d="M86 518q0 243 147 393t373 150q212 0 330 -138q119 -139 119 -348q0 -22 -8 -83h-754q7 -162 109 -253q103 -92 247 -92q171 0 305 121l84 -145q-74 -67 -183 -108q-108 -40 -218 -40q-241 0 -396 155t-155 388zM299 635h555q-4 129 -75 201q-70 71 -177 71
q-118 0 -200 -72q-82 -71 -103 -200zM604 1180q-112 0 -191 63t-79 176v29h147v-27q0 -62 36 -92q37 -31 87 -31q48 0 85 32q36 32 36 93v25h147v-29q0 -114 -78 -176q-80 -63 -190 -63z" />
    <glyph glyph-name="Edotaccent" unicode="&#x116;" horiz-adv-x="1155" 
d="M190 0v1446h842v-176h-639v-453h518v-176h-518v-465h674v-176h-877zM545 1606v200h176v-200h-176z" />
    <glyph glyph-name="edotaccent" unicode="&#x117;" horiz-adv-x="1140" 
d="M86 518q0 243 147 393t373 150q212 0 330 -138q119 -139 119 -348q0 -22 -8 -83h-754q7 -162 109 -253q103 -92 247 -92q171 0 305 121l84 -145q-74 -67 -183 -108q-108 -40 -218 -40q-241 0 -396 155t-155 388zM299 635h555q-4 129 -75 201q-70 71 -177 71
q-118 0 -200 -72q-82 -71 -103 -200zM516 1247v201h176v-201h-176z" />
    <glyph glyph-name="Eogonek" unicode="&#x118;" horiz-adv-x="1155" 
d="M190 0v1446h842v-176h-639v-453h518v-176h-518v-465h674v-176q-133 -102 -133 -182q0 -36 29 -57t57 -27l29 -4l-48 -154q-10 0 -25 3q-17 3 -56 15q-41 12 -73 32q-30 19 -57 58q-26 38 -26 87q0 121 145 229h-719z" />
    <glyph glyph-name="eogonek" unicode="&#x119;" horiz-adv-x="1140" 
d="M86 518q0 243 147 393t373 150q212 0 330 -138q119 -139 119 -348l-8 -83h-754q7 -162 109 -253q103 -92 247 -92q169 0 305 121l82 -145q-25 -25 -99 -78q-77 -55 -127 -113q-48 -56 -48 -114q0 -36 29 -57t57 -27l26 -4l-45 -154q-9 0 -26 3q-19 3 -58 15t-72 32
q-32 20 -58 58q-25 37 -25 87q0 108 125 213q-54 -9 -78 -9q-241 0 -396 155t-155 388zM299 635h555q-4 129 -75 201q-70 71 -177 71q-118 0 -200 -73t-103 -199z" />
    <glyph glyph-name="Ecaron" unicode="&#x11a;" horiz-adv-x="1155" 
d="M528 1546l-180 260h174l107 -166h4l108 166h174l-182 -260h-205zM190 0v1446h842v-176h-639v-453h518v-176h-518v-465h674v-176h-877z" />
    <glyph glyph-name="ecaron" unicode="&#x11b;" horiz-adv-x="1140" 
d="M500 1188l-181 260h175l106 -166h4l109 166h174l-182 -260h-205zM86 518q0 243 147 393t373 150q212 0 330 -138q119 -139 119 -348q0 -22 -8 -83h-754q7 -162 109 -253q103 -92 247 -92q171 0 305 121l84 -145q-74 -67 -183 -108q-108 -40 -218 -40q-241 0 -396 155
t-155 388zM299 635h555q-4 129 -75 201q-70 71 -177 71q-118 0 -200 -72q-82 -71 -103 -200z" />
    <glyph glyph-name="Gcircumflex" unicode="&#x11c;" horiz-adv-x="1560" 
d="M532 1546l181 260h205l182 -260h-174l-109 164h-4l-106 -164h-175zM102 725q0 316 211 530q212 215 527 215q317 0 526 -176l-102 -149q-71 59 -188 101q-113 40 -222 40q-245 0 -394 -160t-149 -397q0 -247 152 -407t379 -160q235 0 409 180v209h-233v176h420v-727h-178
v90l2 62h-5q-78 -81 -194 -128q-121 -49 -250 -49q-297 0 -504 212q-207 211 -207 538z" />
    <glyph glyph-name="gcircumflex" unicode="&#x11d;" horiz-adv-x="1216" 
d="M307 1188l180 260h205l182 -260h-174l-108 164h-4l-107 -164h-174zM252 -188q142 -70 285 -70q144 0 236 71q91 70 91 218v84l6 65h-4q-100 -168 -311 -168t-337 150t-126 379t121 374q122 146 332 146q103 0 192 -39q88 -39 135 -119h7q-7 14 -7 31v102h191v-993
q0 -121 -44 -217q-44 -95 -120 -149q-74 -53 -166 -80q-90 -27 -192 -27q-181 0 -355 86zM293 547q0 -164 81 -263q82 -100 220 -100q122 0 198 84q76 83 76 273q0 348 -293 348q-132 0 -207 -91q-75 -92 -75 -251z" />
    <glyph glyph-name="Gbreve" unicode="&#x11e;" horiz-adv-x="1560" 
d="M102 725q0 316 211 530q212 215 527 215q317 0 526 -176l-102 -149q-71 59 -188 101q-113 40 -222 40q-245 0 -394 -160t-149 -397q0 -247 152 -407t379 -160q235 0 409 180v209h-233v176h420v-727h-178v90l2 62h-5q-78 -81 -194 -128q-121 -49 -250 -49q-297 0 -504 212
q-207 211 -207 538zM819 1538q-110 0 -191 64q-79 63 -79 176v28h147v-26q0 -62 36 -92q37 -31 87 -31q48 0 85 32q36 31 36 93v24h147v-28q0 -114 -78 -176q-81 -64 -190 -64z" />
    <glyph glyph-name="gbreve" unicode="&#x11f;" horiz-adv-x="1216" 
d="M252 -188q142 -70 285 -70q144 0 236 71q91 70 91 218v84l6 65h-4q-100 -168 -311 -168t-337 150t-126 379t121 374q122 146 332 146q103 0 192 -39q88 -39 135 -119h7q-7 14 -7 31v102h191v-993q0 -121 -44 -217q-44 -95 -120 -149q-74 -53 -166 -80q-90 -27 -192 -27
q-181 0 -355 86zM293 547q0 -164 81 -263q82 -100 220 -100q122 0 198 84q76 83 76 273q0 348 -293 348q-132 0 -207 -91q-75 -92 -75 -251zM592 1180q-112 0 -192 63q-78 62 -78 176v29h147v-27q0 -62 36 -92q37 -31 87 -31q48 0 85 32q36 32 36 93v25h147v-29
q0 -113 -79 -176t-189 -63z" />
    <glyph glyph-name="Gdotaccent" unicode="&#x120;" horiz-adv-x="1560" 
d="M102 725q0 316 211 530q212 215 527 215q317 0 526 -176l-102 -149q-71 59 -188 101q-113 40 -222 40q-245 0 -394 -160t-149 -397q0 -247 152 -407t379 -160q235 0 409 180v209h-233v176h420v-727h-178v90l2 62h-5q-78 -81 -194 -128q-121 -49 -250 -49q-297 0 -504 212
q-207 211 -207 538zM731 1606v200h176v-200h-176z" />
    <glyph glyph-name="gdotaccent" unicode="&#x121;" horiz-adv-x="1216" 
d="M252 -188q142 -70 285 -70q144 0 236 71q91 70 91 218v84l6 65h-4q-100 -168 -311 -168t-337 150t-126 379t121 374q122 146 332 146q103 0 192 -39q88 -39 135 -119h7q-7 14 -7 31v102h191v-993q0 -121 -44 -217q-44 -95 -120 -149q-74 -53 -166 -80q-90 -27 -192 -27
q-181 0 -355 86zM293 547q0 -164 81 -263q82 -100 220 -100q122 0 198 84q76 83 76 273q0 348 -293 348q-132 0 -207 -91q-75 -92 -75 -251zM504 1247v201h176v-201h-176z" />
    <glyph glyph-name="Gcommaaccent" unicode="&#x122;" horiz-adv-x="1560" 
d="M719 -121h174q14 -52 14 -104q0 -85 -51 -193h-151q38 108 38 172q0 62 -24 125zM102 725q0 316 211 530q212 215 527 215q317 0 526 -176l-102 -149q-71 59 -188 101q-113 40 -222 40q-245 0 -394 -160t-149 -397q0 -247 152 -407t379 -160q235 0 409 180v209h-233v176
h420v-727h-178v90l2 62h-5q-78 -81 -194 -128q-121 -49 -250 -49q-297 0 -504 212q-207 211 -207 538z" />
    <glyph glyph-name="gcommaaccent" unicode="&#x123;" horiz-adv-x="1216" 
d="M682 1153h-172q-14 52 -14 102q0 83 51 191h149q-39 -111 -39 -170q0 -57 25 -123zM252 -188q142 -70 285 -70q144 0 236 71q91 70 91 218v84l6 65h-4q-100 -168 -311 -168t-337 150t-126 379t121 374q122 146 332 146q103 0 192 -39q88 -39 135 -119h7q-7 14 -7 31v102
h191v-993q0 -121 -44 -217q-44 -95 -120 -149q-74 -53 -166 -80q-90 -27 -192 -27q-181 0 -355 86zM293 547q0 -164 81 -263q82 -100 220 -100q122 0 198 84q76 83 76 273q0 348 -293 348q-132 0 -207 -91q-75 -92 -75 -251z" />
    <glyph glyph-name="Hcircumflex" unicode="&#x124;" horiz-adv-x="1536" 
d="M483 1546l181 260h204l183 -260h-174l-109 164h-4l-107 -164h-174zM190 0v1446h203v-635h752v635h201v-1446h-201v635h-752v-635h-203z" />
    <glyph glyph-name="hcircumflex" unicode="&#x125;" horiz-adv-x="1234" 
d="M-27 1546l181 260h204l183 -260h-174l-109 164h-4l-107 -164h-174zM154 0v1446h198v-537l-8 -86h4q44 90 146 164q103 74 243 74q355 0 355 -397v-664h-199v618q0 126 -40 193q-41 68 -155 68q-148 0 -247 -110q-99 -109 -99 -277v-492h-198z" />
    <glyph glyph-name="Hbar" unicode="&#x126;" horiz-adv-x="1554" 
d="M205 0v1053h-135v137h135v256h205v-256h735v256h205v-256h133v-137h-133v-1053h-205v635h-735v-635h-205zM410 811h735v242h-735v-242z" />
    <glyph glyph-name="hbar" unicode="&#x127;" horiz-adv-x="1234" 
d="M154 0v1153h-148v129h148v164h198v-164h273v-129h-273v-238l-4 -86h4q40 87 143 160q102 72 242 72q355 0 355 -397v-664h-199v618q0 126 -40 193q-41 68 -155 68q-152 0 -249 -112t-97 -269v-498h-198z" />
    <glyph glyph-name="Itilde" unicode="&#x128;" horiz-adv-x="585" 
d="M190 0v1446h203v-1446h-203zM-49 1548q0 260 209 260q60 0 104 -34q35 -27 82 -70q38 -35 72 -35q41 0 60 40q20 42 20 93h143q0 -260 -209 -260q-58 0 -104 35q-35 27 -82 70q-37 34 -72 34q-80 0 -80 -133h-143z" />
    <glyph glyph-name="itilde" unicode="&#x129;" horiz-adv-x="503" 
d="M154 0v1036h198v-1036h-198zM-88 1190q0 260 209 260q58 0 104 -35q42 -32 82 -69q38 -35 72 -35q41 0 60 40q20 42 20 93h143q0 -260 -209 -260q-58 0 -104 35q-42 32 -82 69q-38 35 -72 35q-80 0 -80 -133h-143z" />
    <glyph glyph-name="Imacron" unicode="&#x12a;" horiz-adv-x="585" 
d="M190 0v1446h203v-1446h-203zM37 1606v145h520v-145h-520z" />
    <glyph glyph-name="imacron" unicode="&#x12b;" horiz-adv-x="503" 
d="M154 0v1036h198v-1036h-198zM-4 1247v146h520v-146h-520z" />
    <glyph glyph-name="Ibreve" unicode="&#x12c;" horiz-adv-x="585" 
d="M190 0v1446h203v-1446h-203zM297 1538q-111 0 -192 64q-78 62 -78 176v28h147v-26q0 -62 36 -92q37 -31 87 -31q48 0 85 32q36 31 36 93v24h147v-28q0 -113 -79 -176q-81 -64 -189 -64z" />
    <glyph glyph-name="ibreve" unicode="&#x12d;" horiz-adv-x="503" 
d="M154 0v1036h198v-1036h-198zM256 1180q-112 0 -191 63t-79 176v29h147v-27q0 -62 36 -92q37 -31 87 -31q48 0 85 32q36 32 36 93v25h147v-29q0 -113 -79 -176q-80 -63 -189 -63z" />
    <glyph glyph-name="Iogonek" unicode="&#x12e;" horiz-adv-x="585" 
d="M190 0v1446h203v-1446q-131 -105 -131 -182q0 -36 29 -57t57 -27l27 -4l-47 -154q-11 0 -26 3q-17 3 -56 15q-41 12 -73 32q-30 19 -57 58q-26 38 -26 87q0 118 139 229h-39z" />
    <glyph glyph-name="iogonek" unicode="&#x12f;" horiz-adv-x="505" 
d="M154 0v1036h198v-1036q-131 -105 -131 -182q0 -36 29 -57q28 -21 57 -27l27 -4l-45 -154q-11 0 -27 3t-57 15t-73 32q-30 19 -57 58q-26 38 -26 87q0 117 141 229h-36zM149 1245v201h205v-201h-205z" />
    <glyph glyph-name="Idotaccent" unicode="&#x130;" horiz-adv-x="585" 
d="M190 0v1446h203v-1446h-203zM209 1606v200h176v-200h-176z" />
    <glyph glyph-name="dotlessi" unicode="&#x131;" horiz-adv-x="503" 
d="M154 0v1036h198v-1036h-198z" />
    <glyph glyph-name="IJ" unicode="&#x132;" horiz-adv-x="1245" 
d="M582 -8v184q52 0 95 12t89 44q45 31 72 98q26 64 26 162v954h205v-957q0 -497 -487 -497zM190 0v1446h203v-1446h-203z" />
    <glyph glyph-name="ij" unicode="&#x133;" horiz-adv-x="1009" 
d="M150 1245v201h204v-201h-204zM154 0v1036h198v-1036h-198zM653 1245v201h205v-201h-205zM657 -23v1059h199v-1071q0 -99 -30 -172q-31 -75 -71 -114q-41 -39 -101 -64q-62 -26 -103 -31q-45 -6 -92 -6q-26 0 -70 4v170q19 -4 45 -4q35 0 70 8q28 6 70 30q39 22 61 71
q22 48 22 120z" />
    <glyph glyph-name="Jcircumflex" unicode="&#x134;" horiz-adv-x="1091" 
d="M342 1546l180 260h205l182 -260h-174l-108 164h-4l-107 -164h-174zM57 416v71h201v-61q0 -115 56 -189q57 -75 171 -75q100 0 163 62q65 63 65 194v852h-365v176h565v-1030q0 -219 -126 -330t-302 -111q-175 0 -302 112q-126 111 -126 329z" />
    <glyph glyph-name="jcircumflex" unicode="&#x135;" horiz-adv-x="503" 
d="M-29 1186l181 260h192l180 -260h-166l-108 166h-4l-107 -166h-168zM154 -23v1059h198v-1071q0 -101 -29 -172q-30 -73 -72 -114q-41 -40 -100 -64q-62 -25 -104 -31q-45 -6 -92 -6q-49 0 -70 4v170q25 -4 45 -4q35 0 70 8q29 7 71 30q37 21 60 71q23 51 23 120z" />
    <glyph glyph-name="Kcommaaccent" unicode="&#x136;" horiz-adv-x="1257" 
d="M557 -121h174q14 -52 14 -104q0 -85 -51 -193h-151q39 111 39 172q0 59 -25 125zM190 0v1446h203v-608h215l367 608h223l-422 -686v-4l449 -756h-232l-385 662h-215v-662h-203z" />
    <glyph glyph-name="kcommaaccent" unicode="&#x137;" horiz-adv-x="1069" 
d="M465 -121h174q14 -52 14 -104q0 -85 -51 -193h-151q38 108 38 172q0 62 -24 125zM154 0v1446h198v-791h148l280 381h226l-344 -456v-5l382 -575h-231l-309 485h-152v-485h-198z" />
    <glyph glyph-name="kgreenlandic" unicode="&#x138;" horiz-adv-x="1064" 
d="M154 0v1036h198v-407h144l297 407h229l-360 -481v-4l366 -551h-237l-291 461h-148v-461h-198z" />
    <glyph glyph-name="Lacute" unicode="&#x139;" horiz-adv-x="1077" 
d="M207 1546l147 260h215l-196 -260h-166zM190 0v1446h203v-1270h649v-176h-852z" />
    <glyph glyph-name="lacute" unicode="&#x13a;" horiz-adv-x="546" 
d="M168 1546l147 260h215l-196 -260h-166zM154 285v1161h196v-1129q0 -83 30 -115t83 -32q19 0 35 2v-176q-44 -6 -66 -6q-278 0 -278 295z" />
    <glyph glyph-name="Lcommaaccent" unicode="&#x13b;" horiz-adv-x="1077" 
d="M537 -121h174q14 -52 14 -104q0 -85 -51 -193h-152q39 111 39 172q0 62 -24 125zM190 0v1446h203v-1270h649v-176h-852z" />
    <glyph glyph-name="lcommaaccent" unicode="&#x13c;" horiz-adv-x="546" 
d="M236 -121h174q14 -52 14 -104q0 -85 -51 -193h-152q39 111 39 172q0 62 -24 125zM154 285v1161h196v-1129q0 -83 30 -115t83 -32q19 0 35 2v-176q-44 -6 -66 -6q-278 0 -278 295z" />
    <glyph glyph-name="Lcaron" unicode="&#x13d;" horiz-adv-x="1079" 
d="M565 1444h174q15 -56 15 -105q0 -82 -52 -192h-151q39 111 39 172q0 59 -25 125zM190 0v1446h203v-1270h649v-176h-852z" />
    <glyph glyph-name="lcaron" unicode="&#x13e;" horiz-adv-x="563" 
d="M469 1444h174q14 -52 14 -105q0 -84 -51 -192h-151q39 111 39 172q0 59 -25 125zM154 285v1161h196v-1129q0 -83 30 -115t83 -32q19 0 35 2v-176q-44 -6 -66 -6q-278 0 -278 295z" />
    <glyph glyph-name="Ldot" unicode="&#x13f;" horiz-adv-x="1079" 
d="M190 0v1446h203v-1270h649v-176h-852zM631 668v215h207v-215h-207z" />
    <glyph glyph-name="ldot" unicode="&#x140;" horiz-adv-x="702" 
d="M154 285v1161h196v-1129q0 -83 30 -115t83 -32q19 0 35 2v-176q-44 -6 -66 -6q-278 0 -278 295zM498 668v215h207v-215h-207z" />
    <glyph glyph-name="Lslash" unicode="&#x141;" horiz-adv-x="1087" 
d="M203 0v616l-123 -69v198l123 70v631h200v-516l224 129v-199l-224 -129v-555h648v-176h-848z" />
    <glyph glyph-name="lslash" unicode="&#x142;" horiz-adv-x="585" 
d="M33 563v199l149 86v598h199v-483l168 96v-199l-168 -98v-445q0 -147 111 -147l36 2v-176q-30 -6 -67 -6q-279 0 -279 295v364z" />
    <glyph glyph-name="Nacute" unicode="&#x143;" horiz-adv-x="1540" 
d="M680 1546l147 260h215l-196 -260h-166zM190 0v1446h201l645 -938l119 -211h4q-12 129 -12 211v938h201v-1446h-199l-645 938l-119 211h-4q12 -129 12 -211v-938h-203z" />
    <glyph glyph-name="nacute" unicode="&#x144;" horiz-adv-x="1234" 
d="M549 1188l147 260h215l-196 -260h-166zM154 0v1036h192v-141l-6 -78h4q39 89 140 166q102 78 253 78q355 0 355 -397v-664h-199v618q0 126 -40 193q-41 68 -155 68q-148 0 -247 -110q-99 -109 -99 -271v-498h-198z" />
    <glyph glyph-name="Ncommaaccent" unicode="&#x145;" horiz-adv-x="1540" 
d="M676 -121h174q14 -52 14 -104q0 -85 -51 -193h-151q38 108 38 172q0 62 -24 125zM190 0v1446h201l645 -938l119 -211h4q-12 129 -12 211v938h201v-1446h-199l-645 938l-119 211h-4q12 -129 12 -211v-938h-203z" />
    <glyph glyph-name="ncommaaccent" unicode="&#x146;" horiz-adv-x="1234" 
d="M526 -121h174q15 -55 15 -104q0 -85 -51 -193h-152q39 111 39 172q0 59 -25 125zM154 0v1036h192v-141l-6 -78h4q39 89 140 166q102 78 253 78q355 0 355 -397v-664h-199v618q0 126 -40 193q-41 68 -155 68q-148 0 -247 -110q-99 -109 -99 -271v-498h-198z" />
    <glyph glyph-name="Ncaron" unicode="&#x147;" horiz-adv-x="1540" 
d="M666 1546l-181 260h174l107 -166h4l109 166h174l-183 -260h-204zM190 0v1446h201l645 -938l119 -211h4q-12 129 -12 211v938h201v-1446h-199l-645 938l-119 211h-4q12 -129 12 -211v-938h-203z" />
    <glyph glyph-name="ncaron" unicode="&#x148;" horiz-adv-x="1234" 
d="M535 1188l-181 260h174l107 -166h4l109 166h174l-183 -260h-204zM154 0v1036h192v-141l-6 -78h4q39 89 140 166q102 78 253 78q355 0 355 -397v-664h-199v618q0 126 -40 193q-41 68 -155 68q-148 0 -247 -110q-99 -109 -99 -271v-498h-198z" />
    <glyph glyph-name="napostrophe" unicode="&#x149;" horiz-adv-x="1234" 
d="M6 1444h174q15 -56 15 -105q0 -82 -52 -192h-151q39 111 39 172q0 59 -25 125zM154 0v1036h192v-141l-6 -78h4q39 89 140 166q102 78 253 78q355 0 355 -397v-664h-199v618q0 126 -40 193q-41 68 -155 68q-148 0 -247 -110q-99 -109 -99 -271v-498h-198z" />
    <glyph glyph-name="Eng" unicode="&#x14a;" horiz-adv-x="1538" 
d="M190 0v1446h201l645 -938l119 -211h4q-12 129 -12 211v938h201v-1391q0 -133 -42 -230q-42 -98 -114 -149q-71 -50 -151 -73q-81 -23 -169 -23v187q97 0 179 61q83 62 90 186l-637 924l-119 211h-4q12 -129 12 -211v-938h-203z" />
    <glyph glyph-name="eng" unicode="&#x14b;" horiz-adv-x="1234" 
d="M154 0v1036h192v-153l-4 -60h4q40 87 140 163q99 75 251 75q355 0 355 -397v-705q0 -99 -30 -172t-72 -114q-41 -40 -100 -64q-62 -25 -104 -31q-45 -6 -92 -6l-69 4v170q24 -2 45 -2q34 0 69 8q32 7 71 29q38 22 60 69q23 51 23 121v647q0 126 -40 193q-41 68 -155 68
q-152 0 -249 -112t-97 -269v-498h-198z" />
    <glyph glyph-name="Omacron" unicode="&#x14c;" horiz-adv-x="1685" 
d="M584 1606v145h520v-145h-520zM100 733q0 314 211 525q212 212 533 212q318 0 530 -212q211 -211 211 -525q0 -322 -211 -539q-213 -219 -530 -219q-319 0 -532 219q-212 218 -212 539zM309 733q0 -243 152 -407t383 -164q229 0 381 164q151 163 151 407q0 236 -151 394
q-151 159 -381 159q-232 0 -383 -159q-152 -160 -152 -394z" />
    <glyph glyph-name="omacron" unicode="&#x14d;" horiz-adv-x="1288" 
d="M385 1247v146h520v-146h-520zM86 520q0 232 162 386q163 155 395 155q234 0 397 -154q162 -153 162 -387q0 -233 -162 -389t-395 -156t-396 156t-163 389zM289 520q0 -163 103 -267q104 -106 253 -106q147 0 252 107q104 105 104 266q0 160 -104 264q-105 105 -252 105
q-149 0 -253 -105q-103 -104 -103 -264z" />
    <glyph glyph-name="Obreve" unicode="&#x14e;" horiz-adv-x="1685" 
d="M100 733q0 314 211 525q212 212 533 212q318 0 530 -212q211 -211 211 -525q0 -322 -211 -539q-213 -219 -530 -219q-319 0 -532 219q-212 218 -212 539zM309 733q0 -243 152 -407t383 -164q229 0 381 164q151 163 151 407q0 236 -151 394q-151 159 -381 159
q-232 0 -383 -159q-152 -160 -152 -394zM842 1538q-111 0 -192 64q-79 63 -79 176v28h148v-26q0 -62 36 -92q37 -31 87 -31q48 0 85 32q36 31 36 93v24h147v-28q0 -113 -79 -176q-81 -64 -189 -64z" />
    <glyph glyph-name="obreve" unicode="&#x14f;" horiz-adv-x="1288" 
d="M86 520q0 232 162 386q163 155 395 155q234 0 397 -154q162 -153 162 -387q0 -233 -162 -389t-395 -156t-396 156t-163 389zM289 520q0 -163 103 -267q104 -106 253 -106q147 0 252 107q104 105 104 266q0 160 -104 264q-105 105 -252 105q-149 0 -253 -105
q-103 -104 -103 -264zM643 1180q-111 0 -191 63q-79 63 -79 176v29h147v-27q0 -62 36 -92q37 -31 87 -31q48 0 85 32q36 32 36 93v25h147v-29q0 -114 -78 -176q-79 -63 -190 -63z" />
    <glyph glyph-name="Ohungarumlaut" unicode="&#x150;" horiz-adv-x="1685" 
d="M887 1546l149 260h207l-196 -260h-160zM571 1546l140 260h180l-146 -260h-174zM100 733q0 314 211 525q212 212 533 212q318 0 530 -212q211 -211 211 -525q0 -322 -211 -539q-213 -219 -530 -219q-319 0 -532 219q-212 218 -212 539zM309 733q0 -243 152 -407t383 -164
q229 0 381 164q151 163 151 407q0 236 -151 394q-151 159 -381 159q-232 0 -383 -159q-152 -160 -152 -394z" />
    <glyph glyph-name="ohungarumlaut" unicode="&#x151;" horiz-adv-x="1288" 
d="M688 1188l150 260h206l-196 -260h-160zM373 1188l139 260h180l-145 -260h-174zM86 520q0 232 162 386q163 155 395 155q234 0 397 -154q162 -153 162 -387q0 -233 -162 -389t-395 -156t-396 156t-163 389zM289 520q0 -163 103 -267q104 -106 253 -106q147 0 252 107
q104 105 104 266q0 160 -104 264q-105 105 -252 105q-149 0 -253 -105q-103 -104 -103 -264z" />
    <glyph glyph-name="OE" unicode="&#x152;" horiz-adv-x="1957" 
d="M102 725q0 313 214 526t534 213q54 0 136 -9t116 -9h733v-176h-639v-453h520v-176h-520v-465h674v-176h-768q-31 0 -115 -9t-137 -9q-320 0 -534 214t-214 529zM311 725q0 -239 151 -404q150 -163 388 -163q41 0 73 4q44 6 54 8l18 4v1098q-61 16 -145 16
q-236 0 -387 -162q-152 -163 -152 -401z" />
    <glyph glyph-name="oe" unicode="&#x153;" horiz-adv-x="2054" 
d="M86 516q0 239 161 392t392 153q301 0 448 -246h5q129 246 426 246q211 0 330 -138q118 -137 118 -348l-6 -83h-756q12 -161 114 -253q103 -92 243 -92q171 0 307 121l82 -145q-72 -67 -183 -108q-107 -40 -219 -40q-312 0 -452 252h-4q-146 -252 -453 -252
q-230 0 -392 151q-161 150 -161 390zM1210 635h553q-5 128 -73 198q-69 70 -174 70q-118 0 -200 -72q-84 -73 -106 -196zM289 516q0 -164 103 -266q105 -103 251 -103q149 0 253 104q103 103 103 271q0 163 -104 264q-106 103 -252 103q-147 0 -251 -104
q-103 -103 -103 -269z" />
    <glyph glyph-name="Racute" unicode="&#x154;" horiz-adv-x="1286" 
d="M537 1546l147 260h215l-197 -260h-165zM190 0v1446h459q183 0 269 -39q106 -46 167 -145q62 -100 62 -234q0 -139 -71 -249q-70 -109 -187 -148v-4q18 -23 41 -66l307 -561h-229l-306 575h-309v-575h-203zM393 752h291q119 0 188 72q70 73 70 194q0 170 -135 227
q-58 25 -174 25h-240v-518z" />
    <glyph glyph-name="racute" unicode="&#x155;" horiz-adv-x="770" 
d="M369 1188l147 260h215l-196 -260h-166zM154 0v1036h192v-186l-6 -76h4q39 120 127 197q89 78 203 78q16 0 53 -5v-196q-15 4 -57 4q-156 0 -237 -126t-81 -296v-430h-198z" />
    <glyph glyph-name="Rcommaaccent" unicode="&#x156;" horiz-adv-x="1286" 
d="M573 -121h175q14 -52 14 -104q0 -85 -51 -193h-152q39 111 39 172q0 59 -25 125zM190 0v1446h459q183 0 269 -39q106 -46 167 -145q62 -100 62 -234q0 -139 -71 -249q-70 -109 -187 -148v-4q18 -23 41 -66l307 -561h-229l-306 575h-309v-575h-203zM393 752h291
q119 0 188 72q70 73 70 194q0 170 -135 227q-58 25 -174 25h-240v-518z" />
    <glyph glyph-name="rcommaaccent" unicode="&#x157;" horiz-adv-x="770" 
d="M166 -121h174q14 -52 14 -104q0 -85 -51 -193h-151q38 108 38 172q0 62 -24 125zM154 0v1036h192v-186l-6 -76h4q39 120 127 197q89 78 203 78q16 0 53 -5v-196q-15 4 -57 4q-156 0 -237 -126t-81 -296v-430h-198z" />
    <glyph glyph-name="Rcaron" unicode="&#x158;" horiz-adv-x="1286" 
d="M520 1546l-180 260h174l107 -166h4l108 166h174l-182 -260h-205zM190 0v1446h459q183 0 269 -39q106 -46 167 -145q62 -100 62 -234q0 -139 -71 -249q-70 -109 -187 -148v-4q18 -23 41 -66l307 -561h-229l-306 575h-309v-575h-203zM393 752h291q119 0 188 72
q70 73 70 194q0 170 -135 227q-58 25 -174 25h-240v-518z" />
    <glyph glyph-name="rcaron" unicode="&#x159;" horiz-adv-x="770" 
d="M356 1188l-180 260h174l107 -166h4l108 166h174l-182 -260h-205zM154 0v1036h192v-186l-6 -76h4q39 120 127 197q89 78 203 78q16 0 53 -5v-196q-15 4 -57 4q-156 0 -237 -126t-81 -296v-430h-198z" />
    <glyph glyph-name="Sacute" unicode="&#x15a;" horiz-adv-x="1116" 
d="M471 1546l147 260h216l-197 -260h-166zM84 166l115 153q69 -67 168 -111q100 -44 196 -44q117 0 185 56q69 57 69 151q0 87 -72 150q-71 62 -175 106q-115 48 -205 92q-105 51 -175 137q-71 87 -71 213q0 180 134 291q132 110 339 110q247 0 403 -147l-92 -166
q-63 58 -148 92q-88 35 -171 35q-115 0 -187 -56q-73 -57 -73 -149q0 -71 51 -127t129 -87q86 -35 168 -73q90 -42 168 -87t129 -127q51 -83 51 -191q0 -175 -123 -294q-122 -118 -338 -118q-279 0 -475 191z" />
    <glyph glyph-name="sacute" unicode="&#x15b;" horiz-adv-x="915" 
d="M367 1188l147 260h215l-197 -260h-165zM66 127l94 135q124 -121 305 -121q80 0 128 36t48 99q0 54 -55 93q-55 38 -133 67q-65 24 -156 64q-77 34 -133 101q-55 65 -55 161q0 141 106 220t266 79q207 0 336 -115l-80 -143q-44 43 -117 67q-75 25 -145 25q-80 0 -128 -33
t-48 -96q0 -55 55 -94q59 -41 133 -67q70 -24 157 -62q76 -33 134 -102q56 -67 56 -160q0 -135 -105 -220q-106 -86 -268 -86q-245 0 -395 152z" />
    <glyph glyph-name="Scircumflex" unicode="&#x15c;" horiz-adv-x="1116" 
d="M279 1546l180 260h205l182 -260h-174l-109 164h-4l-106 -164h-174zM84 166l115 153q69 -67 168 -111q100 -44 196 -44q117 0 185 56q69 57 69 151q0 87 -72 150q-71 62 -175 106q-115 48 -205 92q-105 51 -175 137q-71 87 -71 213q0 180 134 291q132 110 339 110
q247 0 403 -147l-92 -166q-63 58 -148 92q-88 35 -171 35q-115 0 -187 -56q-73 -57 -73 -149q0 -71 51 -127t129 -87q86 -35 168 -73q90 -42 168 -87t129 -127q51 -83 51 -191q0 -175 -123 -294q-122 -118 -338 -118q-279 0 -475 191z" />
    <glyph glyph-name="scircumflex" unicode="&#x15d;" horiz-adv-x="915" 
d="M178 1188l180 260h205l182 -260h-174l-108 164h-4l-107 -164h-174zM66 127l94 135q124 -121 305 -121q80 0 128 36t48 99q0 54 -55 93q-55 38 -133 67q-65 24 -156 64q-77 34 -133 101q-55 65 -55 161q0 141 106 220t266 79q207 0 336 -115l-80 -143q-44 43 -117 67
q-75 25 -145 25q-80 0 -128 -33t-48 -96q0 -55 55 -94q59 -41 133 -67q70 -24 157 -62q76 -33 134 -102q56 -67 56 -160q0 -135 -105 -220q-106 -86 -268 -86q-245 0 -395 152z" />
    <glyph glyph-name="Scedilla" unicode="&#x15e;" horiz-adv-x="1118" 
d="M463 -180l41 157q-252 21 -420 189l115 153q69 -67 168 -111q100 -44 196 -44q117 0 185 56q69 57 69 151q0 87 -72 150q-71 62 -175 106q-115 48 -205 92q-105 51 -175 137q-71 87 -71 213q0 180 134 291q132 110 339 110q247 0 403 -147l-92 -166q-63 58 -148 92
q-88 35 -171 35q-115 0 -187 -56q-73 -57 -73 -149q0 -71 51 -127t129 -87q86 -35 168 -73q90 -42 168 -87t129 -127q51 -83 51 -191q0 -164 -108 -278q-110 -116 -298 -132l-16 -79q65 -7 107 -48q40 -39 40 -102q0 -88 -60 -130t-148 -42q-57 0 -113 12v121q32 -14 86 -14
q98 0 98 63q0 64 -108 64z" />
    <glyph glyph-name="scedilla" unicode="&#x15f;" horiz-adv-x="919" 
d="M356 -180l41 160q-207 21 -329 147l94 135q124 -121 305 -121q80 0 128 36t48 99q0 54 -55 93q-55 38 -133 67q-65 24 -156 64q-77 34 -133 101q-55 65 -55 161q0 141 106 220t266 79q207 0 336 -115l-80 -143q-44 43 -117 67q-75 25 -145 25q-80 0 -128 -33t-48 -96
q0 -55 55 -94q59 -42 134 -67q72 -25 157 -62q75 -33 133 -102q56 -67 56 -160q0 -122 -91 -207t-237 -97l-16 -79q64 -7 106 -48q41 -39 41 -102q0 -88 -60 -130t-149 -42q-58 0 -113 12v121q32 -14 86 -14q99 0 99 63q0 64 -109 64z" />
    <glyph glyph-name="Scaron" unicode="&#x160;" horiz-adv-x="1116" 
d="M459 1546l-180 260h174l106 -166h4l109 166h174l-182 -260h-205zM84 166l115 153q69 -67 168 -111q100 -44 196 -44q117 0 185 56q69 57 69 151q0 87 -72 150q-71 62 -175 106q-115 48 -205 92q-105 51 -175 137q-71 87 -71 213q0 180 134 291q132 110 339 110
q247 0 403 -147l-92 -166q-63 58 -148 92q-88 35 -171 35q-115 0 -187 -56q-73 -57 -73 -149q0 -71 51 -127t129 -87q86 -35 168 -73q90 -42 168 -87t129 -127q51 -83 51 -191q0 -175 -123 -294q-122 -118 -338 -118q-279 0 -475 191z" />
    <glyph glyph-name="scaron" unicode="&#x161;" horiz-adv-x="915" 
d="M358 1188l-180 260h174l107 -166h4l108 166h174l-182 -260h-205zM66 127l94 135q124 -121 305 -121q80 0 128 36t48 99q0 54 -55 93q-55 38 -133 67q-65 24 -156 64q-77 34 -133 101q-55 65 -55 161q0 141 106 220t266 79q207 0 336 -115l-80 -143q-44 43 -117 67
q-75 25 -145 25q-80 0 -128 -33t-48 -96q0 -55 55 -94q59 -41 133 -67q70 -24 157 -62q76 -33 134 -102q56 -67 56 -160q0 -135 -105 -220q-106 -86 -268 -86q-245 0 -395 152z" />
    <glyph glyph-name="Tcommaaccent" unicode="&#x162;" horiz-adv-x="1259" 
d="M528 0v1270h-497v176h1196v-176h-498v-1270h-49l-23 -102q65 -7 107 -48q41 -39 41 -102q0 -87 -61 -130q-60 -42 -148 -42q-58 0 -113 12v121q35 -14 86 -14q99 0 99 63q0 64 -109 64l-37 -2l47 180h-41z" />
    <glyph glyph-name="tcommaaccent" unicode="&#x163;" horiz-adv-x="714" 
d="M315 -180l58 219q-176 90 -176 340v485h-136v162h140v295h194v-295h250v-162h-250v-463q0 -58 17 -103q18 -47 40 -69q24 -24 55 -39q26 -13 57 -18q23 -4 52 -4t48 4v-176q-50 -6 -70 -6q-70 0 -121 12l-22 -104q64 -7 106 -48q41 -39 41 -102q0 -88 -60 -130t-149 -42
q-57 0 -113 12v121q32 -14 86 -14q99 0 99 63q0 64 -109 64z" />
    <glyph glyph-name="Tcaron" unicode="&#x164;" horiz-adv-x="1259" 
d="M524 1546l-180 260h174l107 -166h4l108 166h174l-182 -260h-205zM528 0v1270h-497v176h1196v-176h-498v-1270h-201z" />
    <glyph glyph-name="tcaron" unicode="&#x165;" horiz-adv-x="714" 
d="M516 1446h174q15 -56 15 -103q0 -79 -52 -188h-151q39 111 39 168t-25 123zM197 379v485h-136v162h140v295h194v-295h250v-162h-250v-463q0 -58 17 -103q18 -47 40 -69q24 -24 55 -39q26 -13 57 -18q23 -4 52 -4t48 4v-176q-50 -6 -70 -6q-50 0 -93 7q-49 8 -104 31
q-60 25 -99 63q-42 41 -72 115q-29 72 -29 173z" />
    <glyph glyph-name="Tbar" unicode="&#x166;" horiz-adv-x="1280" 
d="M539 0v635h-320v156h320v479h-498v176h1196v-176h-498v-479h330v-156h-330v-635h-200z" />
    <glyph glyph-name="tbar" unicode="&#x167;" horiz-adv-x="722" 
d="M57 530v140h146v194h-135v162h139v295h192v-295h250v-162h-250v-194h240v-140h-240v-137q0 -69 23 -118q22 -48 60 -69q42 -23 71 -30q35 -8 68 -8l47 4v-176q-28 -6 -70 -6q-50 0 -92 7q-48 8 -104 31q-60 25 -100 63q-43 42 -71 115q-28 74 -28 173v151h-146z" />
    <glyph glyph-name="Utilde" unicode="&#x168;" horiz-adv-x="1486" 
d="M174 512v934h203v-932q0 -166 99 -259t267 -93t267 93q98 92 98 261v930h203v-934q0 -242 -156 -389q-157 -148 -410 -148q-254 0 -413 148q-158 147 -158 389zM397 1548q0 260 209 260q61 0 105 -34q35 -27 82 -70q38 -35 71 -35q42 0 61 40q19 39 19 93h143
q0 -260 -208 -260q-59 0 -105 35q-35 27 -82 70q-37 34 -71 34q-80 0 -80 -133h-144z" />
    <glyph glyph-name="utilde" unicode="&#x169;" horiz-adv-x="1222" 
d="M141 373v663h199v-618q0 -123 41 -191q40 -67 154 -67q153 0 245 114q92 115 92 277v485h197v-1036h-192v143l8 76h-4q-40 -90 -144 -168q-101 -76 -241 -76q-355 0 -355 398zM260 1190q0 260 209 260q58 0 104 -35q42 -32 82 -69q38 -35 72 -35q41 0 60 40q20 42 20 93
h143q0 -260 -209 -260q-58 0 -104 35q-42 32 -82 69q-38 35 -72 35q-80 0 -80 -133h-143z" />
    <glyph glyph-name="Umacron" unicode="&#x16a;" horiz-adv-x="1486" 
d="M174 512v934h203v-932q0 -166 99 -259t267 -93t267 93q98 92 98 261v930h203v-934q0 -242 -156 -389q-157 -148 -410 -148q-254 0 -413 148q-158 147 -158 389zM483 1606v145h521v-145h-521z" />
    <glyph glyph-name="umacron" unicode="&#x16b;" horiz-adv-x="1222" 
d="M141 373v663h199v-618q0 -123 41 -191q40 -67 154 -67q153 0 245 114q92 115 92 277v485h197v-1036h-192v143l8 76h-4q-40 -90 -144 -168q-101 -76 -241 -76q-355 0 -355 398zM346 1247v146h520v-146h-520z" />
    <glyph glyph-name="Ubreve" unicode="&#x16c;" horiz-adv-x="1486" 
d="M174 512v934h203v-932q0 -166 99 -259t267 -93t267 93q98 92 98 261v930h203v-934q0 -242 -156 -389q-157 -148 -410 -148q-254 0 -413 148q-158 147 -158 389zM741 1538q-110 0 -191 64q-79 63 -79 176v28h147v-26q0 -62 36 -92q37 -31 87 -31q48 0 85 32q36 31 36 93
v24h148v-28q0 -113 -79 -176q-81 -64 -190 -64z" />
    <glyph glyph-name="ubreve" unicode="&#x16d;" horiz-adv-x="1222" 
d="M141 373v663h199v-618q0 -123 41 -191q40 -67 154 -67q153 0 245 114q92 115 92 277v485h197v-1036h-192v143l8 76h-4q-40 -90 -144 -168q-101 -76 -241 -76q-355 0 -355 398zM606 1180q-112 0 -191 63t-79 176v29h147v-27q0 -62 36 -92q37 -31 87 -31q48 0 85 32
q36 32 36 93v25h147v-29q0 -114 -78 -176q-80 -63 -190 -63z" />
    <glyph glyph-name="Uring" unicode="&#x16e;" horiz-adv-x="1486" 
d="M741 1522q-72 0 -123 42t-51 109q0 70 51 112t123 42q73 0 122 -42q50 -42 50 -112q0 -67 -51 -109t-121 -42zM741 1606q30 0 49 19t19 48q0 33 -19 52q-20 20 -49 20q-31 0 -49 -20q-18 -19 -18 -52q0 -29 18 -48t49 -19zM174 512v934h203v-932q0 -166 99 -259t267 -93
t267 93q98 92 98 261v930h203v-934q0 -242 -156 -389q-157 -148 -410 -148q-254 0 -413 148q-158 147 -158 389z" />
    <glyph glyph-name="uring" unicode="&#x16f;" horiz-adv-x="1222" 
d="M606 1163q-72 0 -123 42t-51 110q0 69 51 111t123 42t122 -42t50 -111q0 -68 -51 -110t-121 -42zM606 1247q28 0 48 20t20 48q0 32 -20 52q-19 19 -48 19q-31 0 -49 -19t-18 -52q0 -29 18 -48q18 -20 49 -20zM141 373v663h199v-618q0 -123 41 -191q40 -67 154 -67
q153 0 245 114q92 115 92 277v485h197v-1036h-192v143l8 76h-4q-40 -90 -144 -168q-101 -76 -241 -76q-355 0 -355 398z" />
    <glyph glyph-name="Uhungarumlaut" unicode="&#x170;" horiz-adv-x="1486" 
d="M174 512v934h203v-932q0 -166 99 -259t267 -93t267 93q98 92 98 261v930h203v-934q0 -242 -156 -389q-157 -148 -410 -148q-254 0 -413 148q-158 147 -158 389zM786 1546l150 260h207l-197 -260h-160zM471 1546l139 260h181l-146 -260h-174z" />
    <glyph glyph-name="uhungarumlaut" unicode="&#x171;" horiz-adv-x="1222" 
d="M141 373v663h199v-618q0 -123 41 -191q40 -67 154 -67q153 0 245 114q92 115 92 277v485h197v-1036h-192v143l8 76h-4q-40 -90 -144 -168q-101 -76 -241 -76q-355 0 -355 398zM651 1188l150 260h207l-197 -260h-160zM336 1188l139 260h180l-145 -260h-174z" />
    <glyph glyph-name="Uogonek" unicode="&#x172;" horiz-adv-x="1486" 
d="M176 512v934h201v-932q0 -166 99 -259t267 -93q170 0 268 94q99 94 99 260v930h201v-934q0 -179 -73 -285q-69 -100 -198 -186q-134 -95 -169 -138q-33 -40 -33 -85q0 -36 27 -57q26 -21 57 -27l28 -4l-47 -154q-10 0 -25 3q-20 4 -57 15q-39 12 -72 32q-32 20 -58 58
q-25 37 -25 87q0 115 112 206q-36 -2 -45 -2q-233 0 -395 144t-162 393z" />
    <glyph glyph-name="uogonek" unicode="&#x173;" horiz-adv-x="1222" 
d="M141 373v663h199v-618q0 -123 41 -191q40 -67 154 -67q153 0 245 114q92 115 92 277v485h197v-1036q-131 -105 -131 -182q0 -36 29 -57t57 -27l27 -4l-47 -154q-11 0 -26 3q-17 3 -56 15q-41 12 -73 32q-30 19 -57 58q-26 38 -26 87q0 117 141 229h-30v143l8 76h-4
q-40 -90 -144 -168q-101 -76 -241 -76q-355 0 -355 398z" />
    <glyph glyph-name="Wcircumflex" unicode="&#x174;" horiz-adv-x="1927" 
d="M688 1546l180 260h205l182 -260h-174l-108 164h-4l-107 -164h-174zM428 0l-369 1446h213l252 -1061l29 -154h4q12 76 33 154l284 1061h179l282 -1061l33 -154h4q6 64 27 154l268 1061h209l-381 -1446h-231l-254 938l-43 203h-9q-18 -109 -45 -203l-251 -938h-234z" />
    <glyph glyph-name="wcircumflex" unicode="&#x175;" horiz-adv-x="1695" 
d="M563 1188l180 260h205l182 -260h-174l-108 164h-4l-107 -164h-174zM383 0l-334 1036h211l215 -727l27 -110h4q11 54 29 110l223 725h184l223 -725l27 -110h4q11 58 27 110l217 727h207l-332 -1036h-221l-213 666l-31 112h-4q-11 -54 -29 -112l-213 -666h-221z" />
    <glyph glyph-name="Ycircumflex" unicode="&#x176;" horiz-adv-x="1212" 
d="M506 0v612l-486 834h230l266 -475l88 -183h4q46 104 88 183l267 475h229l-485 -834v-612h-201zM322 1546l180 260h205l182 -260h-174l-109 164h-4l-106 -164h-174z" />
    <glyph glyph-name="ycircumflex" unicode="&#x177;" horiz-adv-x="1095" 
d="M102 -215q57 -45 119 -45q126 0 189 154l51 118l-434 1024h223l260 -678l39 -125h4q17 69 35 123l252 680h215l-488 -1222q-45 -119 -134 -182q-87 -62 -202 -62q-52 0 -100 16q-50 17 -74 33l-24 14zM266 1188l180 260h205l183 -260h-175l-108 164h-4l-107 -164h-174z
" />
    <glyph glyph-name="Ydieresis" unicode="&#x178;" horiz-adv-x="1212" 
d="M506 0v612l-486 834h230l266 -475l88 -183h4q46 104 88 183l267 475h229l-485 -834v-612h-201zM690 1599v207h162v-207h-162zM346 1599v207h164v-207h-164z" />
    <glyph glyph-name="Zacute" unicode="&#x179;" horiz-adv-x="1216" 
d="M541 1546l147 260h215l-196 -260h-166zM74 0v135l694 1004q20 31 51 69q27 33 41 47l12 15v4q-35 -4 -106 -4h-657v176h1015v-133l-696 -1006q-16 -23 -50 -67q-10 -13 -24 -30l-14 -17l-14 -17v-4q33 4 106 4h701v-176h-1059z" />
    <glyph glyph-name="zacute" unicode="&#x17a;" horiz-adv-x="1046" 
d="M426 1188l147 260h215l-196 -260h-166zM74 0v115l524 655l84 96v4q-29 -4 -100 -4h-486v170h854v-114l-522 -656q-16 -21 -41 -48q-15 -16 -35 -36l-12 -12v-4q34 6 102 6h527v-172h-895z" />
    <glyph glyph-name="Zdotaccent" unicode="&#x17b;" horiz-adv-x="1216" 
d="M74 0v135l694 1004q20 31 51 69q27 33 41 47l12 15v4q-35 -4 -106 -4h-657v176h1015v-133l-696 -1006q-16 -23 -50 -67q-10 -13 -24 -30l-14 -17l-14 -17v-4q33 4 106 4h701v-176h-1059zM543 1606v200h176v-200h-176z" />
    <glyph glyph-name="zdotaccent" unicode="&#x17c;" horiz-adv-x="1046" 
d="M74 0v115l524 655l84 96v4q-29 -4 -100 -4h-486v170h854v-114l-522 -656q-16 -21 -41 -48q-15 -16 -35 -36l-12 -12v-4q34 6 102 6h527v-172h-895zM428 1247v201h176v-201h-176z" />
    <glyph glyph-name="Zcaron" unicode="&#x17d;" horiz-adv-x="1216" 
d="M526 1546l-180 260h174l107 -166h4l108 166h174l-182 -260h-205zM74 0v135l694 1004q20 31 51 69q27 33 41 47l12 15v4q-35 -4 -106 -4h-657v176h1015v-133l-696 -1006q-16 -23 -50 -67q-10 -13 -24 -30l-14 -17l-14 -17v-4q33 4 106 4h701v-176h-1059z" />
    <glyph glyph-name="zcaron" unicode="&#x17e;" horiz-adv-x="1046" 
d="M414 1188l-181 260h175l106 -166h4l109 166h174l-183 -260h-204zM74 0v115l524 655l84 96v4q-29 -4 -100 -4h-486v170h854v-114l-522 -656q-16 -21 -41 -48q-15 -16 -35 -36l-12 -12v-4q34 6 102 6h527v-172h-895z" />
    <glyph glyph-name="longs" unicode="&#x17f;" horiz-adv-x="595" 
d="M203 0v864h-129v162h129v45q0 100 28 171q29 72 71 113q40 39 98 63q55 23 102 31q42 7 92 7l76 -6v-172q-19 4 -52 4q-29 0 -52 -4q-29 -5 -57 -17q-31 -13 -54 -36t-38 -64q-16 -43 -16 -96v-1065h-198z" />
    <glyph glyph-name="florin" unicode="&#x192;" horiz-adv-x="1181" 
d="M68 -43q78 -12 135 -12q32 0 66 8q29 7 70 30q38 21 63 70q26 51 32 119l49 545h-168v160h181l20 208q7 98 44 171q36 72 80 113q43 40 103 64q54 22 106 30q43 7 93 7l170 -14v-172q-94 14 -162 14q-32 0 -67 -8q-32 -7 -71 -29q-36 -20 -64 -70q-27 -48 -33 -120
l-19 -194h240v-160h-254l-49 -561q-10 -119 -59 -203q-48 -82 -117 -118q-66 -35 -127 -49q-55 -13 -119 -13l-143 12v172z" />
    <glyph glyph-name="Scommaaccent" unicode="&#x218;" horiz-adv-x="1116" 
d="M459 -121h174q14 -52 14 -104q0 -85 -51 -193h-152q39 111 39 172q0 62 -24 125zM84 166l115 153q69 -67 168 -111q100 -44 196 -44q117 0 185 56q69 57 69 151q0 87 -72 150q-71 62 -175 106q-115 48 -205 92q-105 51 -175 137q-71 87 -71 213q0 180 134 291
q132 110 339 110q247 0 403 -147l-92 -166q-63 58 -148 92q-88 35 -171 35q-115 0 -187 -56q-73 -57 -73 -149q0 -71 51 -127t129 -87q86 -35 168 -73q90 -42 168 -87t129 -127q51 -83 51 -191q0 -175 -123 -294q-122 -118 -338 -118q-279 0 -475 191z" />
    <glyph glyph-name="scommaaccent" unicode="&#x219;" horiz-adv-x="915" 
d="M362 -121h175q14 -52 14 -104q0 -85 -51 -193h-152q39 111 39 172q0 59 -25 125zM66 127l94 135q124 -121 305 -121q80 0 128 36t48 99q0 54 -55 93q-55 38 -133 67q-65 24 -156 64q-77 34 -133 101q-55 65 -55 161q0 141 106 220t266 79q207 0 336 -115l-80 -143
q-44 43 -117 67q-75 25 -145 25q-80 0 -128 -33t-48 -96q0 -55 55 -94q59 -41 133 -67q70 -24 157 -62q76 -33 134 -102q56 -67 56 -160q0 -135 -105 -220q-106 -86 -268 -86q-245 0 -395 152z" />
    <glyph glyph-name="uni021A" unicode="&#x21a;" horiz-adv-x="1259" 
d="M532 -121h175q14 -52 14 -104q0 -85 -51 -193h-152q39 111 39 172q0 59 -25 125zM528 0v1270h-497v176h1196v-176h-498v-1270h-201z" />
    <glyph glyph-name="uni021B" unicode="&#x21b;" horiz-adv-x="714" 
d="M340 -121h174q14 -52 14 -104q0 -85 -51 -193h-151q39 111 39 172q0 59 -25 125zM197 379v485h-136v162h140v295h194v-295h250v-162h-250v-463q0 -58 17 -103q18 -47 40 -69q24 -24 55 -39q26 -13 57 -18q23 -4 52 -4t48 4v-176q-50 -6 -70 -6q-50 0 -93 7q-49 8 -104 31
q-60 25 -99 63q-42 41 -72 115q-29 72 -29 173z" />
    <glyph glyph-name="circumflex" unicode="&#x2c6;" horiz-adv-x="1021" 
d="M227 1546l181 260h204l183 -260h-174l-109 164h-4l-107 -164h-174z" />
    <glyph glyph-name="caron" unicode="&#x2c7;" horiz-adv-x="1021" 
d="M408 1546l-181 260h174l107 -166h4l109 166h174l-183 -260h-204z" />
    <glyph glyph-name="breve" unicode="&#x2d8;" horiz-adv-x="1021" 
d="M512 1538q-110 0 -191 64q-79 63 -79 176v28h147v-26q0 -62 36 -92q37 -31 87 -31q48 0 85 32q36 31 36 93v24h147v-28q0 -113 -79 -176q-81 -64 -189 -64z" />
    <glyph glyph-name="dotaccent" unicode="&#x2d9;" horiz-adv-x="1024" 
d="M424 1606v200h176v-200h-176z" />
    <glyph glyph-name="ring" unicode="&#x2da;" horiz-adv-x="1024" 
d="M512 1522q-72 0 -123 42t-51 109q0 70 51 112t123 42t122 -42t50 -112q0 -67 -51 -109t-121 -42zM512 1606q29 0 48 19q20 20 20 48q0 32 -20 52t-48 20q-31 0 -49 -20q-19 -21 -19 -52q0 -27 19 -48q18 -19 49 -19z" />
    <glyph glyph-name="ogonek" unicode="&#x2db;" horiz-adv-x="1021" 
d="M348 -229q0 73 51 142q49 66 101 101l51 33l125 -27q-21 -14 -44 -33q-25 -20 -70 -75q-44 -53 -44 -94q0 -36 29 -57t57 -27l29 -4l-47 -154q-11 0 -26 3q-17 3 -56 15q-41 12 -73 32q-30 19 -57 58q-26 38 -26 87z" />
    <glyph glyph-name="tilde" unicode="&#x2dc;" horiz-adv-x="1021" 
d="M166 1548q0 260 209 260q60 0 104 -34q35 -27 82 -70q38 -35 72 -35q41 0 60 40q20 42 20 93h143q0 -260 -209 -260q-73 0 -146 70q-72 69 -112 69q-80 0 -80 -133h-143z" />
    <glyph glyph-name="hungarumlaut" unicode="&#x2dd;" horiz-adv-x="1021" 
d="M492 1546l149 260h207l-197 -260h-159zM176 1546l139 260h181l-146 -260h-174z" />
    <glyph glyph-name="uni0400" unicode="&#x400;" horiz-adv-x="1155" 
d="M190 0v1446h842v-176h-639v-453h518v-176h-518v-465h674v-176h-877zM586 1546l-195 260h213l150 -260h-168z" />
    <glyph glyph-name="uni0401" unicode="&#x401;" horiz-adv-x="1155" 
d="M715 1599v207h162v-207h-162zM371 1599v207h164v-207h-164zM190 0v1446h842v-176h-639v-453h518v-176h-518v-465h674v-176h-877z" />
    <glyph glyph-name="uni0402" unicode="&#x402;" horiz-adv-x="1507" 
d="M426 0v1270h-395v176h1073v-176h-475v-404l-4 -63h4q173 84 364 84q212 0 330 -121q119 -122 119 -317q0 -222 -128 -348t-327 -126q-40 0 -98 7v170q42 -5 74 -5q111 0 194 69q82 69 82 220q0 122 -73 197q-72 74 -212 74q-77 0 -163 -22q-83 -21 -123 -42l-39 -20v-623
h-203z" />
    <glyph glyph-name="uni0403" unicode="&#x403;" horiz-adv-x="1013" 
d="M469 1546l147 260h215l-196 -260h-166zM190 0v1446h797v-176h-594v-1270h-203z" />
    <glyph glyph-name="uni0404" unicode="&#x404;" horiz-adv-x="1466" 
d="M102 731q0 315 206 527t530 212q100 0 188 -19t150 -47q54 -24 104 -56q44 -28 66 -50l20 -18l-102 -152q-16 16 -54 44q-37 27 -143 70q-109 44 -221 44q-218 0 -363 -135q-145 -134 -166 -342h756v-168h-756q24 -211 168 -346t365 -135q76 0 149 18t126 45q46 24 93 55
q28 19 60 46l20 18l107 -141l-24 -24q-15 -15 -69 -54q-52 -37 -115 -69q-58 -29 -156 -54t-197 -25q-324 0 -533 218t-209 538z" />
    <glyph glyph-name="uni0405" unicode="&#x405;" horiz-adv-x="1116" 
d="M84 166l115 153q69 -67 168 -111q100 -44 196 -44q117 0 185 56q69 57 69 151q0 87 -72 150q-71 62 -175 106q-115 48 -205 92q-105 51 -175 137q-71 87 -71 213q0 180 134 291q132 110 339 110q247 0 403 -147l-92 -166q-63 58 -148 92q-88 35 -171 35q-115 0 -187 -56
q-73 -57 -73 -149q0 -71 51 -127t129 -87q86 -35 168 -73q90 -42 168 -87t129 -127q51 -83 51 -191q0 -175 -123 -294q-122 -118 -338 -118q-279 0 -475 191z" />
    <glyph glyph-name="uni0406" unicode="&#x406;" horiz-adv-x="585" 
d="M190 0v1446h203v-1446h-203z" />
    <glyph glyph-name="uni0407" unicode="&#x407;" horiz-adv-x="585" 
d="M190 0v1446h203v-1446h-203zM387 1599v207h162v-207h-162zM43 1599v207h164v-207h-164z" />
    <glyph glyph-name="uni0408" unicode="&#x408;" horiz-adv-x="1091" 
d="M57 416v71h201v-61q0 -115 56 -189q57 -75 171 -75q100 0 163 62q65 63 65 194v852h-365v176h565v-1030q0 -219 -126 -330t-302 -111q-175 0 -302 112q-126 111 -126 329z" />
    <glyph glyph-name="uni0409" unicode="&#x409;" horiz-adv-x="1951" 
d="M41 -14v188q179 18 252 234q72 214 72 657v381h794v-592h281q202 0 328 -117t126 -311q0 -192 -126 -309t-320 -117h-490v1270h-391v-205q0 -203 -12 -353q-12 -154 -46 -290q-35 -141 -91 -228q-57 -89 -153 -145q-94 -55 -224 -63zM1159 176h256q123 0 198 66t75 184
q0 114 -76 183t-199 69h-254v-502z" />
    <glyph glyph-name="uni040A" unicode="&#x40a;" horiz-adv-x="2064" 
d="M190 0v1446h203v-598h674v598h201v-596h293q195 0 320 -117q124 -117 124 -309q0 -190 -126 -307t-318 -117h-494v672h-674v-672h-203zM1268 176h260q122 0 196 66t74 182q0 114 -75 182q-76 68 -197 68h-258v-498z" />
    <glyph glyph-name="uni040B" unicode="&#x40b;" horiz-adv-x="1505" 
d="M426 0v1270h-395v176h1071v-176h-473v-408l-4 -67h4q186 92 377 92q205 0 304 -114t99 -316v-457h-205v428q0 279 -254 279q-176 0 -321 -95v-612h-203z" />
    <glyph glyph-name="uni040C" unicode="&#x40c;" horiz-adv-x="1257" 
d="M563 1546l148 260h215l-197 -260h-166zM190 0v1446h203v-608h215l367 608h223l-422 -686v-4l449 -756h-232l-385 662h-215v-662h-203z" />
    <glyph glyph-name="uni040D" unicode="&#x40d;" horiz-adv-x="1540" 
d="M190 0v1446h203v-938l-12 -211h4q72 135 123 213l641 936h199v-1446h-201v938l12 211h-4q-67 -127 -121 -211l-645 -938h-199zM705 1546l-195 260h213l149 -260h-167z" />
    <glyph glyph-name="uni040E" unicode="&#x40e;" horiz-adv-x="1226" 
d="M154 70l92 153q93 -71 166 -71q60 0 95 39t68 122l-571 1133h223l353 -727l82 -191h4q23 76 61 189l268 729h213l-460 -1180q-114 -291 -330 -291q-128 0 -264 95zM616 1513q-125 0 -214 71t-89 192v30h160v-28q0 -64 43 -100t100 -36q60 0 103 36t43 102v26h158v-30
q0 -121 -89 -192t-215 -71z" />
    <glyph glyph-name="uni040F" unicode="&#x40f;" horiz-adv-x="1495" 
d="M190 0v1446h203v-1270h709v1270h203v-1446h-465v-287h-185v287h-465z" />
    <glyph glyph-name="uni0410" unicode="&#x410;" horiz-adv-x="1312" 
d="M31 0l518 1446h215l518 -1446h-209l-145 416h-545l-145 -416h-207zM436 584h438l-159 456l-58 207h-4q-27 -119 -55 -207z" />
    <glyph glyph-name="uni0411" unicode="&#x411;" horiz-adv-x="1239" 
d="M190 0v1446h854v-176h-651v-404h318q195 0 317 -115q123 -115 123 -321q0 -193 -120 -311q-121 -119 -310 -119h-531zM393 176h295q120 0 190 68q68 67 68 186q0 120 -70 190t-192 70h-291v-514z" />
    <glyph glyph-name="uni0412" unicode="&#x412;" horiz-adv-x="1277" 
d="M190 0v1446h506q190 0 304 -98q116 -99 116 -271q0 -103 -48 -186q-47 -81 -132 -125v-4q113 -33 176 -129q64 -98 64 -221q0 -196 -134 -304t-333 -108h-519zM393 838h303q97 0 155 61t58 158q0 95 -57 154t-158 59h-301v-432zM393 176h326q115 0 181 68q67 69 67 180
q0 110 -68 178t-180 68h-326v-494z" />
    <glyph glyph-name="uni0413" unicode="&#x413;" horiz-adv-x="1013" 
d="M190 0v1446h797v-176h-594v-1270h-203z" />
    <glyph glyph-name="uni0414" unicode="&#x414;" horiz-adv-x="1474" 
d="M371 176h657v1094h-453v-133q0 -650 -204 -961zM12 176h146q134 189 181 434q46 240 46 539v297h846v-1270h160v-463h-183v287h-1007v-287h-189v463z" />
    <glyph glyph-name="uni0415" unicode="&#x415;" horiz-adv-x="1155" 
d="M190 0v1446h842v-176h-639v-453h518v-176h-518v-465h674v-176h-877z" />
    <glyph glyph-name="uni0416" unicode="&#x416;" horiz-adv-x="1826" 
d="M37 0l420 756v4l-391 686h221l338 -608h188v608h201v-608h190l336 608h221l-391 -686v-4l422 -756h-229l-359 662h-190v-662h-201v662h-188l-361 -662h-227z" />
    <glyph glyph-name="uni0417" unicode="&#x417;" horiz-adv-x="1118" 
d="M55 172l113 137q59 -63 153 -108q90 -43 187 -43q136 0 218 70q83 71 83 192q0 110 -75 175q-74 64 -195 64h-179v168h144q110 0 185 66t75 168q0 99 -65 166q-64 65 -191 65q-178 0 -324 -123l-86 152q179 149 439 149q191 0 312 -103q122 -104 122 -282
q0 -220 -209 -325v-4q116 -33 185 -124q69 -92 69 -222q0 -198 -140 -316q-142 -119 -352 -119q-132 0 -259 53q-126 52 -210 144z" />
    <glyph glyph-name="uni0418" unicode="&#x418;" horiz-adv-x="1540" 
d="M190 0v1446h203v-938l-12 -211h4q72 135 123 213l641 936h199v-1446h-201v938l12 211h-4q-67 -127 -121 -211l-645 -938h-199z" />
    <glyph glyph-name="uni0419" unicode="&#x419;" horiz-adv-x="1540" 
d="M776 1513q-125 0 -214 71t-89 192v30h160v-28q0 -64 43 -100t100 -36q60 0 103 36t43 102v26h157v-30q0 -122 -88 -192q-89 -71 -215 -71zM190 0v1446h203v-938l-12 -211h4q72 135 123 213l641 936h199v-1446h-201v938l12 211h-4q-67 -127 -121 -211l-645 -938h-199z" />
    <glyph glyph-name="uni041A" unicode="&#x41a;" horiz-adv-x="1257" 
d="M190 0v1446h203v-608h215l367 608h223l-422 -686v-4l449 -756h-232l-385 662h-215v-662h-203z" />
    <glyph glyph-name="uni041B" unicode="&#x41b;" horiz-adv-x="1388" 
d="M25 170q177 24 254 252q75 224 75 682v342h844v-1446h-203v1270h-448v-168q0 -551 -118 -826q-118 -276 -404 -292v186z" />
    <glyph glyph-name="uni041C" unicode="&#x41c;" horiz-adv-x="1742" 
d="M135 0l119 1446h211l334 -782l69 -195h4q42 123 72 195l334 782h211l117 -1446h-201l-70 911l-4 213h-4q-45 -134 -78 -213l-288 -651h-181l-286 651l-78 217h-4q4 -120 -4 -217l-70 -911h-203z" />
    <glyph glyph-name="uni041D" unicode="&#x41d;" horiz-adv-x="1536" 
d="M190 0v1446h203v-635h752v635h201v-1446h-201v635h-752v-635h-203z" />
    <glyph glyph-name="uni041E" unicode="&#x41e;" horiz-adv-x="1685" 
d="M100 733q0 311 215 524t529 213q312 0 527 -213q214 -213 214 -524q0 -320 -214 -538q-215 -220 -527 -220q-314 0 -529 220t-215 538zM309 733q0 -241 156 -406t379 -165q224 0 378 165q154 164 154 406q0 235 -154 393q-155 160 -378 160q-222 0 -379 -160
q-156 -159 -156 -393z" />
    <glyph glyph-name="uni041F" unicode="&#x41f;" horiz-adv-x="1519" 
d="M190 0v1446h1139v-1446h-203v1270h-733v-1270h-203z" />
    <glyph glyph-name="uni0420" unicode="&#x420;" horiz-adv-x="1236" 
d="M190 0v1446h531q202 0 327 -124q126 -124 126 -329q0 -204 -127 -331t-326 -127h-328v-535h-203zM393 711h295q130 0 205 75q76 76 76 207q0 129 -75 203q-76 74 -204 74h-297v-559z" />
    <glyph glyph-name="uni0421" unicode="&#x421;" horiz-adv-x="1468" 
d="M102 731q0 318 208 529q207 210 528 210q331 0 528 -190l-102 -152q-78 71 -194 115q-113 43 -224 43q-246 0 -390 -158q-145 -159 -145 -395q0 -237 148 -405q147 -166 391 -166q119 0 239 50q115 48 205 138l109 -145q-230 -230 -559 -230q-331 0 -536 216
q-206 217 -206 540z" />
    <glyph glyph-name="uni0422" unicode="&#x422;" horiz-adv-x="1259" 
d="M528 0v1270h-497v176h1196v-176h-498v-1270h-201z" />
    <glyph glyph-name="uni0423" unicode="&#x423;" horiz-adv-x="1226" 
d="M154 70l92 153q93 -71 166 -71q60 0 95 39t68 122l-571 1133h223l353 -727l82 -191h4q23 76 61 189l268 729h213l-460 -1180q-114 -291 -330 -291q-128 0 -264 95z" />
    <glyph glyph-name="uni0424" unicode="&#x424;" horiz-adv-x="1703" 
d="M80 770q0 271 185 435q186 165 487 165v166h202v-166q300 0 486 -165t186 -435q0 -275 -185 -442q-186 -168 -487 -168v-185h-202v185q-301 0 -487 168q-185 167 -185 442zM954 332q210 0 338 119q127 118 127 319q0 197 -127 312q-128 116 -338 116v-866zM287 770
q0 -201 127 -319q128 -119 338 -119v866q-210 0 -338 -116q-127 -115 -127 -312z" />
    <glyph glyph-name="uni0425" unicode="&#x425;" horiz-adv-x="1224" 
d="M33 0l454 745l-426 701h232l227 -391l90 -168h4q38 78 91 168l229 391h233l-430 -701l457 -745h-227l-265 444l-90 166h-4q-53 -104 -88 -166l-262 -444h-225z" />
    <glyph glyph-name="uni0426" unicode="&#x426;" horiz-adv-x="1550" 
d="M190 0v1446h203v-1270h709v1270h203v-1270h165v-463h-182v287h-1098z" />
    <glyph glyph-name="uni0427" unicode="&#x427;" horiz-adv-x="1308" 
d="M541 555q-219 0 -328 109t-109 313v469h205v-426q0 -140 66 -210q66 -71 209 -71q180 0 327 99v608h205v-1446h-205v586l4 67h-4q-184 -98 -370 -98z" />
    <glyph glyph-name="uni0428" unicode="&#x428;" horiz-adv-x="2058" 
d="M190 0v1446h203v-1270h535v1270h202v-1270h535v1270h201v-1446h-1676z" />
    <glyph glyph-name="uni0429" unicode="&#x429;" horiz-adv-x="2121" 
d="M190 0v1446h203v-1270h535v1270h202v-1270h535v1270h201v-1270h178v-463h-184v287h-1670z" />
    <glyph glyph-name="uni042A" unicode="&#x42a;" horiz-adv-x="1406" 
d="M393 0v1270h-377v176h580v-545h305q194 0 318 -122q122 -121 122 -333q0 -202 -120 -323q-121 -123 -312 -123h-516zM596 176h281q121 0 190 72q70 73 70 198q0 127 -72 203t-193 76h-276v-549z" />
    <glyph glyph-name="uni042B" unicode="&#x42b;" horiz-adv-x="1728" 
d="M1335 0v1446h201v-1446h-201zM190 0v1446h203v-545h297q194 0 318 -122q122 -121 122 -333q0 -201 -119 -323q-120 -123 -311 -123h-510zM393 176h275q120 0 189 72t69 198t-71 203q-70 76 -191 76h-271v-549z" />
    <glyph glyph-name="uni042C" unicode="&#x42c;" horiz-adv-x="1206" 
d="M190 0v1446h203v-545h307q194 0 318 -122q123 -121 123 -333q0 -201 -121 -323q-122 -123 -311 -123h-519zM393 176h281q122 0 191 72t69 198t-71 203q-70 76 -191 76h-279v-549z" />
    <glyph glyph-name="uni042D" unicode="&#x42d;" horiz-adv-x="1466" 
d="M68 197l106 141q78 -79 200 -129q120 -49 251 -49q212 0 357 137q145 138 169 344h-756v168h758q-21 210 -166 343q-146 134 -360 134q-242 0 -428 -162l-101 152q95 95 238 144q145 50 295 50q326 0 530 -210q205 -211 205 -527q0 -323 -210 -540q-210 -218 -531 -218
q-163 0 -308 60q-143 59 -249 162z" />
    <glyph glyph-name="uni042E" unicode="&#x42e;" horiz-adv-x="2183" 
d="M190 0v1446h203v-635h246q24 282 228 471q203 188 489 188q307 0 517 -213t210 -524q0 -319 -210 -538q-211 -220 -517 -220q-280 0 -482 188q-201 188 -231 472h-250v-635h-203zM842 733q0 -240 149 -405q150 -166 365 -166t366 166q152 167 152 405q0 231 -151 391
t-367 160q-214 0 -365 -160q-149 -158 -149 -391z" />
    <glyph glyph-name="uni042F" unicode="&#x42f;" horiz-adv-x="1273" 
d="M47 0l324 539l43 67v4q-137 50 -206 158t-69 258q0 136 62 236q61 99 166 145q90 39 270 39h446v-1446h-202v575h-267l-340 -575h-227zM602 748h279v522h-230q-126 0 -188 -33q-117 -66 -117 -219q0 -126 69 -198t187 -72z" />
    <glyph glyph-name="uni0430" unicode="&#x430;" horiz-adv-x="1077" 
d="M68 283q0 114 63 192q62 77 169 112q102 33 196 46q90 12 190 12h53v21q0 227 -227 227q-151 0 -291 -100l-80 145q64 54 172 88q110 35 215 35q196 0 303 -105t107 -301v-655h-186v104l6 82h-4q-46 -90 -139 -151q-91 -60 -201 -60q-142 0 -244 84t-102 224zM266 299
q0 -67 51 -117q50 -49 144 -49q122 0 201 103q77 101 77 227v39h-51q-422 0 -422 -203z" />
    <glyph glyph-name="uni0431" unicode="&#x431;" horiz-adv-x="1200" 
d="M109 596q0 289 102 463q101 173 364 284l371 160l66 -164l-398 -165q-156 -72 -232 -169t-87 -245h4q123 184 367 184q197 0 318 -130q122 -131 122 -347q0 -217 -135 -354q-136 -138 -355 -138q-252 0 -379 169q-128 170 -128 452zM315 467q0 -150 84 -237t209 -87
q126 0 212 87q85 86 85 233t-84 235t-205 88q-131 0 -216 -91t-85 -228z" />
    <glyph glyph-name="uni0432" unicode="&#x432;" horiz-adv-x="1064" 
d="M154 0v1036h428q161 0 253 -68q93 -69 93 -198q0 -76 -39 -136q-40 -61 -109 -91v-2q95 -23 146 -90t51 -156q0 -141 -104 -218t-277 -77h-442zM352 598h195q88 0 133 42t45 116q0 143 -184 143h-189v-301zM352 139h213q106 0 158 43q53 44 53 119q0 78 -55 121t-158 43
h-211v-326z" />
    <glyph glyph-name="uni0433" unicode="&#x433;" horiz-adv-x="845" 
d="M154 0v1036h649v-170h-451v-866h-198z" />
    <glyph glyph-name="uni0434" unicode="&#x434;" horiz-adv-x="1216" 
d="M356 164h459v710h-311v-55q0 -424 -148 -655zM25 164h127q161 219 161 682v190h701v-872h147v-410h-182v246h-768v-246h-186v410z" />
    <glyph glyph-name="uni0435" unicode="&#x435;" horiz-adv-x="1140" 
d="M86 518q0 243 147 393t373 150q212 0 330 -138q119 -139 119 -348q0 -22 -8 -83h-754q7 -162 109 -253q103 -92 247 -92q171 0 305 121l84 -145q-74 -67 -183 -108q-108 -40 -218 -40q-241 0 -396 155t-155 388zM299 635h555q-4 129 -75 201q-70 71 -177 71
q-118 0 -200 -72q-82 -71 -103 -200z" />
    <glyph glyph-name="uni0436" unicode="&#x436;" horiz-adv-x="1540" 
d="M35 0l334 532v5l-306 499h211l254 -424h148v424h188v-424h148l256 424h209l-303 -499v-5l333 -532h-223l-270 442h-150v-442h-188v442h-148l-272 -442h-221z" />
    <glyph glyph-name="uni0437" unicode="&#x437;" horiz-adv-x="917" 
d="M53 127l92 131q117 -123 271 -123q93 0 154 44t61 126q0 158 -213 158h-127v143h108q197 0 197 150q0 71 -49 110t-135 39q-130 0 -252 -90l-74 133q152 113 360 113q152 0 252 -74q99 -73 99 -207q0 -172 -152 -235v-4q186 -60 186 -244q0 -155 -113 -238
q-114 -84 -284 -84q-221 0 -381 152z" />
    <glyph glyph-name="uni0438" unicode="&#x438;" horiz-adv-x="1224" 
d="M154 0v1036h190v-618q0 -109 -6 -139h4q13 30 92 139l447 618h192v-1036h-192v618q0 28 3 81t3 57h-4q-1 -4 -90 -138l-449 -618h-190z" />
    <glyph glyph-name="uni0439" unicode="&#x439;" horiz-adv-x="1224" 
d="M610 1155q-125 0 -214 71t-89 191v31h160v-29q0 -63 43 -99q44 -36 100 -36q60 0 103 36t43 101v27h157v-31q0 -121 -88 -191q-89 -71 -215 -71zM154 0v1036h190v-618q0 -109 -6 -139h4q13 30 92 139l447 618h192v-1036h-192v618q0 28 3 81t3 57h-4q-1 -4 -90 -138
l-449 -618h-190z" />
    <glyph glyph-name="uni043A" unicode="&#x43a;" horiz-adv-x="1069" 
d="M154 0v1036h198v-418h146l282 418h226l-347 -493v-4l388 -539h-236l-309 449h-150v-449h-198z" />
    <glyph glyph-name="uni043B" unicode="&#x43b;" horiz-adv-x="1122" 
d="M41 -10v178q116 18 175 146q58 126 58 403v319h695v-1036h-199v872h-305v-155q0 -359 -99 -537t-325 -190z" />
    <glyph glyph-name="uni043C" unicode="&#x43c;" horiz-adv-x="1495" 
d="M111 0l90 1036h221l264 -585l57 -140h5q32 82 57 140l270 585h217l90 -1036h-192l-45 616l2 179h-4q-28 -74 -66 -152l-246 -518h-169l-246 516l-66 154h-4l2 -179l-45 -616h-192z" />
    <glyph glyph-name="uni043D" unicode="&#x43d;" horiz-adv-x="1228" 
d="M154 0v1036h198v-422h525v422h198v-1036h-198v444h-525v-444h-198z" />
    <glyph glyph-name="uni043E" unicode="&#x43e;" horiz-adv-x="1288" 
d="M86 520q0 232 162 386q163 155 395 155q234 0 397 -154q162 -153 162 -387q0 -233 -162 -389t-395 -156t-396 156t-163 389zM289 520q0 -163 103 -267q104 -106 253 -106q147 0 252 107q104 105 104 266q0 160 -104 264q-105 105 -252 105q-149 0 -253 -105
q-103 -104 -103 -264z" />
    <glyph glyph-name="uni043F" unicode="&#x43f;" horiz-adv-x="1212" 
d="M154 0v1036h905v-1036h-199v866h-508v-866h-198z" />
    <glyph glyph-name="uni0440" unicode="&#x440;" horiz-adv-x="1230" 
d="M154 -410v1446h184v-92l-6 -78h4q51 94 141 144q91 51 207 51q209 0 332 -150t123 -393q0 -245 -131 -394t-338 -149t-322 177h-4q8 -40 8 -91v-471h-198zM346 514q0 -148 79 -257q80 -110 214 -110q127 0 213 100t86 269q0 167 -81 269t-212 102q-128 0 -213 -94
q-86 -95 -86 -279z" />
    <glyph glyph-name="uni0441" unicode="&#x441;" horiz-adv-x="1116" 
d="M86 518q0 230 157 387q156 156 398 156q245 0 389 -152l-94 -139q-119 119 -287 119q-155 0 -258 -106q-102 -105 -102 -263q0 -160 103 -266q104 -107 263 -107q85 0 173 38q85 36 147 102l80 -146q-71 -76 -183 -121q-111 -45 -231 -45q-242 0 -399 154
q-156 153 -156 389z" />
    <glyph glyph-name="uni0442" unicode="&#x442;" horiz-adv-x="1003" 
d="M403 0v866h-360v170h920v-170h-363v-866h-197z" />
    <glyph glyph-name="uni0443" unicode="&#x443;" horiz-adv-x="1095" 
d="M102 -215q57 -45 119 -45q126 0 189 154l51 118l-434 1024h223l260 -678l39 -125h4q17 69 35 123l252 680h215l-488 -1222q-45 -119 -134 -182q-87 -62 -202 -62q-52 0 -100 16q-50 17 -74 33l-24 14z" />
    <glyph glyph-name="uni0444" unicode="&#x444;" horiz-adv-x="1486" 
d="M88 520q0 234 158 381q158 148 403 158v375h191v-375q247 -11 402 -157q157 -148 157 -382t-157 -385q-155 -149 -402 -160v-385h-191v385q-246 11 -403 160q-158 150 -158 385zM840 141q160 10 263 113q101 101 101 266q0 167 -101 265q-103 100 -263 110v-754zM285 520
q0 -165 101 -266q103 -103 263 -113v754q-163 -10 -264 -110q-100 -99 -100 -265z" />
    <glyph glyph-name="uni0445" unicode="&#x445;" horiz-adv-x="1021" 
d="M35 0l354 532l-334 504h228l192 -315l33 -62h4q6 10 35 62l192 315h228l-334 -504l354 -532h-225l-217 346l-33 55h-4q-18 -36 -31 -55l-217 -346h-225z" />
    <glyph glyph-name="uni0446" unicode="&#x446;" horiz-adv-x="1249" 
d="M154 0v1036h198v-864h494v864h201v-864h145v-418h-182v246h-856z" />
    <glyph glyph-name="uni0447" unicode="&#x447;" horiz-adv-x="1071" 
d="M436 360q-168 0 -258 87t-90 251v338h195v-309q0 -89 45 -141q46 -54 161 -54q127 0 230 74v430h199v-1036h-199v375l2 61h-4q-121 -76 -281 -76z" />
    <glyph glyph-name="uni0448" unicode="&#x448;" horiz-adv-x="1646" 
d="M154 0v1036h190v-864h383v864h193v-864h383v864h190v-1036h-1339z" />
    <glyph glyph-name="uni0449" unicode="&#x449;" horiz-adv-x="1697" 
d="M154 0v1036h190v-864h383v864h193v-864h383v864h190v-864h147v-418h-182v246h-1304z" />
    <glyph glyph-name="uni044A" unicode="&#x44a;" horiz-adv-x="1144" 
d="M301 0v866h-281v170h480v-374h209q169 0 272 -83q102 -82 102 -251q0 -152 -94 -240t-282 -88h-406zM500 143h178q100 0 153 51q52 50 52 136q0 88 -50 138t-155 50h-178v-375z" />
    <glyph glyph-name="uni044B" unicode="&#x44b;" horiz-adv-x="1443" 
d="M1092 0v1036h198v-1036h-198zM154 0v1036h198v-374h203q171 0 274 -83t103 -251q0 -151 -95 -240q-94 -88 -284 -88h-399zM352 143h174q101 0 154 51q51 50 51 136t-51 137t-156 51h-172v-375z" />
    <glyph glyph-name="uni044C" unicode="&#x44c;" horiz-adv-x="997" 
d="M154 0v1036h198v-374h209q172 0 275 -83q102 -82 102 -251q0 -151 -95 -240q-94 -88 -286 -88h-403zM352 143h178q101 0 154 51q51 50 51 136q0 88 -50 138t-155 50h-178v-375z" />
    <glyph glyph-name="uni044D" unicode="&#x44d;" horiz-adv-x="1114" 
d="M61 131l78 141q130 -133 326 -133q144 0 245 85q100 84 121 222h-495v144h495q-21 140 -120 224q-100 85 -240 85q-172 0 -299 -121l-90 137q66 72 173 109t222 37q239 0 394 -155t155 -388q0 -236 -155 -389q-156 -154 -398 -154q-250 0 -412 156z" />
    <glyph glyph-name="uni044E" unicode="&#x44e;" horiz-adv-x="1695" 
d="M154 0v1036h198v-434h189q28 200 176 330q147 129 352 129q227 0 384 -154t157 -387t-156 -389t-383 -156q-205 0 -353 130q-148 131 -177 333h-189v-438h-198zM733 520q0 -163 97 -267q98 -106 241 -106q141 0 239 106q97 104 97 267q0 160 -97 264q-98 105 -239 105
q-143 0 -241 -105q-97 -104 -97 -264z" />
    <glyph glyph-name="uni044F" unicode="&#x44f;" horiz-adv-x="1048" 
d="M49 0l240 344l47 64v2q-95 27 -160 107t-65 194q0 155 101 240t269 85h414v-1036h-199v375h-174l-254 -375h-219zM524 520h172v379h-166q-219 0 -219 -186q0 -95 60 -144q59 -49 153 -49z" />
    <glyph glyph-name="uni0450" unicode="&#x450;" horiz-adv-x="1140" 
d="M86 518q0 243 147 393t373 150q212 0 330 -138q119 -139 119 -348q0 -22 -8 -83h-754q7 -162 109 -253q103 -92 247 -92q171 0 305 121l84 -145q-74 -67 -183 -108q-108 -40 -218 -40q-241 0 -396 155t-155 388zM299 635h555q-4 129 -75 201q-70 71 -177 71
q-118 0 -200 -72q-82 -71 -103 -200zM549 1188l-195 260h213l150 -260h-168z" />
    <glyph glyph-name="uni0451" unicode="&#x451;" horiz-adv-x="1140" 
d="M686 1241v207h162v-207h-162zM342 1241v207h164v-207h-164zM86 518q0 243 147 393t373 150q212 0 330 -138q119 -139 119 -348q0 -22 -8 -83h-754q7 -162 109 -253q103 -92 247 -92q171 0 305 121l84 -145q-74 -67 -183 -108q-108 -40 -218 -40q-241 0 -396 155t-155 388
zM299 635h555q-4 129 -75 201q-70 71 -177 71q-118 0 -200 -72q-82 -71 -103 -200z" />
    <glyph glyph-name="uni0452" unicode="&#x452;" horiz-adv-x="1234" 
d="M154 0v1133h-129v145h129v168h198v-168h422v-145h-422v-334l-4 -86h4q39 86 143 159q102 72 242 72q355 0 355 -397v-555q0 -101 -29 -182q-28 -79 -70 -124q-43 -46 -96 -72q-60 -29 -99 -36q-46 -8 -89 -8l-84 6v170q24 -4 59 -4q36 0 66 9t66 33q34 23 56 77
q21 52 21 131v510q0 125 -40 192q-41 68 -155 68q-116 0 -206 -72t-123 -184q-17 -57 -17 -137v-369h-198z" />
    <glyph glyph-name="uni0453" unicode="&#x453;" horiz-adv-x="845" 
d="M352 1188l148 260h215l-197 -260h-166zM154 0v1036h649v-170h-451v-866h-198z" />
    <glyph glyph-name="uni0454" unicode="&#x454;" horiz-adv-x="1116" 
d="M86 518q0 230 157 387q156 156 398 156q117 0 215 -37q99 -38 137 -74l39 -35l-92 -139q-12 12 -36 33q-22 19 -100 53q-77 33 -157 33q-143 0 -244 -81q-99 -80 -120 -216h493v-143h-495q18 -145 120 -230q103 -86 252 -86q89 0 171 35q80 34 118 72l37 35l78 -144
l-18 -17q-15 -15 -51 -39q-46 -31 -84 -49q-43 -21 -116 -39q-72 -18 -147 -18q-242 0 -399 154q-156 153 -156 389z" />
    <glyph glyph-name="uni0455" unicode="&#x455;" horiz-adv-x="915" 
d="M66 127l94 135q124 -121 305 -121q80 0 128 36t48 99q0 54 -55 93q-55 38 -133 67q-65 24 -156 64q-77 34 -133 101q-55 65 -55 161q0 141 106 220t266 79q207 0 336 -115l-80 -143q-44 43 -117 67q-75 25 -145 25q-80 0 -128 -33t-48 -96q0 -55 55 -94q59 -41 133 -67
q70 -24 157 -62q76 -33 134 -102q56 -67 56 -160q0 -135 -105 -220q-106 -86 -268 -86q-245 0 -395 152z" />
    <glyph glyph-name="uni0456" unicode="&#x456;" horiz-adv-x="503" 
d="M150 1245v201h204v-201h-204zM154 0v1036h198v-1036h-198z" />
    <glyph glyph-name="uni0457" unicode="&#x457;" horiz-adv-x="503" 
d="M346 1241v207h162v-207h-162zM2 1241v207h164v-207h-164zM154 0v1036h198v-1036h-198z" />
    <glyph glyph-name="uni0458" unicode="&#x458;" horiz-adv-x="503" 
d="M150 1245v201h204v-201h-204zM154 -23v1059h198v-1071q0 -101 -29 -172q-30 -73 -72 -114q-41 -40 -100 -64q-62 -25 -104 -31q-45 -6 -92 -6q-26 0 -70 4v170q19 -4 45 -4q35 0 70 8q29 7 71 30q37 21 60 71q23 51 23 120z" />
    <glyph glyph-name="uni0459" unicode="&#x459;" horiz-adv-x="1542" 
d="M53 -10v178q121 16 178 143q58 130 58 398v327h614v-389h205q172 0 274 -81q103 -82 103 -247q0 -147 -95 -233t-286 -86h-399v872h-226v-157q0 -370 -98 -541q-99 -172 -328 -184zM903 143h182q103 0 153 47t50 129q0 84 -50 134q-49 49 -153 49h-182v-359z" />
    <glyph glyph-name="uni045A" unicode="&#x45a;" horiz-adv-x="1673" 
d="M154 0v1036h198v-395h484v395h198v-397h197q172 0 278 -79q107 -80 107 -238q0 -150 -95 -236t-286 -86h-399v481h-484v-481h-198zM1034 143h183q204 0 204 179q0 174 -213 174h-174v-353z" />
    <glyph glyph-name="uni045B" unicode="&#x45b;" horiz-adv-x="1234" 
d="M154 0v1133h-129v145h129v168h198v-168h422v-145h-422v-334l-4 -86h4q40 89 143 160t242 71q184 0 269 -98q86 -100 86 -297v-549h-199v504q0 126 -40 191q-41 67 -155 67q-115 0 -206 -71q-90 -71 -123 -183q-17 -59 -17 -139v-369h-198z" />
    <glyph glyph-name="uni045C" unicode="&#x45c;" horiz-adv-x="1069" 
d="M444 1188l148 260h215l-197 -260h-166zM154 0v1036h198v-418h146l282 418h226l-347 -493v-4l388 -539h-236l-309 449h-150v-449h-198z" />
    <glyph glyph-name="uni045D" unicode="&#x45d;" horiz-adv-x="1224" 
d="M154 0v1036h190v-618q0 -109 -6 -139h4q13 30 92 139l447 618h192v-1036h-192v618q0 28 3 81t3 57h-4q-1 -4 -90 -138l-449 -618h-190zM571 1188l-194 260h213l149 -260h-168z" />
    <glyph glyph-name="uni045E" unicode="&#x45e;" horiz-adv-x="1095" 
d="M102 -215q57 -45 119 -45q126 0 189 154l51 118l-434 1024h223l260 -678l39 -125h4q17 69 35 123l252 680h215l-488 -1222q-45 -119 -134 -182q-87 -62 -202 -62q-52 0 -100 16q-50 17 -74 33l-24 14zM549 1155q-125 0 -214 71t-89 191v31h160v-29q0 -63 43 -99t100 -36
q58 0 102 36q43 36 43 101v27h158v-31q0 -121 -88 -191q-89 -71 -215 -71z" />
    <glyph glyph-name="uni045F" unicode="&#x45f;" horiz-adv-x="1177" 
d="M154 0v1036h198v-864h473v864h197v-1036h-342v-246h-182v246h-344z" />
    <glyph glyph-name="uni0462" unicode="&#x462;" horiz-adv-x="1411" 
d="M389 0v1104h-364v162h366v211h199v-211h418v-162h-418v-238h309q198 0 323 -116q126 -117 126 -312q0 -196 -126 -317q-125 -121 -321 -121h-512zM590 176h278q122 0 198 70q75 69 75 192q0 115 -76 184q-75 68 -199 68h-276v-514z" />
    <glyph glyph-name="uni0463" unicode="&#x463;" horiz-adv-x="1095" 
d="M246 0v940h-248v150h248v356h198v-356h340v-150h-340v-278h215q170 0 273 -83q102 -82 102 -251q0 -152 -94 -240t-283 -88h-411zM444 143h185q102 0 155 51q52 50 52 136q0 85 -52 137q-51 51 -155 51h-185v-375z" />
    <glyph glyph-name="uni0472" unicode="&#x472;" horiz-adv-x="1685" 
d="M100 733q0 313 213 525q214 212 531 212t529 -212t212 -525q0 -321 -212 -539q-213 -219 -529 -219q-317 0 -531 219q-213 218 -213 539zM844 156q209 0 357 139t175 354h-1067q29 -215 177 -354t358 -139zM844 1290q-209 0 -359 -135q-149 -134 -176 -344h1067
q-27 210 -176 344q-150 135 -356 135z" />
    <glyph glyph-name="uni0473" unicode="&#x473;" horiz-adv-x="1288" 
d="M86 520q0 232 162 386q163 155 395 155q234 0 397 -154q162 -153 162 -387q0 -233 -162 -389t-395 -156t-396 156t-163 389zM645 129q141 0 245 92q103 91 124 240h-738q18 -149 123 -240q106 -92 246 -92zM645 907q-141 0 -245 -89q-103 -88 -124 -230h736
q-21 142 -124 230q-104 89 -243 89z" />
    <glyph glyph-name="uni0474" unicode="&#x474;" horiz-adv-x="1409" 
d="M553 0l-528 1446h219l358 -1022l55 -199h5q29 124 55 199l289 860q34 104 81 133t160 29h135v-178h-47q-48 0 -59 -1q-16 -1 -39 -12t-37 -33q-12 -19 -29 -65l-405 -1157h-213z" />
    <glyph glyph-name="uni0475" unicode="&#x475;" horiz-adv-x="1155" 
d="M426 0l-387 1036h209l252 -700l37 -141h4q16 74 37 141l172 514q34 104 89 145t160 41h117v-174h-45q-67 0 -97 -21t-54 -91l-265 -750h-229z" />
    <glyph glyph-name="uni048A" unicode="&#x48a;" horiz-adv-x="1617" 
d="M190 0v1446h203v-938l-12 -211h4q72 135 123 213l641 936h199v-1270h223v-117l-148 -346h-147l86 287h-215v938l12 211h-4q-67 -127 -121 -211l-645 -938h-199zM780 1513q-125 0 -214 71t-89 192v30h160v-28q0 -64 43 -100t100 -36q60 0 103 36t43 102v26h157v-30
q0 -122 -88 -192q-89 -71 -215 -71z" />
    <glyph glyph-name="uni048B" unicode="&#x48b;" horiz-adv-x="1310" 
d="M154 0v1036h190v-618q0 -109 -6 -139h4q13 30 92 139l447 618h192v-866h189v-113l-127 -303h-142l74 246h-186v618q0 28 3 81t3 57h-4q-1 -4 -90 -138l-449 -618h-190zM621 1155q-125 0 -214 71q-90 72 -90 191v31h160v-29q0 -63 43 -99q44 -36 101 -36q59 0 102 36
t43 101v27h158v-31q0 -121 -88 -191q-89 -71 -215 -71z" />
    <glyph glyph-name="uni048C" unicode="&#x48c;" horiz-adv-x="1386" 
d="M354 0v1167h-331v158h335v211h199v-211h377v-158h-377v-290h322q194 0 320 -120t126 -319q0 -196 -126 -317q-125 -121 -318 -121h-527zM557 176h289q121 0 197 70q75 69 75 192q0 122 -76 192t-198 70h-287v-524z" />
    <glyph glyph-name="uni048D" unicode="&#x48d;" horiz-adv-x="1105" 
d="M256 0v940h-248v150h248v356h199v-356h340v-150h-340v-278h215q169 0 272 -83q102 -82 102 -251q0 -152 -94 -240t-282 -88h-412zM455 143h184q103 0 156 51q51 50 51 136t-51 137t-156 51h-184v-375z" />
    <glyph glyph-name="uni048E" unicode="&#x48e;" horiz-adv-x="1273" 
d="M190 0v1446h531q202 0 327 -124q126 -124 126 -329q0 -210 -134 -338l121 -159l-110 -93l-131 170q-92 -38 -199 -38h-328v-535h-203zM674 897l114 92l142 -188q53 77 53 182q0 135 -76 211t-211 76h-303v-576h301q65 0 119 19z" />
    <glyph glyph-name="uni048F" unicode="&#x48f;" horiz-adv-x="1247" 
d="M154 -410v1446h184v-92l-6 -78h4q1 2 4.5 9.5t6.5 12.5q8 14 37 46t66 58t99 47q66 22 135 22q209 0 332 -150t123 -393q0 -234 -121 -383l112 -133l-110 -96l-113 133q-110 -64 -237 -64q-60 0 -120 19q-55 17 -91 44q-37 27 -62 51t-37 44l-12 19h-4q8 -40 8 -91v-471
h-198zM651 348l111 96l133 -161q57 92 57 227q0 171 -83 274t-218 103q-131 0 -218 -94q-87 -95 -87 -285q0 -149 80 -258t221 -109q79 0 144 37z" />
    <glyph glyph-name="uni0490" unicode="&#x490;" horiz-adv-x="1030" 
d="M190 0v1446h644v199h170v-375h-611v-1270h-203z" />
    <glyph glyph-name="uni0491" unicode="&#x491;" horiz-adv-x="845" 
d="M154 0v1036h491v187h160v-357h-453v-866h-198z" />
    <glyph glyph-name="uni0492" unicode="&#x492;" horiz-adv-x="1036" 
d="M203 0v633h-125v149h125v664h794v-176h-594v-488h328v-149h-328v-633h-200z" />
    <glyph glyph-name="uni0493" unicode="&#x493;" horiz-adv-x="860" 
d="M160 0v426h-127v135h127v475h651v-170h-453v-305h265v-135h-265v-426h-198z" />
    <glyph glyph-name="uni0494" unicode="&#x494;" horiz-adv-x="1251" 
d="M190 0v1446h799v-176h-596v-467q125 59 279 59q495 0 495 -581q0 -332 -140 -488q-141 -158 -384 -158v166q313 0 313 480q0 217 -77 310q-78 95 -246 95q-111 0 -240 -55v-631h-203z" />
    <glyph glyph-name="uni0495" unicode="&#x495;" horiz-adv-x="1030" 
d="M154 0v1036h663v-162h-465v-335q112 51 228 51q198 0 291 -127q94 -129 94 -313q0 -372 -310 -574l-96 139q213 141 213 422q0 287 -231 287q-103 0 -189 -53v-371h-198z" />
    <glyph glyph-name="uni0496" unicode="&#x496;" horiz-adv-x="1921" 
d="M37 0l420 756v4l-391 686h221l338 -608h188v608h201v-608h190l336 608h221l-391 -686v-4l324 -580h196v-463h-182v287h-145l-359 662h-190v-662h-201v662h-188l-361 -662h-227z" />
    <glyph glyph-name="uni0497" unicode="&#x497;" horiz-adv-x="1622" 
d="M35 0l334 532v5l-306 499h211l254 -424h148v424h188v-424h148l256 424h209l-303 -499v-5l225 -360h184v-418h-182v246h-117l-270 442h-150v-442h-188v442h-148l-272 -442h-221z" />
    <glyph glyph-name="uni0498" unicode="&#x498;" horiz-adv-x="1122" 
d="M55 172l113 137q59 -63 153 -108q90 -43 187 -43q136 0 218 70q83 71 83 192q0 110 -75 175q-74 64 -195 64h-179v168h144q110 0 185 66t75 168q0 99 -65 166q-64 65 -191 65q-178 0 -324 -123l-86 152q179 149 439 149q191 0 312 -103q122 -104 122 -282
q0 -220 -209 -325v-4q116 -33 185 -124q69 -92 69 -222q0 -171 -110 -286q-109 -113 -281 -140v-271h-185v269q-243 30 -385 190z" />
    <glyph glyph-name="uni0499" unicode="&#x499;" horiz-adv-x="921" 
d="M53 127l92 131q117 -123 271 -123q93 0 154 44t61 126q0 158 -213 158h-127v143h108q197 0 197 150q0 71 -49 110t-135 39q-130 0 -252 -90l-74 133q152 113 360 113q152 0 252 -74q99 -73 99 -207q0 -172 -152 -235v-4q186 -60 186 -244q0 -128 -79 -207
q-80 -80 -209 -104v-232h-178v226q-185 22 -312 147z" />
    <glyph glyph-name="uni049A" unicode="&#x49a;" horiz-adv-x="1349" 
d="M190 0v1446h203v-608h215l367 608h223l-422 -686v-4l344 -580h199v-463h-182v287h-144l-385 662h-215v-662h-203z" />
    <glyph glyph-name="uni049B" unicode="&#x49b;" horiz-adv-x="1140" 
d="M154 0v1036h198v-418h146l282 418h226l-347 -493v-4l263 -367h182v-418h-182v246h-111l-309 449h-150v-449h-198z" />
    <glyph glyph-name="uni049C" unicode="&#x49c;" horiz-adv-x="1437" 
d="M190 0v1446h203v-608h146v245h151v-245h98l365 608h223l-420 -686v-4l449 -756h-231l-386 662h-98v-248h-151v248h-146v-662h-203z" />
    <glyph glyph-name="uni049D" unicode="&#x49d;" horiz-adv-x="1224" 
d="M154 0v1036h198v-418h111v209h143v-209h47l283 418h225l-344 -493v-4l385 -539h-233l-310 449h-53v-213h-143v213h-111v-449h-198z" />
    <glyph glyph-name="uni049E" unicode="&#x49e;" horiz-adv-x="1267" 
d="M33 1075v146h164v225h202v-225h195v-146h-195v-237h215l367 608h223l-422 -686v-4l449 -756h-232l-385 662h-215v-662h-202v1075h-164z" />
    <glyph glyph-name="uni049F" unicode="&#x49f;" horiz-adv-x="1069" 
d="M154 0v1083h-127v140h127v223h198v-223h232v-140h-232v-436h148l280 389h226l-344 -465v-4l382 -567h-231l-309 475h-152v-475h-198z" />
    <glyph glyph-name="uni04A0" unicode="&#x4a0;" horiz-adv-x="1536" 
d="M469 0v1270h-434v176h635v-608h217l364 608h224l-422 -686v-4l448 -756h-229l-385 662h-217v-662h-201z" />
    <glyph glyph-name="uni04A1" unicode="&#x4a1;" horiz-adv-x="1214" 
d="M301 0v866h-281v170h480v-418h145l283 418h223l-344 -493v-4l387 -539h-236l-309 449h-149v-449h-199z" />
    <glyph glyph-name="uni04A2" unicode="&#x4a2;" horiz-adv-x="1607" 
d="M190 0v1446h203v-635h752v635h201v-1270h200v-463h-184v287h-217v635h-752v-635h-203z" />
    <glyph glyph-name="uni04A3" unicode="&#x4a3;" horiz-adv-x="1296" 
d="M154 0v1036h198v-422h525v422h198v-864h174v-418h-182v246h-190v444h-525v-444h-198z" />
    <glyph glyph-name="uni04A4" unicode="&#x4a4;" horiz-adv-x="1908" 
d="M190 0v1446h203v-635h692v635h795v-176h-594v-1270h-201v635h-692v-635h-203z" />
    <glyph glyph-name="uni04A5" unicode="&#x4a5;" horiz-adv-x="1490" 
d="M154 0v1036h198v-422h477v422h619v-170h-420v-866h-199v444h-477v-444h-198z" />
    <glyph glyph-name="uni04A6" unicode="&#x4a6;" horiz-adv-x="2041" 
d="M190 0v1446h1004v-623q128 60 279 60q493 0 493 -602q0 -646 -522 -646v166q313 0 313 480q0 229 -78 331q-79 103 -245 103q-103 0 -240 -58v-657h-201v1272h-600v-1272h-203z" />
    <glyph glyph-name="uni04A7" unicode="&#x4a7;" horiz-adv-x="1671" 
d="M154 0v1036h813v-438q112 53 229 53q201 0 306 -134q106 -135 106 -337q0 -395 -310 -604l-96 139q213 146 213 457q0 309 -250 309q-109 0 -198 -53v-428h-199v866h-416v-866h-198z" />
    <glyph glyph-name="uni04A8" unicode="&#x4a8;" horiz-adv-x="1916" 
d="M104 745q0 152 49 285q49 132 126 217q80 88 163 143t176 80l70 -182q-157 -53 -267 -193q-112 -142 -112 -356q0 -241 141 -409t392 -168q112 0 225 35q-151 113 -237 276q-85 163 -85 365q0 280 158 444t377 164q229 0 375 -160q145 -158 145 -434q0 -187 -94 -357
q-94 -171 -256 -298q113 -29 236 -29h96v-168h-99q-214 0 -413 80q-206 -105 -430 -105q-324 0 -530 212t-206 558zM954 840q0 -178 77 -324q75 -144 218 -233q157 100 249 248q93 150 93 319q0 200 -89 306t-224 106q-125 0 -225 -109q-99 -108 -99 -313z" />
    <glyph glyph-name="uni04A9" unicode="&#x4a9;" horiz-adv-x="1601" 
d="M88 535q0 207 113 341t262 185l67 -162q-104 -43 -179 -138t-75 -231q0 -165 104 -278t308 -113q86 0 178 25q-245 175 -245 457q0 186 124 313t320 127q192 0 309 -117t117 -299q0 -265 -256 -473q67 -14 160 -14h108v-158h-100q-179 0 -344 61q-180 -86 -373 -86
q-282 0 -440 158t-158 402zM809 625q0 -126 63 -225q62 -97 177 -160q115 68 184 170q70 103 70 225q0 124 -66 196t-176 72q-108 0 -180 -79q-72 -80 -72 -199z" />
    <glyph glyph-name="uni04AA" unicode="&#x4aa;" horiz-adv-x="1468" 
d="M102 731q0 318 208 529q207 210 528 210q331 0 528 -190l-102 -152q-78 71 -194 115q-113 43 -224 43q-246 0 -390 -158q-145 -159 -145 -395q0 -237 148 -405q147 -166 391 -166q119 0 239 50q115 48 205 138l109 -145q-204 -204 -490 -225v-267h-184v271
q-287 38 -456 244q-171 208 -171 503z" />
    <glyph glyph-name="uni04AB" unicode="&#x4ab;" horiz-adv-x="1118" 
d="M86 518q0 230 157 387q156 156 398 156q245 0 389 -152l-94 -139q-119 119 -287 119q-155 0 -258 -106q-102 -105 -102 -263q0 -160 103 -266q104 -107 263 -107q85 0 173 38q85 36 147 102l80 -146q-128 -134 -346 -161v-226h-179v232q-201 33 -322 179
q-122 148 -122 353z" />
    <glyph glyph-name="uni04AC" unicode="&#x4ac;" horiz-adv-x="1263" 
d="M524 0l2 4v1266h-497v176h1196v-176h-498v-1094h201v-463h-185v287h-219z" />
    <glyph glyph-name="uni04AD" unicode="&#x4ad;" horiz-adv-x="1015" 
d="M403 0v866h-360v170h920v-170h-363v-694h174v-418h-182v246h-189z" />
    <glyph glyph-name="uni04AE" unicode="&#x4ae;" horiz-adv-x="1187" 
d="M494 0v612l-486 834h230l266 -475l88 -183h4q46 104 88 183l266 475h230l-486 -834v-612h-200z" />
    <glyph glyph-name="uni04AF" unicode="&#x4af;" horiz-adv-x="1077" 
d="M440 47l-403 989h209l252 -643l39 -137h4q16 76 39 137l251 643h209l-403 -989v-457h-197v457z" />
    <glyph glyph-name="uni04B0" unicode="&#x4b0;" horiz-adv-x="1187" 
d="M244 477v150h241l-477 819h230l266 -475l88 -183h4q46 104 88 183l266 475h230l-478 -819h246v-150h-254v-477h-200v477h-250z" />
    <glyph glyph-name="uni04B1" unicode="&#x4b1;" horiz-adv-x="1075" 
d="M203 0v145h196l-362 891h211l250 -643l39 -137h4q16 76 39 137l247 643h209l-360 -891h201v-145h-240v-410h-197v410h-237z" />
    <glyph glyph-name="uni04B2" unicode="&#x4b2;" horiz-adv-x="1316" 
d="M33 0l454 745l-426 701h232l227 -391l92 -172h4q36 82 89 172l229 391h233l-430 -701l348 -569h203v-463h-184v287h-137l-265 444l-90 166h-4q-53 -104 -88 -166l-262 -444h-225z" />
    <glyph glyph-name="uni04B3" unicode="&#x4b3;" horiz-adv-x="1091" 
d="M35 0l354 532l-334 504h228l192 -315l33 -62h4q6 10 35 62l192 315h228l-334 -504l239 -360h177v-418h-183v246h-104l-217 346l-33 55h-4q-18 -36 -31 -55l-217 -346h-225z" />
    <glyph glyph-name="uni04B4" unicode="&#x4b4;" horiz-adv-x="1847" 
d="M469 0v1270h-434v176h1069v-176h-434v-1094h723v1270h200v-1270h187v-463h-183v287h-1128z" />
    <glyph glyph-name="uni04B5" unicode="&#x4b5;" horiz-adv-x="1499" 
d="M362 0v866h-317v170h838v-170h-322v-694h531v864h198v-864h154v-416h-182v244h-900z" />
    <glyph glyph-name="uni04B6" unicode="&#x4b6;" horiz-adv-x="1378" 
d="M541 555q-219 0 -328 109t-109 313v469h205v-426q0 -140 66 -210q66 -71 209 -71q180 0 327 99v608h205v-1270h199v-463h-182v287h-222v586l4 67h-4q-184 -98 -370 -98z" />
    <glyph glyph-name="uni04B7" unicode="&#x4b7;" horiz-adv-x="1144" 
d="M436 360q-168 0 -258 87t-90 251v338h195v-309q0 -89 45 -141q46 -54 161 -54q127 0 230 74v430h199v-864h180v-418h-180v246h-199v375l2 61h-4q-121 -76 -281 -76z" />
    <glyph glyph-name="uni04B8" unicode="&#x4b8;" horiz-adv-x="1339" 
d="M555 344v217q-228 0 -342 109q-113 108 -113 313v463h205v-426q0 -133 60 -202q60 -70 190 -77v287h152v-278q140 27 235 88v608h205v-1446h-205v592l4 67h-4q-101 -53 -235 -81v-234h-152z" />
    <glyph glyph-name="uni04B9" unicode="&#x4b9;" horiz-adv-x="1120" 
d="M453 365q-175 0 -270 86t-95 247v338h195v-309q0 -171 176 -192v249h145v-243q93 18 166 65v430h199v-1036h-199v383l4 61h-4q-67 -38 -166 -61v-180h-145v162h-6z" />
    <glyph glyph-name="uni04BA" unicode="&#x4ba;" horiz-adv-x="1284" 
d="M190 0v1446h203v-535l-4 -67h4q178 94 377 94q204 0 305 -114q101 -115 101 -314v-510h-205v477q0 281 -254 281q-181 0 -324 -94v-664h-203z" />
    <glyph glyph-name="uni04BB" unicode="&#x4bb;" horiz-adv-x="1234" 
d="M154 0v1446h198v-537l-8 -86h4q44 90 146 164q103 74 243 74q355 0 355 -397v-664h-199v618q0 126 -40 193q-41 68 -155 68q-148 0 -247 -110q-99 -109 -99 -277v-492h-198z" />
    <glyph glyph-name="uni04BC" unicode="&#x4bc;" horiz-adv-x="1794" 
d="M78 1053q0 100 16 170l17 80h184l-16 -82q-17 -79 -17 -150q0 -90 40 -148q41 -59 124 -59h8q41 273 221 440q179 166 435 166q274 0 436 -181q162 -182 162 -490l-7 -97h-1046q5 -248 148 -394t354 -146q110 0 215 40q108 41 152 71q45 30 75 59l98 -156
q-225 -201 -561 -201q-294 0 -491 204q-196 204 -201 526h-6q-160 0 -250 90t-90 258zM641 864h840q0 179 -100 303q-99 123 -291 123q-184 0 -306 -125q-120 -123 -143 -301z" />
    <glyph glyph-name="uni04BD" unicode="&#x4bd;" horiz-adv-x="1392" 
d="M68 799q0 77 24 151h164q-25 -69 -25 -141q0 -166 117 -172q35 195 175 309q142 115 335 115q210 0 329 -138q118 -137 118 -348l-7 -83h-755q7 -161 110 -253t248 -92q76 0 155 31q70 28 113 60l37 30l82 -145q-19 -17 -50 -41q-36 -27 -136 -66q-106 -41 -213 -41
q-235 0 -388 147t-163 370q-270 0 -270 307zM549 635h555q-4 127 -75 198q-70 70 -177 70q-115 0 -199 -72q-83 -71 -104 -196z" />
    <glyph glyph-name="uni04BE" unicode="&#x4be;" horiz-adv-x="1796" 
d="M78 1053q0 100 16 170l17 80h184l-16 -82q-17 -79 -17 -150q0 -90 40 -148q41 -59 124 -59h8q41 273 221 440q179 166 435 166q274 0 436 -181q162 -182 162 -490l-7 -97h-1046q5 -248 148 -394t354 -146q110 0 215 40q108 41 152 71q45 30 75 59l98 -156
q-200 -178 -493 -199v-264h-185v273q-252 39 -411 234q-160 196 -164 485h-6q-160 0 -250 90t-90 258zM641 864h840q0 179 -100 303q-99 123 -291 123q-184 0 -306 -125q-120 -123 -143 -301z" />
    <glyph glyph-name="uni04BF" unicode="&#x4bf;" horiz-adv-x="1392" 
d="M68 799q0 77 24 151h164q-25 -69 -25 -141q0 -166 117 -172q35 195 175 309q142 115 335 115q210 0 329 -138q118 -137 118 -348l-7 -83h-755q7 -161 110 -253t248 -92q76 0 155 31q70 28 113 60l37 30l82 -145q-12 -11 -45 -37q-25 -20 -122 -62q-94 -41 -191 -47v-223
h-178v238q-181 39 -293 175q-114 138 -121 325q-270 0 -270 307zM549 635h555q-4 127 -75 198q-70 70 -177 70q-115 0 -199 -72q-83 -71 -104 -196z" />
    <glyph glyph-name="uni04C0" unicode="&#x4c0;" horiz-adv-x="583" 
d="M190 0v1446h201v-1446h-201z" />
    <glyph glyph-name="uni04C1" unicode="&#x4c1;" horiz-adv-x="1826" 
d="M37 0l420 756v4l-391 686h221l338 -608h188v608h201v-608h190l336 608h221l-391 -686v-4l422 -756h-229l-359 662h-190v-662h-201v662h-188l-361 -662h-227zM918 1513q-126 0 -215 71t-89 192v30h160v-28q0 -64 43 -100t101 -36t102 36q43 36 43 102v26h158v-30
q0 -122 -88 -192q-89 -71 -215 -71z" />
    <glyph glyph-name="uni04C2" unicode="&#x4c2;" horiz-adv-x="1540" 
d="M35 0l334 532v5l-306 499h211l254 -424h148v424h188v-424h148l256 424h209l-303 -499v-5l333 -532h-223l-270 442h-150v-442h-188v442h-148l-272 -442h-221zM768 1155q-125 0 -214 71t-89 191v31h160v-29q0 -63 43 -99q44 -36 100 -36q58 0 102 36q43 36 43 101v27h158
v-31q0 -121 -88 -191q-89 -71 -215 -71z" />
    <glyph glyph-name="uni04C3" unicode="&#x4c3;" horiz-adv-x="1302" 
d="M190 0v1446h203v-608h215l367 608h223l-395 -645q200 -51 299 -204q98 -151 98 -345q0 -284 -137 -451q-136 -166 -369 -166v170q124 0 210 103q85 101 85 332q0 212 -120 319q-121 107 -332 107h-144v-666h-203z" />
    <glyph glyph-name="uni04C4" unicode="&#x4c4;" horiz-adv-x="1081" 
d="M154 0v1036h198v-420h144l284 420h226l-326 -465v-4q315 -95 315 -458q0 -192 -91 -325q-93 -135 -222 -208l-94 143q215 113 215 390q0 163 -92 249t-262 86h-97v-444h-198z" />
    <glyph glyph-name="uni04C5" unicode="&#x4c5;" horiz-adv-x="1468" 
d="M25 170q177 24 254 252q75 224 75 682v342h844v-1270h223v-117l-147 -346h-150l88 287h-217v1270h-448v-168q0 -551 -118 -826q-118 -276 -404 -292v186z" />
    <glyph glyph-name="uni04C6" unicode="&#x4c6;" horiz-adv-x="1200" 
d="M41 -10v178q116 18 175 146q58 126 58 403v319h695v-866h182v-113l-129 -303h-139l73 246h-186v872h-305v-155q0 -359 -99 -537t-325 -190z" />
    <glyph glyph-name="uni04C7" unicode="&#x4c7;" horiz-adv-x="1536" 
d="M190 0v1446h203v-635h752v635h201l2 -1342q0 -115 -28 -208q-27 -90 -71 -140t-102 -79q-59 -29 -112 -37q-58 -8 -111 -7v172q221 0 221 293v537h-752v-635h-203z" />
    <glyph glyph-name="uni04C8" unicode="&#x4c8;" horiz-adv-x="1230" 
d="M154 0v1036h198v-422h525v422h200v-938q0 -203 -78 -317q-79 -116 -229 -205l-104 145q104 55 157 141q54 88 54 234v348h-525v-444h-198z" />
    <glyph glyph-name="uni04C9" unicode="&#x4c9;" horiz-adv-x="1617" 
d="M190 0v1446h203v-635h752v635h201v-1270h225v-117l-150 -346h-147l86 287h-215v635h-752v-635h-203z" />
    <glyph glyph-name="uni04CA" unicode="&#x4ca;" horiz-adv-x="1306" 
d="M154 0v1036h198v-422h525v422h198v-866h182v-113l-129 -303h-139l74 246h-186v444h-525v-444h-198z" />
    <glyph glyph-name="uni04CB" unicode="&#x4cb;" horiz-adv-x="1306" 
d="M541 555q-219 0 -328 109t-109 313v469h205v-426q0 -140 66 -210q66 -71 209 -71q180 0 327 99v608h205v-1446h-223v-287h-182v463h200v410l4 67h-4q-184 -98 -370 -98z" />
    <glyph glyph-name="uni04CC" unicode="&#x4cc;" horiz-adv-x="1077" 
d="M553 137h174v258l2 62h-2q-137 -78 -309 -78q-157 0 -245 86q-87 85 -87 248v323h197v-297q0 -194 196 -194q138 0 248 76v415h199v-1036h-191v-246h-182v383z" />
    <glyph glyph-name="uni04CD" unicode="&#x4cd;" horiz-adv-x="1830" 
d="M135 0l119 1446h211l334 -782l69 -195h4q42 123 72 195l334 782h211l102 -1270h224v-117l-148 -346h-147l86 287h-201l-70 911l-4 213h-4q-45 -134 -78 -213l-288 -651h-181l-286 651l-78 217h-4q4 -120 -4 -217l-70 -911h-203z" />
    <glyph glyph-name="uni04CE" unicode="&#x4ce;" horiz-adv-x="1583" 
d="M111 0l90 1036h221l264 -585l57 -140h5q32 82 57 140l270 585h217l76 -866h188v-113l-129 -303h-141l74 246h-170l-45 616l2 179h-4q-28 -74 -66 -152l-246 -518h-169l-246 516l-66 154h-4l2 -179l-45 -616h-192z" />
    <glyph glyph-name="uni04CF" unicode="&#x4cf;" horiz-adv-x="503" 
d="M154 0v1446h198v-1446h-198z" />
    <glyph glyph-name="uni04D0" unicode="&#x4d0;" horiz-adv-x="1312" 
d="M31 0l518 1446h215l518 -1446h-209l-145 416h-545l-145 -416h-207zM436 584h438l-159 456l-58 207h-4q-27 -119 -55 -207zM651 1513q-125 0 -214 71t-89 192v30h160v-28q0 -64 43 -100t100 -36q59 0 103 36q43 36 43 102v26h157v-30q0 -122 -88 -192q-89 -71 -215 -71z
" />
    <glyph glyph-name="uni04D1" unicode="&#x4d1;" horiz-adv-x="1079" 
d="M68 283q0 114 63 192q62 77 169 112q102 33 196 46q90 12 190 12h53v21q0 227 -227 227q-151 0 -291 -100l-80 145q64 54 172 88q110 35 215 35q196 0 303 -105t107 -301v-655h-186v104l6 82h-4q-46 -90 -139 -151q-91 -60 -201 -60q-142 0 -244 84t-102 224zM266 299
q0 -67 51 -117q50 -49 144 -49q122 0 201 103q77 101 77 227v39h-51q-422 0 -422 -203zM555 1155q-125 0 -214 71t-89 191v31h160v-29q0 -63 43 -99q44 -36 100 -36q58 0 102 36q43 36 43 101v27h158v-31q0 -121 -88 -191q-89 -71 -215 -71z" />
    <glyph glyph-name="uni04D2" unicode="&#x4d2;" horiz-adv-x="1312" 
d="M31 0l518 1446h215l518 -1446h-209l-145 416h-545l-145 -416h-207zM436 584h438l-159 456l-58 207h-4q-27 -119 -55 -207zM745 1599v207h162v-207h-162zM401 1599v207h164v-207h-164z" />
    <glyph glyph-name="uni04D3" unicode="&#x4d3;" horiz-adv-x="1079" 
d="M68 283q0 114 63 192q62 77 169 112q102 33 196 46q90 12 190 12h53v21q0 227 -227 227q-151 0 -291 -100l-80 145q64 54 172 88q110 35 215 35q196 0 303 -105t107 -301v-655h-186v104l6 82h-4q-46 -90 -139 -151q-91 -60 -201 -60q-142 0 -244 84t-102 224zM266 299
q0 -67 51 -117q50 -49 144 -49q122 0 201 103q77 101 77 227v39h-51q-422 0 -422 -203zM625 1241v207h161v-207h-161zM281 1241v207h163v-207h-163z" />
    <glyph glyph-name="uni04D4" unicode="&#x4d4;" horiz-adv-x="1794" 
d="M16 0l598 1446h1059v-176h-639v-453h518v-176h-518v-465h672v-176h-872v643h-351l-256 -643h-211zM551 811h283v459h-97z" />
    <glyph glyph-name="uni04D5" unicode="&#x4d5;" horiz-adv-x="1767" 
d="M70 291q0 82 29 141q30 61 85 98q53 36 113 61q55 23 136 34q73 10 133 13q54 3 122 3h51v25q0 227 -233 227q-148 0 -287 -100l-80 145q64 54 171 89q103 34 208 34q262 0 346 -182h4q122 182 367 182q207 0 326 -137q118 -136 118 -344q0 -33 -4 -84h-745
q7 -165 104 -257t242 -92q171 0 307 119l82 -143q-74 -67 -182 -107q-112 -41 -219 -41q-154 0 -269 68t-176 190h-4q-11 -30 -34 -63q-28 -40 -67 -82q-44 -47 -121 -79q-78 -32 -169 -32q-150 0 -252 84t-102 230zM938 641h541q-5 123 -75 192q-69 68 -171 68
q-117 0 -196 -67q-78 -66 -99 -193zM270 301q0 -69 52 -118q51 -48 145 -48q121 0 198 104q76 103 76 228v29h-98q-373 0 -373 -195z" />
    <glyph glyph-name="uni04D6" unicode="&#x4d6;" horiz-adv-x="1155" 
d="M190 0v1446h842v-176h-639v-453h518v-176h-518v-465h674v-176h-877zM621 1513q-125 0 -214 71q-90 72 -90 192v30h160v-28q0 -64 43 -100q44 -36 101 -36q59 0 102 36t43 102v26h158v-30q0 -122 -88 -192q-89 -71 -215 -71z" />
    <glyph glyph-name="uni04D7" unicode="&#x4d7;" horiz-adv-x="1140" 
d="M86 518q0 243 147 393t373 150q212 0 330 -138q119 -139 119 -348q0 -22 -8 -83h-754q7 -162 109 -253q103 -92 247 -92q171 0 305 121l84 -145q-74 -67 -183 -108q-108 -40 -218 -40q-241 0 -396 155t-155 388zM299 635h555q-4 129 -75 201q-70 71 -177 71
q-118 0 -200 -72q-82 -71 -103 -200zM596 1155q-125 0 -214 71t-89 191v31h160v-29q0 -63 43 -99q44 -36 100 -36q58 0 102 36q43 36 43 101v27h158v-31q0 -121 -88 -191q-89 -71 -215 -71z" />
    <glyph glyph-name="uni04D8" unicode="&#x4d8;" horiz-adv-x="1478" 
d="M104 694l7 103h1050q-10 217 -142 353t-339 136q-112 0 -217 -37q-112 -39 -153 -66q-37 -24 -74 -55l-103 152q245 190 567 190q301 0 487 -210q187 -211 187 -531q0 -331 -180 -542q-180 -212 -475 -212q-287 0 -451 187t-164 532zM309 635q0 -228 104 -353
q103 -124 316 -124q190 0 309 131q120 132 121 346h-850z" />
    <glyph glyph-name="uni04D9" unicode="&#x4d9;" horiz-adv-x="1140" 
d="M86 481l6 92h758q-8 146 -103 235t-231 89q-83 0 -167 -29t-124 -57l-39 -31l-79 142l16 12q4 3 11 6.5t11.5 6.5t8.5 5q19 12 39 23q14 8 51 24q28 12 59 23q37 13 70 20q51 11 79 14q48 5 87 5q231 0 373 -153q143 -154 143 -388q0 -250 -144 -397q-145 -148 -364 -148
q-221 0 -341 140q-120 139 -120 366zM293 430q5 -154 76 -225q72 -72 182 -72q118 0 203 77q84 76 88 220h-549z" />
    <glyph glyph-name="uni04DA" unicode="&#x4da;" horiz-adv-x="1478" 
d="M815 1599v207h162v-207h-162zM471 1599v207h164v-207h-164zM104 694l7 103h1050q-10 217 -142 353t-339 136q-112 0 -217 -37q-112 -39 -153 -66q-37 -24 -74 -55l-103 152q245 190 567 190q301 0 487 -210q187 -211 187 -531q0 -331 -180 -542q-180 -212 -475 -212
q-287 0 -451 187t-164 532zM309 635q0 -228 104 -353q103 -124 316 -124q190 0 309 131q120 132 121 346h-850z" />
    <glyph glyph-name="uni04DB" unicode="&#x4db;" horiz-adv-x="1140" 
d="M633 1241v207h162v-207h-162zM289 1241v207h164v-207h-164zM86 481l6 92h758q-8 146 -103 235t-231 89q-83 0 -167 -29t-124 -57l-39 -31l-79 142l16 12q4 3 11 6.5t11.5 6.5t8.5 5q19 12 39 23q14 8 51 24q28 12 59 23q37 13 70 20q51 11 79 14q48 5 87 5
q231 0 373 -153q143 -154 143 -388q0 -250 -144 -397q-145 -148 -364 -148q-221 0 -341 140q-120 139 -120 366zM293 430q5 -154 76 -225q72 -72 182 -72q118 0 203 77q84 76 88 220h-549z" />
    <glyph glyph-name="uni04DC" unicode="&#x4dc;" horiz-adv-x="1826" 
d="M37 0l420 756v4l-391 686h221l338 -608h188v608h201v-608h190l336 608h221l-391 -686v-4l422 -756h-229l-359 662h-190v-662h-201v662h-188l-361 -662h-227zM1010 1599v207h161v-207h-161zM666 1599v207h163v-207h-163z" />
    <glyph glyph-name="uni04DD" unicode="&#x4dd;" horiz-adv-x="1540" 
d="M860 1241v207h162v-207h-162zM516 1241v207h164v-207h-164zM35 0l334 532v5l-306 499h211l254 -424h148v424h188v-424h148l256 424h209l-303 -499v-5l333 -532h-223l-270 442h-150v-442h-188v442h-148l-272 -442h-221z" />
    <glyph glyph-name="uni04DE" unicode="&#x4de;" horiz-adv-x="1118" 
d="M639 1599v207h162v-207h-162zM295 1599v207h164v-207h-164zM55 172l113 137q59 -63 153 -108q90 -43 187 -43q136 0 218 70q83 71 83 192q0 110 -75 175q-74 64 -195 64h-179v168h144q110 0 185 66t75 168q0 99 -65 166q-64 65 -191 65q-178 0 -324 -123l-86 152
q179 149 439 149q191 0 312 -103q122 -104 122 -282q0 -220 -209 -325v-4q116 -33 185 -124q69 -92 69 -222q0 -198 -140 -316q-142 -119 -352 -119q-132 0 -259 53q-126 52 -210 144z" />
    <glyph glyph-name="uni04DF" unicode="&#x4df;" horiz-adv-x="917" 
d="M537 1241v207h161v-207h-161zM193 1241v207h163v-207h-163zM53 127l92 131q117 -123 271 -123q93 0 154 44t61 126q0 158 -213 158h-127v143h108q197 0 197 150q0 71 -49 110t-135 39q-130 0 -252 -90l-74 133q152 113 360 113q152 0 252 -74q99 -73 99 -207
q0 -172 -152 -235v-4q186 -60 186 -244q0 -155 -113 -238q-114 -84 -284 -84q-221 0 -381 152z" />
    <glyph glyph-name="uni04E0" unicode="&#x4e0;" horiz-adv-x="1079" 
d="M139 252q62 -44 154 -75q90 -30 172 -30q142 0 230 74q87 73 87 193q0 102 -54 159q-55 58 -175 74q-35 4 -313 4v135l376 412q15 17 41 40q25 22 35 28l13 10v4q-49 -4 -125 -4h-478v170h836v-154l-401 -428l-60 -51v-4q132 -2 187 -16q315 -57 315 -371
q0 -203 -142 -323q-141 -119 -364 -119q-222 0 -405 122z" />
    <glyph glyph-name="uni04E1" unicode="&#x4e1;" horiz-adv-x="997" 
d="M90 -158q59 -42 154 -74q90 -30 172 -30q142 0 230 74q87 74 87 192q0 103 -54 160q-55 58 -175 74q-35 4 -314 4v135l377 411q15 17 41 40q25 22 35 28l12 10v4q-49 -4 -125 -4h-477v170h836v-153l-402 -428l-59 -52v-4q131 -2 186 -16q316 -57 316 -371
q0 -202 -143 -322t-363 -120q-222 0 -406 123z" />
    <glyph glyph-name="uni04E2" unicode="&#x4e2;" horiz-adv-x="1540" 
d="M526 1606v145h521v-145h-521zM190 0v1446h203v-938l-12 -211h4q72 135 123 213l641 936h199v-1446h-201v938l12 211h-4q-67 -127 -121 -211l-645 -938h-199z" />
    <glyph glyph-name="uni04E3" unicode="&#x4e3;" horiz-adv-x="1224" 
d="M154 0v1036h190v-618q0 -109 -6 -139h4q13 30 92 139l447 618h192v-1036h-192v618q0 28 3 81t3 57h-4q-1 -4 -90 -138l-449 -618h-190zM360 1247v146h521v-146h-521z" />
    <glyph glyph-name="uni04E4" unicode="&#x4e4;" horiz-adv-x="1540" 
d="M862 1599v207h162v-207h-162zM518 1599v207h164v-207h-164zM190 0v1446h203v-938l-12 -211h4q72 135 123 213l641 936h199v-1446h-201v938l12 211h-4q-67 -127 -121 -211l-645 -938h-199z" />
    <glyph glyph-name="uni04E5" unicode="&#x4e5;" horiz-adv-x="1224" 
d="M711 1241v207h161v-207h-161zM367 1241v207h163v-207h-163zM154 0v1036h190v-618q0 -109 -6 -139h4q13 30 92 139l447 618h192v-1036h-192v618q0 28 3 81t3 57h-4q-1 -4 -90 -138l-449 -618h-190z" />
    <glyph glyph-name="uni04E6" unicode="&#x4e6;" horiz-adv-x="1685" 
d="M930 1599v207h162v-207h-162zM586 1599v207h164v-207h-164zM100 733q0 314 211 525q212 212 533 212q318 0 530 -212q211 -211 211 -525q0 -322 -211 -539q-213 -219 -530 -219q-319 0 -532 219q-212 218 -212 539zM309 733q0 -243 152 -407t383 -164q229 0 381 164
q151 163 151 407q0 236 -151 394q-151 159 -381 159q-232 0 -383 -159q-152 -160 -152 -394z" />
    <glyph glyph-name="uni04E7" unicode="&#x4e7;" horiz-adv-x="1288" 
d="M737 1241v207h162v-207h-162zM393 1241v207h164v-207h-164zM86 520q0 232 162 386q163 155 395 155q234 0 397 -154q162 -153 162 -387q0 -233 -162 -389t-395 -156t-396 156t-163 389zM289 520q0 -163 103 -267q104 -106 253 -106q147 0 252 107q104 105 104 266
q0 160 -104 264q-105 105 -252 105q-149 0 -253 -105q-103 -104 -103 -264z" />
    <glyph glyph-name="uni04E8" unicode="&#x4e8;" horiz-adv-x="1685" 
d="M100 733q0 313 213 525q214 212 531 212t529 -212t212 -525q0 -321 -212 -539q-213 -219 -529 -219q-317 0 -531 219q-213 218 -213 539zM844 156q209 0 357 139t175 354h-1067q29 -215 177 -354t358 -139zM844 1290q-209 0 -359 -135q-149 -134 -176 -344h1067
q-27 210 -176 344q-150 135 -356 135z" />
    <glyph glyph-name="uni04E9" unicode="&#x4e9;" horiz-adv-x="1288" 
d="M86 520q0 232 162 386q163 155 395 155q234 0 397 -154q162 -153 162 -387q0 -233 -162 -389t-395 -156t-396 156t-163 389zM645 129q141 0 245 92q103 91 124 240h-738q18 -149 123 -240q106 -92 246 -92zM645 907q-141 0 -245 -89q-103 -88 -124 -230h736
q-21 142 -124 230q-104 89 -243 89z" />
    <glyph glyph-name="uni04EA" unicode="&#x4ea;" horiz-adv-x="1685" 
d="M100 733q0 313 213 525q214 212 531 212t529 -212t212 -525q0 -321 -212 -539q-213 -219 -529 -219q-317 0 -531 219q-213 218 -213 539zM844 156q209 0 357 139t175 354h-1067q29 -215 177 -354t358 -139zM844 1290q-209 0 -359 -135q-149 -134 -176 -344h1067
q-27 210 -176 344q-150 135 -356 135zM590 1599v207h164v-207h-164zM934 1599v207h162v-207h-162z" />
    <glyph glyph-name="uni04EB" unicode="&#x4eb;" horiz-adv-x="1288" 
d="M86 520q0 232 162 386q163 155 395 155q234 0 397 -154q162 -153 162 -387q0 -233 -162 -389t-395 -156t-396 156t-163 389zM645 129q141 0 245 92q103 91 124 240h-738q18 -149 123 -240q106 -92 246 -92zM645 907q-141 0 -245 -89q-103 -88 -124 -230h736
q-21 142 -124 230q-104 89 -243 89zM387 1241v207h164v-207h-164zM731 1241v207h162v-207h-162z" />
    <glyph glyph-name="uni04EC" unicode="&#x4ec;" horiz-adv-x="1466" 
d="M758 1599v207h162v-207h-162zM414 1599v207h164v-207h-164zM68 197l106 141q78 -79 200 -129q120 -49 251 -49q212 0 357 137q145 138 169 344h-756v168h758q-21 210 -166 343q-146 134 -360 134q-242 0 -428 -162l-101 152q95 95 238 144q145 50 295 50q326 0 530 -210
q205 -211 205 -527q0 -323 -210 -540q-210 -218 -531 -218q-163 0 -308 60q-143 59 -249 162z" />
    <glyph glyph-name="uni04ED" unicode="&#x4ed;" horiz-adv-x="1114" 
d="M610 1241v207h162v-207h-162zM266 1241v207h164v-207h-164zM61 131l78 141q130 -133 326 -133q144 0 245 85q100 84 121 222h-495v144h495q-21 140 -120 224q-100 85 -240 85q-172 0 -299 -121l-90 137q66 72 173 109t222 37q239 0 394 -155t155 -388q0 -236 -155 -389
q-156 -154 -398 -154q-250 0 -412 156z" />
    <glyph glyph-name="uni04EE" unicode="&#x4ee;" horiz-adv-x="1226" 
d="M356 1606v145h521v-145h-521zM154 70l92 153q93 -71 166 -71q60 0 95 39t68 122l-571 1133h223l353 -727l82 -191h4q23 76 61 189l268 729h213l-460 -1180q-114 -291 -330 -291q-128 0 -264 95z" />
    <glyph glyph-name="uni04EF" unicode="&#x4ef;" horiz-adv-x="1095" 
d="M102 -215q57 -45 119 -45q126 0 189 154l51 118l-434 1024h223l260 -678l39 -125h4q17 69 35 123l252 680h215l-488 -1222q-45 -119 -134 -182q-87 -62 -202 -62q-52 0 -100 16q-50 17 -74 33l-24 14zM289 1247v146h520v-146h-520z" />
    <glyph glyph-name="uni04F0" unicode="&#x4f0;" horiz-adv-x="1226" 
d="M715 1599v207h162v-207h-162zM371 1599v207h164v-207h-164zM154 70l92 153q93 -71 166 -71q60 0 95 39t68 122l-571 1133h223l353 -727l82 -191h4q23 76 61 189l268 729h213l-460 -1180q-114 -291 -330 -291q-128 0 -264 95z" />
    <glyph glyph-name="uni04F1" unicode="&#x4f1;" horiz-adv-x="1095" 
d="M102 -215q57 -45 119 -45q126 0 189 154l51 118l-434 1024h223l260 -678l39 -125h4q17 69 35 123l252 680h215l-488 -1222q-45 -119 -134 -182q-87 -62 -202 -62q-52 0 -100 16q-50 17 -74 33l-24 14zM639 1241v207h162v-207h-162zM295 1241v207h164v-207h-164z" />
    <glyph glyph-name="uni04F2" unicode="&#x4f2;" horiz-adv-x="1226" 
d="M154 70l92 153q93 -71 166 -71q60 0 95 39t68 122l-571 1133h223l353 -727l82 -191h4q23 76 61 189l268 729h213l-460 -1180q-114 -291 -330 -291q-128 0 -264 95zM688 1546l150 260h206l-196 -260h-160zM373 1546l139 260h180l-145 -260h-174z" />
    <glyph glyph-name="uni04F3" unicode="&#x4f3;" horiz-adv-x="1095" 
d="M102 -215q57 -45 119 -45q126 0 189 154l51 118l-434 1024h223l260 -678l39 -125h4q17 69 35 123l252 680h215l-488 -1222q-45 -119 -134 -182q-87 -62 -202 -62q-52 0 -100 16q-50 17 -74 33l-24 14zM604 1188l150 260h207l-197 -260h-160zM289 1188l139 260h180
l-145 -260h-174z" />
    <glyph glyph-name="uni04F4" unicode="&#x4f4;" horiz-adv-x="1308" 
d="M541 555q-219 0 -328 109t-109 313v469h205v-426q0 -140 66 -210q66 -71 209 -71q180 0 327 99v608h205v-1446h-205v586l4 67h-4q-184 -98 -370 -98zM715 1599v207h162v-207h-162zM371 1599v207h164v-207h-164z" />
    <glyph glyph-name="uni04F5" unicode="&#x4f5;" horiz-adv-x="1071" 
d="M604 1241v207h162v-207h-162zM260 1241v207h164v-207h-164zM436 360q-168 0 -258 87t-90 251v338h195v-309q0 -89 45 -141q46 -54 161 -54q127 0 230 74v430h199v-1036h-199v375l2 61h-4q-121 -76 -281 -76z" />
    <glyph glyph-name="uni04F6" unicode="&#x4f6;" horiz-adv-x="1021" 
d="M190 0v1446h797v-176h-594v-1094h201v-463h-184v287h-220z" />
    <glyph glyph-name="uni04F7" unicode="&#x4f7;" horiz-adv-x="851" 
d="M154 0v1036h649v-170h-451v-694h172v-418h-180v246h-190z" />
    <glyph glyph-name="uni04F8" unicode="&#x4f8;" horiz-adv-x="1728" 
d="M954 1599v207h162v-207h-162zM610 1599v207h164v-207h-164zM1335 0v1446h201v-1446h-201zM190 0v1446h203v-545h297q194 0 318 -122q122 -121 122 -333q0 -201 -119 -323q-120 -123 -311 -123h-510zM393 176h275q120 0 189 72t69 198t-71 203q-70 76 -191 76h-271v-549z
" />
    <glyph glyph-name="uni04F9" unicode="&#x4f9;" horiz-adv-x="1443" 
d="M809 1241v207h162v-207h-162zM465 1241v207h164v-207h-164zM1092 0v1036h198v-1036h-198zM154 0v1036h198v-374h203q171 0 274 -83t103 -251q0 -151 -95 -240q-94 -88 -284 -88h-399zM352 143h174q101 0 154 51q51 50 51 136t-51 137t-156 51h-172v-375z" />
    <glyph glyph-name="uni0524" unicode="&#x524;" horiz-adv-x="1591" 
d="M190 0v1446h1139v-1270h201v-463h-184v287h-220v1270h-733v-1270h-203z" />
    <glyph glyph-name="uni0525" unicode="&#x525;" horiz-adv-x="1280" 
d="M154 0v1036h905v-864h174v-418h-182v246h-191v866h-508v-866h-198z" />
    <glyph glyph-name="uni1E9E" unicode="&#x1e9e;" horiz-adv-x="1384" 
d="M178 0v1036q0 176 118 293t298 117h635v-139l-283 -414l-51 -68v-4l51 -2q150 -12 247 -130t97 -269q0 -174 -126 -297t-302 -123h-305v176h291q104 0 170 71q65 69 65 173q0 102 -64 170q-64 69 -167 69h-180v142l231 346q40 60 49 72q24 32 33 41l10 10v4
q-15 -4 -90 -4h-303q-96 0 -158 -66q-61 -65 -61 -164v-1040h-205z" />
    <glyph glyph-name="thinspace" unicode="&#x2009;" horiz-adv-x="28" 
 />
    <glyph glyph-name="endash" unicode="&#x2013;" horiz-adv-x="1370" 
d="M147 504v160h1076v-160h-1076z" />
    <glyph glyph-name="emdash" unicode="&#x2014;" horiz-adv-x="1779" 
d="M147 504v160h1485v-160h-1485z" />
    <glyph glyph-name="quoteleft" unicode="&#x2018;" horiz-adv-x="512" 
d="M123 1071l133 397h147l-88 -397h-192z" />
    <glyph glyph-name="quoteright" unicode="&#x2019;" horiz-adv-x="499" 
d="M131 1071l86 397h195l-136 -397h-145z" />
    <glyph glyph-name="quotesinglbase" unicode="&#x201a;" horiz-adv-x="528" 
d="M102 -182l88 397h187l-131 -397h-144z" />
    <glyph glyph-name="quotedblleft" unicode="&#x201c;" horiz-adv-x="800" 
d="M412 1071l133 397h147l-88 -397h-192zM123 1071l133 397h147l-88 -397h-192z" />
    <glyph glyph-name="quotedblright" unicode="&#x201d;" 
d="M420 1071l86 397h194l-133 -397h-147zM131 1071l86 397h195l-133 -397h-148z" />
    <glyph glyph-name="quotedblbase" unicode="&#x201e;" horiz-adv-x="811" 
d="M385 -182l88 397h189l-134 -397h-143zM102 -182l88 397h187l-131 -397h-144z" />
    <glyph glyph-name="dagger" unicode="&#x2020;" horiz-adv-x="872" 
d="M338 -102v979h-248v159h248v410h192v-410h252v-159h-252v-979h-192z" />
    <glyph glyph-name="daggerdbl" unicode="&#x2021;" horiz-adv-x="927" 
d="M119 350v160h246v367h-246v159h246v410h192v-410h252v-159h-252v-367h252v-160h-252v-452h-192v452h-246z" />
    <glyph glyph-name="bullet" unicode="&#x2022;" horiz-adv-x="974" 
d="M487 279q-131 0 -223 93q-92 94 -92 224t92 224q92 93 223 93q132 0 225 -93t93 -224t-93 -224t-225 -93z" />
    <glyph glyph-name="ellipsis" unicode="&#x2026;" horiz-adv-x="1558" 
d="M1206 0v215h209v-215h-209zM676 0v215h207v-215h-207zM143 0v215h207v-215h-207z" />
    <glyph glyph-name="perthousand" unicode="&#x2030;" horiz-adv-x="2265" 
d="M414 864q-126 0 -218 89t-92 214t92 214t218 89q130 0 222 -89q91 -88 91 -214q0 -127 -91 -215t-222 -88zM137 0l1104 1446h195l-1106 -1446h-193zM414 1016q65 0 109 44t44 107q0 64 -45 109t-108 45q-64 0 -107 -45q-43 -44 -43 -109q0 -64 43 -107q44 -44 107 -44z
M1573 276q0 126 91 216q92 90 218 90q130 0 221 -90q92 -90 92 -216q0 -124 -92 -213q-91 -88 -221 -88q-127 0 -218 88t-91 213zM848 276q0 128 90 217q91 89 219 89t220 -89q91 -88 91 -217q0 -125 -91 -213t-220 -88q-130 0 -219 88q-90 89 -90 213zM1733 279
q0 -65 43 -108q44 -44 106 -44q63 0 109 44q45 43 45 108q0 63 -45 108t-109 45q-62 0 -106 -45q-43 -44 -43 -108zM1008 279q0 -65 43 -108q44 -44 106 -44q64 0 108 44t44 108q0 62 -44 108q-43 45 -108 45q-63 0 -106 -45q-43 -44 -43 -108z" />
    <glyph glyph-name="guilsinglleft" unicode="&#x2039;" horiz-adv-x="735" 
d="M428 158l-336 420l336 421h199l-336 -421l336 -420h-199z" />
    <glyph glyph-name="guilsinglright" unicode="&#x203a;" horiz-adv-x="735" 
d="M109 158l335 420l-335 421h198l336 -421l-336 -420h-198z" />
    <glyph glyph-name="fraction" unicode="&#x2044;" horiz-adv-x="346" 
d="M-92 0h-154l688 1446h152z" />
    <glyph glyph-name="zerosuperior" unicode="&#x2070;" 
d="M395 846q-321 0 -321 469q0 467 321 467q322 0 322 -467q0 -469 -322 -469zM395 987q166 0 166 328q0 325 -166 325q-168 0 -168 -325q0 -328 168 -328z" />
    <glyph glyph-name="foursuperior" unicode="&#x2074;" 
d="M463 866v219h-424v103l410 573h165v-540h127v-136h-127v-219h-151zM205 1221h258v252l6 118h-4q-27 -56 -59 -98l-201 -268v-4z" />
    <glyph glyph-name="fivesuperior" unicode="&#x2075;" 
d="M375 846q-182 0 -293 139l90 105q29 -45 83 -74q55 -29 110 -29q76 0 130 48t54 120q0 71 -54 121q-53 49 -133 49q-85 0 -153 -43l-86 33l49 446h473v-137h-348l-14 -127l-11 -65h4q53 20 115 20q135 0 223 -88t88 -211q0 -124 -92 -216q-91 -91 -235 -91z" />
    <glyph glyph-name="sixsuperior" unicode="&#x2076;" 
d="M418 846q-148 0 -242 113t-94 303q0 126 40 239q41 116 135 198q95 83 228 83q107 0 191 -45l-51 -129q-60 32 -133 32q-95 0 -156 -73t-82 -185h4q64 64 162 64q134 0 217 -83q82 -82 82 -210q0 -137 -84 -222t-217 -85zM418 987q69 0 108 48t39 120q0 73 -45 123
q-45 49 -121 49q-64 0 -111 -34q-48 -35 -48 -74q0 -87 51 -159q52 -73 127 -73z" />
    <glyph glyph-name="sevensuperior" unicode="&#x2077;" 
d="M123 866l358 662l60 96v4q-35 -4 -92 -4h-351v137h619v-104l-424 -791h-170z" />
    <glyph glyph-name="eightsuperior" unicode="&#x2078;" 
d="M395 846q-130 0 -227 74q-96 74 -96 204t145 232q-100 72 -100 186q0 113 85 176q87 64 201 64q116 0 205 -65q88 -64 88 -179t-114 -229q131 -78 131 -203q0 -115 -93 -187q-94 -73 -225 -73zM473 1362q76 83 76 168q0 56 -44 86q-45 31 -104 31q-55 0 -97 -28
q-40 -27 -40 -83q0 -39 30 -72q29 -32 62 -50t93 -42q19 -7 24 -10zM395 979q64 0 114 38t50 95q0 26 -12 49q-11 21 -41 43q-21 15 -50 32q-11 6 -68 32q-62 28 -66 30q-101 -77 -101 -168q0 -70 52 -110q53 -41 122 -41z" />
    <glyph glyph-name="ninesuperior" unicode="&#x2079;" 
d="M115 891l51 131q61 -33 133 -33q92 0 156 73t82 183h-5q-63 -63 -161 -63q-134 0 -217 83q-82 82 -82 210q0 135 84 221t215 86q147 0 242 -114q96 -116 96 -302q0 -197 -106 -359q-105 -161 -298 -161q-111 0 -190 45zM389 1298q63 0 112 35q48 35 48 76q0 87 -51 159
t-127 72q-67 0 -108 -48q-40 -47 -40 -117q0 -77 45 -126q46 -51 121 -51z" />
    <glyph glyph-name="zeroinferior" unicode="&#x2080;" 
d="M395 -342q-321 0 -321 469q0 467 321 467q322 0 322 -467q0 -469 -322 -469zM395 -201q166 0 166 328q0 326 -166 326q-168 0 -168 -326q0 -328 168 -328z" />
    <glyph glyph-name="oneinferior" unicode="&#x2081;" 
d="M147 -322v136h191v510l4 53h-4q-7 -17 -35 -45l-74 -70l-92 100l217 211h138v-759h188v-136h-533z" />
    <glyph glyph-name="twoinferior" unicode="&#x2082;" 
d="M96 -322q-6 38 -6 74q0 96 45 171q44 73 109 121q46 34 127 86q63 40 108 87t45 102q0 59 -42 96q-43 38 -105 38q-91 0 -174 -99l-101 92q45 65 120 106q76 42 161 42q127 0 211 -75t84 -193q0 -82 -42 -148q-41 -64 -102 -107q-51 -36 -122 -79q-63 -38 -107 -81
t-49 -97h436v-136h-596z" />
    <glyph glyph-name="threeinferior" unicode="&#x2083;" 
d="M373 -342q-84 0 -168 35q-82 34 -133 100l86 109q29 -42 88 -73q57 -30 121 -30q69 0 119 45q51 46 51 111q0 66 -54 106q-53 39 -127 39h-69l-35 78l182 211l51 49v4q-39 -6 -75 -6h-289v137h555v-98l-223 -258q102 -15 171 -81q68 -65 68 -181q0 -121 -90 -209
q-89 -88 -229 -88z" />
    <glyph glyph-name="fourinferior" unicode="&#x2084;" 
d="M463 -322v220h-424v102l410 573h165v-540h127v-135h-127v-220h-151zM205 33h258v252l6 118h-4q-27 -56 -59 -98l-201 -268v-4z" />
    <glyph glyph-name="fiveinferior" unicode="&#x2085;" 
d="M375 -342q-182 0 -293 139l90 105q29 -45 83 -74q55 -29 110 -29q76 0 130 48t54 120q0 71 -54 121q-53 49 -133 49q-85 0 -153 -43l-86 33l49 446h473v-137h-348l-14 -127l-11 -65h4q53 20 115 20q135 0 223 -88t88 -211q0 -124 -92 -216q-91 -91 -235 -91z" />
    <glyph glyph-name="sixinferior" unicode="&#x2086;" 
d="M418 -342q-148 0 -242 114q-94 113 -94 302q0 126 40 239q41 116 135 198q95 83 228 83q107 0 191 -45l-51 -129q-61 33 -133 33q-94 0 -156 -74q-61 -73 -82 -184h4q63 63 162 63q134 0 217 -83q82 -82 82 -210q0 -137 -84 -222t-217 -85zM418 -201q69 0 108 48t39 120
q0 73 -45 123q-45 49 -121 49q-64 0 -111 -34q-48 -35 -48 -74q0 -87 51 -159q52 -73 127 -73z" />
    <glyph glyph-name="seveninferior" unicode="&#x2087;" 
d="M123 -322l358 662l60 96v4q-35 -4 -92 -4h-351v137h619v-104l-424 -791h-170z" />
    <glyph glyph-name="eightinferior" unicode="&#x2088;" 
d="M395 -340q-130 0 -227 74q-96 74 -96 205q0 129 145 231q-100 72 -100 186q0 113 85 176q87 64 201 64q116 0 205 -65q88 -64 88 -179t-114 -229q131 -78 131 -203q0 -115 -93 -187q-94 -73 -225 -73zM473 176q76 83 76 168q0 56 -44 86q-45 31 -104 31q-55 0 -97 -28
q-40 -27 -40 -83q0 -38 30 -71q31 -34 62 -51q33 -18 93 -42q19 -7 24 -10zM395 -207q64 0 114 38t50 95q0 26 -12 49q-11 21 -41 43q-21 15 -50 32q-11 6 -68 32q-41 19 -66 31q-101 -77 -101 -168q0 -71 52 -111q53 -41 122 -41z" />
    <glyph glyph-name="nineinferior" unicode="&#x2089;" 
d="M115 -297l51 131q62 -33 133 -33q92 0 156 73t82 183h-5q-63 -63 -161 -63q-134 0 -217 83q-82 82 -82 210q0 135 84 221t215 86q147 0 242 -114q96 -116 96 -302q0 -197 -106 -359q-105 -161 -298 -161q-111 0 -190 45zM389 111q65 0 112 34q48 35 48 76q0 87 -51 159
q-52 73 -127 73q-67 0 -108 -49q-40 -47 -40 -117q0 -77 45 -126q45 -50 121 -50z" />
    <glyph glyph-name="Euro" unicode="&#x20ac;" horiz-adv-x="1181" 
d="M53 528v129h115q-10 54 -2 148h-113v131h137q63 237 254 386q190 148 441 148q103 0 205 -24l-48 -184q-64 20 -161 20q-170 0 -297 -94t-178 -252h575l-27 -131h-577q-11 -62 0 -148h551l-27 -129h-491q49 -163 178 -262q128 -98 299 -98q101 0 186 27l39 -185
q-96 -35 -227 -35q-260 0 -449 153q-188 152 -248 400h-135z" />
    <glyph glyph-name="numero" unicode="&#x2116;" horiz-adv-x="2170" 
d="M180 0v1446h201l643 -938q21 -30 54 -88q24 -42 48 -88l17 -35h4q-12 129 -12 211v938h202v-1446h-198l-647 938l-119 211h-4q12 -129 12 -211v-938h-201zM1487 963q0 120 85 204q86 84 208 84q120 0 206 -84q85 -84 85 -204q0 -123 -85 -207q-86 -84 -206 -84
q-125 0 -209 84t-84 207zM1638 963q0 -61 41 -105q40 -43 101 -43q59 0 99 43t40 105t-40 102q-41 41 -99 41q-60 0 -101 -41t-41 -102zM1505 401v144h543v-144h-543z" />
    <glyph glyph-name="trademark" unicode="&#x2122;" horiz-adv-x="2031" 
d="M969 545l71 901h144l211 -471l28 -84h4q12 47 27 84l213 471h143l70 -901h-154l-43 538l3 62h-5l-192 -434h-125l-197 434h-4l2 -62l-43 -538h-153zM438 545v764h-313v137h778v-137h-311v-764h-154z" />
    <glyph glyph-name="minus" unicode="&#x2212;" horiz-adv-x="1181" 
d="M61 504v160h1059v-160h-1059z" />
    <glyph glyph-name="infinity" unicode="&#x221e;" horiz-adv-x="987" 
d="M494 342q-154 0 -264 110q-109 109 -109 263t109 262t264 108q157 0 264 -107q108 -108 108 -263q0 -153 -108 -263t-264 -110z" />
    <glyph glyph-name="approxequal" unicode="&#x2248;" horiz-adv-x="1181" 
d="M162 659l-84 119q146 150 309 150q101 0 220 -72t186 -72q122 0 227 113l82 -121q-145 -149 -309 -149q-104 0 -221 71q-119 72 -185 72q-114 0 -225 -111zM162 272l-84 121q146 146 309 146q101 0 220 -72t186 -72q120 0 227 115l82 -121q-144 -147 -309 -147
q-104 0 -221 71q-118 72 -185 72q-112 0 -225 -113z" />
    <glyph glyph-name="notequal" unicode="&#x2260;" horiz-adv-x="1181" 
d="M213 150l115 159h-228v160h334l164 227h-498v160h605l165 234l105 -70l-117 -164h219v-160h-325l-164 -227h489v-160h-596l-162 -229z" />
    <glyph glyph-name="lessequal" unicode="&#x2264;" horiz-adv-x="1181" 
d="M98 516v135l955 426v-182l-731 -309v-4l731 -310v-182zM100 -195h953v-157h-953v157z" />
    <glyph glyph-name="greaterequal" unicode="&#x2265;" horiz-adv-x="1181" 
d="M127 90v182l731 310v4l-731 309v182l956 -426v-135zM127 -195h952v-157h-952v157z" />
    <glyph glyph-name="commaaccent" unicode="&#xf6c3;" horiz-adv-x="686" 
d="M258 -121h174q14 -52 14 -104q0 -85 -51 -193h-151q39 111 39 172q0 59 -25 125z" />
    <glyph glyph-name="cyrbreve" unicode="&#xf6d4;" horiz-adv-x="688" 
d="M342 1513q-125 0 -214 71t-89 192v30h160v-28q0 -64 43 -100q44 -36 100 -36q58 0 102 36q43 36 43 102v26h158v-30q0 -122 -88 -192q-89 -71 -215 -71z" />
    <glyph glyph-name="apple" unicode="&#xf8ff;" horiz-adv-x="2314" 
d="M344 -10v311l-258 148v569l258 145v310l543 290l274 -145l271 145l542 -290v-310l254 -145v-569l-254 -148v-311l-542 -289l-271 145l-274 -145zM426 61l487 -258l248 136l242 -136l487 258v285l234 131v510l-234 135v279l-487 258l-242 -131l-248 131l-487 -258v-279
l-233 -135v-510l233 -131v-285zM496 131v248l-203 123v461l203 118v252l440 234l225 -121l219 121l439 -234v-252l204 -118v-461l-204 -123v-248l-439 -233l-219 118l-225 -118zM915 186h89v467h466v82h-466v393h407q35 0 47 -13t12 -46v-86h86v111q0 63 -26 89
q-27 27 -92 27h-656v-82h133v-942z" />
    <glyph glyph-name="zero.tnum" horiz-adv-x="1181" 
d="M592 -25q-138 0 -242 58q-103 58 -160 162q-57 105 -84 235q-26 126 -26 295q0 168 26 294q27 129 84 233q57 103 160 161q102 57 242 57q512 0 512 -745q0 -750 -512 -750zM592 162q303 0 303 563q0 559 -303 559t-303 -559q0 -563 303 -563z" />
    <glyph glyph-name="one.tnum" horiz-adv-x="1181" 
d="M201 0v176h319v934l2 88h-4q-18 -33 -69 -84l-136 -131l-123 127l347 336h180v-1270h317v-176h-833z" />
    <glyph glyph-name="two.tnum" horiz-adv-x="1181" 
d="M125 0q-10 63 -10 111q0 104 39 194q40 92 101 156q65 68 138 124q71 55 153 109q67 44 139 103q62 50 101 113t39 130q0 107 -73 173q-75 67 -189 67q-87 0 -167 -51t-126 -133l-149 100q67 123 186 198q121 76 273 76q200 0 327 -114t127 -301q0 -111 -51 -207
q-51 -95 -128 -159q-61 -51 -167 -128q-90 -66 -168 -117t-130 -121q-52 -71 -54 -147h721v-176h-932z" />
    <glyph glyph-name="three.tnum" horiz-adv-x="1181" 
d="M98 172l111 154q63 -68 158 -113t192 -45q123 0 209 75t86 189q0 128 -97 197q-98 69 -241 69h-98l-47 109l315 371q28 32 43 48t35 36l12 10v4q-44 -6 -123 -6h-489v176h864v-129l-393 -455q106 -11 195 -53q92 -44 160 -140q69 -97 69 -231q0 -189 -137 -326t-355 -137
q-127 0 -254 52q-126 52 -215 145z" />
    <glyph glyph-name="four.tnum" horiz-adv-x="1181" 
d="M35 387v127l670 932h229v-889h196v-170h-196v-387h-199v387h-700zM258 557h477v528l8 146h-4q-36 -75 -71 -121l-410 -549v-4z" />
    <glyph glyph-name="five.tnum" horiz-adv-x="1181" 
d="M113 176l114 148q127 -156 318 -156q132 0 223 82q92 83 92 211q0 129 -93 213t-235 84q-135 0 -243 -72l-119 43l72 717h731v-176h-555l-33 -305l-12 -74h4q82 43 188 43q226 0 365 -136t139 -337q0 -207 -146 -346q-148 -140 -366 -140q-127 0 -247 53
q-118 52 -197 148z" />
    <glyph glyph-name="six.tnum" horiz-adv-x="1181" 
d="M96 655q0 110 25 229q23 111 77 220q52 105 126 187q73 80 183 130q108 49 238 49q161 0 283 -59l-65 -174q-91 47 -209 47q-184 0 -295 -142q-110 -141 -137 -343h4q44 60 134 98q87 37 185 37q203 0 330 -135q127 -134 127 -342t-131 -345t-334 -137q-234 0 -387 189
q-154 190 -154 491zM643 162q114 0 186 84t72 211q0 136 -80 222q-79 85 -217 85q-120 0 -207 -59q-88 -60 -88 -154q0 -133 95 -261t239 -128z" />
    <glyph glyph-name="seven.tnum" horiz-adv-x="1181" 
d="M227 0l564 1137q17 36 38 70q17 28 31 48l12 15v4q-25 -4 -102 -4h-647v176h967v-139l-652 -1307h-211z" />
    <glyph glyph-name="eight.tnum" horiz-adv-x="1181" 
d="M86 412q0 76 27 146q28 74 69 120q44 50 74 77q26 24 61 48q-161 112 -161 284q0 162 116 272q117 111 334 111q203 0 329 -105t126 -280q0 -117 -59 -220q-58 -101 -115 -158q196 -118 196 -308q0 -174 -137 -299t-358 -125q-216 0 -359 124t-143 313zM731 784
q131 140 131 285q0 103 -71 161t-189 58q-114 0 -180 -57t-66 -144q0 -27 10 -57q9 -27 22 -47q14 -22 40 -42q38 -30 47 -36q20 -14 59 -33q10 -5 31 -15t30 -14q24 -12 69 -30q34 -14 67 -29zM293 428q0 -117 88 -193q89 -77 205 -77q121 0 205 68q86 69 86 177
q0 46 -22 85q-21 38 -71 71q-44 29 -88 53q-41 22 -115 54q-97 42 -112 49q-176 -123 -176 -287z" />
    <glyph glyph-name="nine.tnum" horiz-adv-x="1181" 
d="M152 35l65 176q98 -49 207 -49q186 0 297 142q110 141 137 343h-4q-43 -60 -133 -98q-89 -37 -186 -37q-203 0 -330 135q-127 134 -127 340q0 212 131 348q131 135 334 135q236 0 388 -188t152 -494q0 -144 -40 -283q-41 -141 -116 -261q-76 -121 -205 -195
q-128 -74 -290 -74q-158 0 -280 60zM575 682q122 0 209 62q88 63 88 141q0 148 -97 273q-98 126 -230 126q-121 0 -193 -83q-71 -81 -71 -214q0 -135 79 -220t215 -85z" />
    <glyph glyph-name="hyphen.case" horiz-adv-x="884" 
d="M143 625v176h598v-176h-598z" />
    <glyph glyph-name="parenleft.case" horiz-adv-x="600" 
d="M346 -133q-237 396 -237 891q0 430 237 809h174q-231 -387 -231 -811q0 -469 231 -889h-174z" />
    <glyph glyph-name="parenright.case" horiz-adv-x="600" 
d="M80 -133q231 420 231 889q0 424 -231 811h174q238 -381 238 -809q0 -493 -238 -891h-174z" />
    <glyph glyph-name="bracketleft.case" horiz-adv-x="616" 
d="M176 -133v1700h340v-150h-166v-1399h166v-151h-340z" />
    <glyph glyph-name="bracketright.case" horiz-adv-x="616" 
d="M100 18h166v1399h-166v150h340v-1700h-340v151z" />
    <glyph glyph-name="braceleft.case" horiz-adv-x="727" 
d="M258 219v197q0 88 -44 149q-43 59 -130 74v176q81 16 128 75q46 58 46 152v172q0 91 26 161t61 105t86 58q52 24 86 28q40 5 73 5l47 -2v-152h-27q-29 0 -51 -7q-25 -8 -56 -27q-32 -20 -51 -65q-20 -48 -20 -116v-211q0 -91 -45 -160q-46 -71 -121 -100v-4
q166 -66 166 -260v-236q0 -68 20 -116t51 -67q30 -18 56 -25q28 -7 51 -7h27v-151q-16 -4 -47 -4q-33 0 -73 5q-34 4 -86 28q-51 23 -86 58t-61 105t-26 162z" />
    <glyph glyph-name="braceright.case" horiz-adv-x="727" 
d="M90 16h29q22 0 50 7q25 6 55 25q31 19 51 67t20 116v236q0 94 43 162q44 70 123 98v4q-70 28 -118 96q-48 69 -48 164v211q0 68 -20 116q-19 45 -51 65t-55 27q-22 7 -50 7h-29v152q24 2 47 2q33 0 73 -5q34 -4 86 -28q51 -23 86 -58t61 -105t26 -161v-172q0 -90 45 -151
t129 -76v-176q-82 -10 -128 -73q-46 -62 -46 -150v-197q0 -92 -26 -162t-61 -105t-86 -58q-52 -24 -86 -28q-40 -5 -73 -5l-47 4v151z" />
    <glyph glyph-name="at.case" horiz-adv-x="1630" 
d="M115 719q0 317 217 537q218 221 530 221q278 0 405 -118q128 -119 128 -298v-580h147v-149h-559q-188 0 -305 113q-119 114 -119 272q0 160 118 272q119 113 306 113h221q-2 90 -90 150q-90 61 -242 61q-235 0 -397 -176q-162 -175 -162 -418q0 -249 163 -418
q164 -170 419 -170v-162q-339 0 -559 216q-221 216 -221 534zM760 721q0 -102 67 -170q68 -70 170 -70h207v484h-203q-104 0 -173 -71q-68 -69 -68 -173z" />
    <glyph glyph-name="guillemotleft.case" horiz-adv-x="1148" 
d="M842 281l-336 419l336 422h198l-335 -422l335 -419h-198zM428 281l-336 419l336 422h199l-336 -422l336 -419h-199z" />
    <glyph glyph-name="guillemotright.case" horiz-adv-x="1148" 
d="M522 281l336 419l-336 422h199l336 -422l-336 -419h-199zM109 281l335 419l-335 422h198l336 -422l-336 -419h-198z" />
    <glyph glyph-name="guilsinglleft.case" horiz-adv-x="737" 
d="M428 281l-336 419l336 422h199l-336 -422l336 -419h-199z" />
    <glyph glyph-name="guilsinglright.case" horiz-adv-x="737" 
d="M109 281l335 419l-335 422h198l336 -422l-336 -419h-198z" />
    <glyph glyph-name="endash.case" horiz-adv-x="1363" 
d="M143 627v159h1078v-159h-1078z" />
    <glyph glyph-name="emdash.case" horiz-adv-x="1773" 
d="M143 627v159h1487v-159h-1487z" />
    <glyph glyph-name="periodcentered.case" horiz-adv-x="491" 
d="M143 602v211h203v-211h-203z" />
    <glyph glyph-name="questiondown.case" horiz-adv-x="956" 
d="M643 1047v-97q0 -86 -36 -155q-37 -71 -87 -118q-52 -49 -101 -92q-48 -43 -86 -102q-36 -57 -36 -125q0 -85 67 -144q65 -58 166 -58q125 0 232 86l110 -142q-148 -131 -356 -131q-178 0 -303 105t-125 270q0 95 37 169q38 77 91 125q11 10 108 96q52 46 90 104
q37 56 37 125v84h192zM649 1444v-203h-205v203h205z" />
    <glyph glyph-name="exclamdown.case" horiz-adv-x="559" 
d="M369 1047l12 -1049h-205l14 1049h179zM381 1444v-203h-205v203h205z" />
    <glyph glyph-name="bullet.case" horiz-adv-x="970" 
d="M485 403q-131 0 -223 94t-92 224t92 224q91 93 223 93t225 -93t93 -224t-93 -224q-94 -94 -225 -94z" />
    <glyph glyph-name="zero.p_osf" horiz-adv-x="1198" 
d="M106 557q0 150 51 283q49 128 166 216q115 87 277 87q237 0 365 -173q127 -172 127 -415q0 -241 -127 -410q-128 -170 -365 -170q-240 0 -367 171q-127 170 -127 411zM307 559q0 -169 75 -291q75 -121 218 -121q141 0 216 122t75 290q0 169 -75 290q-75 122 -216 122
q-143 0 -218 -121q-75 -122 -75 -291z" />
    <glyph glyph-name="one.p_osf" horiz-adv-x="989" 
d="M137 0v172h312v625l2 121h-5q-33 -33 -77 -60l-187 -110l-92 139l377 231h176v-946h281v-172h-787z" />
    <glyph glyph-name="two.p_osf" horiz-adv-x="1107" 
d="M123 0v137q314 209 469 352q160 148 160 279q0 100 -68 150q-67 49 -170 49q-156 0 -307 -154l-109 131q72 84 193 141q124 58 250 58q184 0 299 -100q114 -99 114 -248q0 -173 -130 -315q-132 -145 -402 -312v-4q46 8 123 8h463v-172h-885z" />
    <glyph glyph-name="three.p_osf" horiz-adv-x="1095" 
d="M70 -80l102 139q145 -149 330 -149q122 0 209 70q86 69 86 182q0 123 -100 190q-99 66 -234 66h-107l-45 104l305 350q16 21 37 40q27 25 31 28l12 8v4q-44 -6 -121 -6h-423v172h813v-117l-396 -434q76 -6 148 -30q67 -22 136 -69q62 -42 104 -121q40 -76 40 -173
q0 -188 -136 -312t-355 -124q-267 0 -436 182z" />
    <glyph glyph-name="four.p_osf" horiz-adv-x="1214" 
d="M59 68v127l635 923h236v-878h209v-172h-209v-306h-199v306h-672zM281 240h450v524l10 145h-4q-36 -80 -71 -129z" />
    <glyph glyph-name="five.p_osf" horiz-adv-x="1103" 
d="M86 -66l104 136q51 -64 138 -106q83 -40 174 -40q127 0 223 73q94 72 94 202q0 129 -93 201q-94 73 -224 73q-64 0 -125 -15t-92 -32l-31 -16l-113 41l74 667h705v-172h-535l-33 -278l-10 -72h4q82 39 191 39q211 0 347 -117t136 -311q0 -208 -143 -332
q-145 -125 -363 -125q-120 0 -236 48t-192 136z" />
    <glyph glyph-name="six.p_osf" horiz-adv-x="1210" 
d="M115 602q0 138 39 271q41 139 113 249q76 116 202 187t287 71q157 0 280 -55l-65 -162q-90 45 -207 45q-185 0 -296 -138q-112 -139 -136 -331h4q46 64 134 100q86 35 187 35q202 0 327 -125q126 -126 126 -317q0 -199 -130 -328t-331 -129q-234 0 -384 171t-150 456z
M324 520q0 -136 93 -255q93 -118 230 -118q124 0 193 79q69 80 69 204q0 125 -79 204t-214 79q-117 0 -205 -59q-87 -58 -87 -134z" />
    <glyph glyph-name="seven.p_osf" horiz-adv-x="1054" 
d="M180 -238l537 1063q17 33 37 66q21 35 28 43l9 14v4q-25 -4 -101 -4h-618v170h942v-131l-625 -1225h-209z" />
    <glyph glyph-name="eight.p_osf" horiz-adv-x="1204" 
d="M111 391q0 89 49 172q50 85 93 122q48 42 87 67q-164 108 -164 272q0 147 114 252q113 104 322 104q196 0 321 -99q124 -99 124 -263q0 -179 -166 -354q194 -113 194 -289q0 -163 -135 -282q-134 -118 -350 -118q-210 0 -350 117q-139 117 -139 299zM735 739
q129 129 129 267q0 94 -69 148t-185 54q-112 0 -177 -53q-64 -52 -64 -135q0 -31 9 -58t34 -52q7 -7 43 -40q16 -15 62 -37q50 -24 66 -31q47 -20 77 -32q11 -5 75 -31zM309 403q0 -112 86 -184q85 -72 205 -72q116 0 201 65q84 64 84 167q0 37 -18 68q-20 35 -42 54
q-26 22 -69 47q-43 24 -79 40q-5 2 -94 40q-92 39 -94 40q-180 -117 -180 -265z" />
    <glyph glyph-name="nine.p_osf" horiz-adv-x="1175" 
d="M225 -45q90 -45 207 -45q183 0 294 138t138 329h-4q-45 -61 -134 -96q-90 -35 -187 -35q-203 0 -328 125t-125 315q0 202 130 329q131 128 331 128q234 0 384 -171t150 -456q0 -138 -39 -271q-41 -139 -113 -249q-75 -114 -202 -186q-128 -72 -287 -72q-157 0 -280 55z
M580 408q118 0 205 57t87 133q0 136 -93 255q-93 118 -232 118q-121 0 -192 -78q-70 -77 -70 -205q0 -122 80 -202q78 -78 215 -78z" />
    <glyph glyph-name="zero.t_osf" horiz-adv-x="1181" 
d="M98 557q0 153 50 283q49 128 166 216q116 87 278 87q236 0 364 -173q127 -172 127 -415q0 -241 -127 -410q-128 -170 -364 -170q-240 0 -367 171q-127 170 -127 411zM299 559q0 -169 75 -291q75 -121 218 -121q141 0 216 122t75 290q0 169 -75 290q-75 122 -216 122
q-143 0 -218 -121q-75 -122 -75 -291z" />
    <glyph glyph-name="one.t_osf" horiz-adv-x="1181" 
d="M231 0v172h312v625l2 121h-4q-31 -32 -78 -60l-187 -110l-92 139l377 231h176v-946h281v-172h-787z" />
    <glyph glyph-name="two.t_osf" horiz-adv-x="1181" 
d="M160 0v137q314 209 469 352q159 147 159 279q0 101 -67 150t-170 49q-156 0 -307 -154l-109 131q72 84 193 141q124 58 250 58q184 0 299 -100q114 -99 114 -248q0 -173 -130 -315q-132 -145 -402 -312v-4q46 8 123 8h462v-172h-884z" />
    <glyph glyph-name="three.t_osf" horiz-adv-x="1181" 
d="M113 -80l102 139q145 -149 330 -149q121 0 208 70q85 69 85 182q0 123 -100 190q-99 66 -232 66h-107l-45 104l303 348q16 21 37 40q27 25 31 28l12 8v4q-43 -6 -119 -6h-423v172h811v-117l-394 -432q76 -6 147 -30q66 -22 135 -69q62 -42 104 -121q40 -76 40 -173
q0 -188 -136 -312t-353 -124q-267 0 -436 182z" />
    <glyph glyph-name="four.t_osf" horiz-adv-x="1181" 
d="M45 68v127l635 923h235v-878h209v-172h-209v-306h-198v306h-672zM266 240h451v524l10 145h-4q-35 -77 -72 -129z" />
    <glyph glyph-name="five.t_osf" horiz-adv-x="1181" 
d="M123 -66l104 136q51 -64 138 -106q83 -40 174 -40q127 0 223 73q94 72 94 202q0 129 -93 201q-94 73 -224 73q-63 0 -125 -15q-61 -15 -92 -32l-31 -16l-113 41l74 667h704v-172h-534l-33 -278l-10 -72h4q83 39 190 39q211 0 348 -117q136 -117 136 -311
q0 -208 -144 -332q-145 -125 -362 -125q-121 0 -237 48q-115 48 -191 136z" />
    <glyph glyph-name="six.t_osf" horiz-adv-x="1181" 
d="M102 602q0 138 39 271q40 136 114 249q76 116 202 187t286 71q158 0 281 -55l-66 -162q-90 45 -206 45q-185 0 -296 -138q-113 -141 -137 -331h5q46 64 134 100q86 35 187 35q202 0 327 -125q126 -126 126 -317q0 -199 -130 -328t-331 -129q-234 0 -384 171
q-151 172 -151 456zM311 520q0 -136 93 -255q93 -118 231 -118q123 0 192 79q70 81 70 204q0 125 -79 204t-214 79q-118 0 -206 -59q-87 -58 -87 -134z" />
    <glyph glyph-name="seven.t_osf" horiz-adv-x="1181" 
d="M242 -238l536 1063q17 33 37 66q19 31 29 43l8 14v4q-25 -4 -100 -4h-619v170h942v-131l-624 -1225h-209z" />
    <glyph glyph-name="eight.t_osf" horiz-adv-x="1181" 
d="M100 391q0 87 50 172t93 122q48 42 87 67q-164 108 -164 272q0 147 114 252q113 104 322 104q196 0 321 -99q124 -99 124 -263q0 -179 -166 -354q194 -113 194 -289q0 -163 -135 -282q-134 -118 -350 -118q-210 0 -350 117t-140 299zM725 739q129 129 129 267
q0 93 -70 148q-69 54 -184 54q-112 0 -177 -53t-65 -135q0 -28 10 -58q10 -28 33 -52q7 -7 43 -40q15 -14 63 -37q58 -28 65 -31q36 -15 78 -32q11 -5 75 -31zM299 403q0 -112 86 -184t205 -72q116 0 201 65q83 64 83 167q0 38 -17 68q-20 35 -42 54q-24 21 -70 47t-78 40
q-12 5 -44.5 18.5t-50.5 21.5q-77 33 -93 40q-180 -117 -180 -265z" />
    <glyph glyph-name="nine.t_osf" horiz-adv-x="1181" 
d="M225 -45q90 -45 207 -45q183 0 294 138t138 329h-4q-45 -61 -134 -96q-90 -35 -187 -35q-203 0 -328 125t-125 315q0 202 130 329q131 128 331 128q234 0 384 -171t150 -456q0 -138 -39 -271q-41 -139 -113 -249q-75 -114 -202 -186q-128 -72 -287 -72q-157 0 -280 55z
M580 408q118 0 205 57t87 133q0 136 -93 255q-93 118 -232 118q-121 0 -192 -78q-70 -77 -70 -205q0 -122 80 -202q78 -78 215 -78z" />
    <glyph glyph-name="dollar.osf" horiz-adv-x="1056" 
d="M88 174l105 145q61 -70 151 -116q92 -47 186 -47q97 0 158 43q62 44 62 120q0 59 -64 105t-152 80q-83 32 -180 76q-91 41 -153 115q-64 76 -64 177q0 141 94 226q95 86 244 104v178h146v-176q195 -22 307 -125l-84 -157q-112 108 -285 108q-96 0 -155 -40
q-60 -40 -60 -122q0 -59 64 -103q65 -45 153 -77q87 -32 179 -74t153 -116q63 -76 63 -183q0 -133 -96 -225q-96 -91 -254 -108v-191h-145v191q-107 12 -207 63t-166 129z" />
    <glyph glyph-name="cent.osf" horiz-adv-x="1134" 
d="M524 -55v170q-192 30 -311 167t-119 330q0 192 119 329t311 167v174h150v-168q204 -16 346 -158l-96 -149q-45 58 -126 95q-80 36 -159 36q-151 0 -249 -92q-97 -91 -97 -232t97 -235t249 -94q163 0 285 131l94 -148q-123 -136 -344 -159v-164h-150z" />
    <glyph glyph-name="sterling.osf" horiz-adv-x="1224" 
d="M109 0v172h127v322h-93v139h93v180q0 171 130 283t326 112q206 0 355 -112l-97 -148q-107 82 -256 82q-116 0 -187 -64q-73 -65 -73 -159v-174h445v-139h-445v-322h666v-172h-991z" />
    <glyph glyph-name="yen.osf" horiz-adv-x="1273" 
d="M197 289v129h340v45l-72 117h-268v131h192l-285 475h228l213 -377l88 -184h4q46 105 88 184l215 377h227l-284 -475h196v-131h-272l-70 -117v-45h342v-129h-342v-289h-200v289h-340z" />
    <glyph glyph-name="florin.osf" horiz-adv-x="1075" 
d="M-4 -76q78 -12 133 -12q33 0 68 8q26 6 71 30q40 21 65 69q26 49 32 120l43 484h-170v161h182l20 213q7 97 43 171q35 72 80 113q44 39 104 64q53 22 103 30q42 7 92 7q39 0 78 -4q58 -6 70 -8l26 -4v-172q-95 14 -164 14q-217 0 -235 -225l-21 -199h240v-161h-254
l-43 -500q-10 -121 -58 -203q-47 -81 -118 -118q-67 -35 -126 -49q-55 -13 -118 -13l-143 12v172z" />
    <glyph glyph-name="Euro.osf" horiz-adv-x="1230" 
d="M104 406v120h134q-8 58 -2 125h-132v123h150q56 190 216 312q161 122 413 122q99 0 198 -24l-45 -164q-69 20 -157 20q-159 0 -263 -73q-103 -72 -149 -193h516l-27 -123h-522q-11 -65 4 -125h498l-25 -120h-434q45 -117 150 -189t258 -72q99 0 180 29l35 -166
q-102 -33 -217 -33q-245 0 -405 121t-220 310h-154z" />
    <glyph glyph-name="zero.numerator" 
d="M395 532q-321 0 -321 469q0 467 321 467q322 0 322 -467q0 -469 -322 -469zM395 674q166 0 166 327q0 326 -166 326q-168 0 -168 -326q0 -327 168 -327z" />
    <glyph glyph-name="one.numerator" 
d="M147 553v135h191v510l4 53h-4q-7 -17 -35 -45l-74 -69l-92 100l217 211h138v-760h188v-135h-533z" />
    <glyph glyph-name="two.numerator" 
d="M96 553q-6 38 -6 74q0 96 45 171q44 73 109 121q46 34 127 86q63 41 108 87t45 102q0 58 -42 95q-43 38 -105 38q-92 0 -174 -98l-101 92q44 63 120 105q77 42 161 42q128 0 211 -74q84 -75 84 -194q0 -81 -42 -147t-102 -108q-51 -36 -122 -79q-63 -38 -107 -81t-49 -97
h436v-135h-596z" />
    <glyph glyph-name="three.numerator" 
d="M373 532q-84 0 -168 35q-81 34 -133 101l86 108q29 -42 88 -73q55 -29 121 -29q69 0 119 45q51 46 51 110q0 67 -54 107q-53 39 -127 39h-69l-35 78l182 211l51 49v4q-39 -6 -75 -6h-289v137h555v-98l-223 -258q102 -15 171 -81q68 -65 68 -182q0 -119 -90 -208
q-91 -89 -229 -89z" />
    <glyph glyph-name="four.numerator" 
d="M463 553v219h-424v102l410 574h165v-541h127v-135h-127v-219h-151zM205 907h258v252l6 119h-4q-27 -56 -59 -98l-201 -269v-4z" />
    <glyph glyph-name="five.numerator" 
d="M375 532q-182 0 -293 140l90 104q29 -45 83 -74q53 -28 110 -28q76 0 130 48t54 120t-54 121q-53 49 -133 49q-85 0 -153 -43l-86 32l49 447h473v-137h-348l-14 -127l-11 -66h4q55 21 115 21q135 0 223 -88t88 -211q0 -124 -92 -216t-235 -92z" />
    <glyph glyph-name="six.numerator" 
d="M418 532q-148 0 -242 114q-94 113 -94 302q0 127 40 240q41 115 135 197q95 83 228 83q107 0 191 -45l-51 -129q-61 33 -133 33q-94 0 -156 -74q-61 -73 -82 -184h4q64 64 162 64q134 0 217 -83q82 -82 82 -210q0 -138 -84 -223t-217 -85zM418 674q69 0 108 48t39 120
q0 74 -45 123t-121 49q-64 0 -111 -34q-48 -34 -48 -75q0 -87 51 -159t127 -72z" />
    <glyph glyph-name="seven.numerator" 
d="M123 553l358 661l60 97v4q-35 -4 -92 -4h-351v137h619v-105l-424 -790h-170z" />
    <glyph glyph-name="eight.numerator" 
d="M395 530q-130 0 -227 74q-96 74 -96 205q0 129 145 231q-100 72 -100 187q0 113 85 176q86 63 201 63q117 0 205 -64t88 -179q0 -116 -114 -230q131 -78 131 -202q0 -116 -93 -188q-94 -73 -225 -73zM473 1047q76 83 76 167q0 56 -44 86q-45 31 -104 31q-57 0 -97 -27
t-40 -83q0 -39 30 -72q29 -32 62 -50t93 -42q19 -7 24 -10zM395 664q65 0 114 37q50 38 50 96q0 27 -12 49q-11 21 -41 43q-21 15 -50 32q-2 1 -68 31q-41 19 -66 31q-101 -77 -101 -168q0 -70 52 -110q53 -41 122 -41z" />
    <glyph glyph-name="nine.numerator" 
d="M115 578l51 131q62 -33 133 -33q92 0 156 73t82 183h-5q-64 -64 -161 -64q-134 0 -217 83q-82 82 -82 210q0 135 84 221t215 86q148 0 242 -113q96 -116 96 -302q0 -198 -106 -360q-105 -161 -298 -161q-109 0 -190 46zM389 985q63 0 112 35q48 34 48 76q0 86 -51 158
q-52 73 -127 73q-67 0 -108 -48q-40 -47 -40 -118q0 -77 45 -126q45 -50 121 -50z" />
    <glyph glyph-name="zero.denominator" 
d="M395 -20q-321 0 -321 469q0 466 321 466q322 0 322 -466q0 -469 -322 -469zM395 121q166 0 166 328q0 325 -166 325q-168 0 -168 -325q0 -328 168 -328z" />
    <glyph glyph-name="one.denominator" 
d="M147 0v135h191v510l4 53h-4q-7 -17 -35 -45l-74 -69l-92 100l217 211h138v-760h188v-135h-533z" />
    <glyph glyph-name="two.denominator" 
d="M96 0q-6 38 -6 74q0 96 45 171q44 73 109 121q46 34 127 86q63 40 108 87t45 102q0 57 -42 95q-43 38 -105 38q-92 0 -174 -98l-101 92q44 63 120 105t161 42q128 0 211 -74q84 -75 84 -194q0 -81 -42 -147t-102 -108q-51 -36 -122 -79q-63 -38 -107 -81t-49 -97h436
v-135h-596z" />
    <glyph glyph-name="three.denominator" 
d="M373 -20q-87 0 -168 34t-133 101l86 108q28 -40 88 -72q57 -30 121 -30q69 0 119 45q51 46 51 110q0 67 -54 107q-53 39 -127 39h-69l-35 78l182 211l51 49v4q-39 -6 -75 -6h-289v137h555v-98l-223 -258q102 -15 171 -81q68 -65 68 -182q0 -120 -90 -208
q-89 -88 -229 -88z" />
    <glyph glyph-name="four.denominator" 
d="M463 0v219h-424v103l410 573h165v-541h127v-135h-127v-219h-151zM205 354h258v252l6 119h-4q-27 -56 -59 -98l-201 -269v-4z" />
    <glyph glyph-name="five.denominator" 
d="M375 -20q-182 0 -293 139l90 104q28 -44 83 -73t110 -29q76 0 130 48t54 120q0 71 -54 121q-53 49 -133 49q-85 0 -153 -43l-86 33l49 446h473v-137h-348l-14 -127l-11 -66h4q56 21 115 21q135 0 223 -88t88 -211q0 -124 -92 -216q-91 -91 -235 -91z" />
    <glyph glyph-name="six.denominator" 
d="M418 -20q-148 0 -242 113t-94 302q0 127 40 240q41 116 135 198t228 82q107 0 191 -45l-51 -129q-61 33 -133 33q-94 0 -156 -74q-61 -73 -82 -184h4q64 64 162 64q134 0 217 -83q82 -82 82 -210q0 -137 -84 -222t-217 -85zM418 121q69 0 108 48t39 120q0 73 -45 123
q-45 49 -121 49q-64 0 -111 -34q-48 -35 -48 -75q0 -86 51 -158q52 -73 127 -73z" />
    <glyph glyph-name="seven.denominator" 
d="M123 0l358 662l60 96v4q-35 -4 -92 -4h-351v137h619v-104l-424 -791h-170z" />
    <glyph glyph-name="eight.denominator" 
d="M395 -20q-132 0 -227 73q-96 74 -96 205q0 129 145 231q-100 72 -100 187q0 113 85 176q86 63 201 63q117 0 205 -64t88 -179q0 -116 -114 -230q131 -78 131 -202q0 -116 -93 -188t-225 -72zM473 496q76 83 76 168q0 56 -44 86q-43 30 -104 30q-57 0 -97 -27t-40 -83
q0 -39 30 -72q29 -32 62 -50t93 -42q19 -7 24 -10zM395 113q64 0 114 38t50 95q0 26 -12 49q-11 21 -41 43q-21 15 -50 32q-2 1 -68 31q-41 19 -66 31q-101 -77 -101 -168q0 -70 52 -110q53 -41 122 -41z" />
    <glyph glyph-name="nine.denominator" 
d="M115 25l51 131q61 -33 133 -33q92 0 156 73t82 183h-5q-64 -64 -161 -64q-134 0 -217 83q-82 82 -82 210q0 136 84 221q84 86 215 86q148 0 242 -113q96 -116 96 -302q0 -198 -106 -360q-105 -160 -298 -160q-111 0 -190 45zM389 432q63 0 112 35q48 35 48 76
q0 86 -51 158q-52 73 -127 73q-67 0 -108 -48q-40 -47 -40 -118q0 -76 45 -126t121 -50z" />
    <glyph glyph-name="uni0433.BUL" horiz-adv-x="913" 
d="M80 250q0 93 55 163t134 110q71 36 159 76q78 35 135 80q55 43 55 99q0 115 -161 115q-137 0 -271 -92l-80 145q163 115 355 115q156 0 252 -69t96 -201q0 -81 -40 -145q-41 -66 -99 -102q-67 -42 -130 -74q-67 -34 -130 -61q-57 -24 -100 -64q-40 -37 -40 -83
q0 -58 49 -88q51 -31 127 -31q172 0 302 121l96 -137q-181 -152 -402 -152q-165 0 -264 75q-98 74 -98 200z" />
    <glyph glyph-name="uni0434.BUL" horiz-adv-x="1216" 
d="M252 -188q142 -70 285 -70q144 0 236 71q91 70 91 218v84l6 65h-4q-100 -168 -311 -168t-337 150t-126 379t121 374q122 146 332 146q103 0 192 -39q88 -39 135 -119h7q-7 14 -7 31v102h191v-993q0 -121 -44 -217q-44 -95 -120 -149q-74 -53 -166 -80q-90 -27 -192 -27
q-181 0 -355 86zM293 547q0 -164 81 -263q82 -100 220 -100q122 0 198 84q76 83 76 273q0 348 -293 348q-132 0 -207 -91q-75 -92 -75 -251z" />
    <glyph glyph-name="uni0436.BUL" horiz-adv-x="1540" 
d="M35 0l334 532v5l-306 499h211l254 -424h148v834h188v-834h148l256 424h209l-303 -499v-5l333 -532h-223l-270 442h-150v-442h-188v442h-148l-272 -442h-221z" />
    <glyph glyph-name="uni0438.BUL" horiz-adv-x="1222" 
d="M141 373v663h199v-618q0 -123 41 -191q40 -67 154 -67q153 0 245 114q92 115 92 277v485h197v-1036h-192v143l8 76h-4q-40 -90 -144 -168q-101 -76 -241 -76q-355 0 -355 398z" />
    <glyph glyph-name="uni0439.BUL" horiz-adv-x="1222" 
d="M141 373v663h199v-618q0 -123 41 -191q40 -67 154 -67q153 0 245 114q92 115 92 277v485h197v-1036h-192v143l8 76h-4q-40 -90 -144 -168q-101 -76 -241 -76q-355 0 -355 398zM602 1155q-125 0 -214 71t-89 191v31h160v-29q0 -63 43 -99t100 -36q60 0 103 36t43 101v27
h157v-31q0 -121 -88 -191q-89 -71 -215 -71z" />
    <glyph glyph-name="uni043A.BUL" horiz-adv-x="1069" 
d="M154 0v1446h198v-791h148l280 381h226l-344 -456v-5l382 -575h-231l-309 485h-152v-485h-198z" />
    <glyph glyph-name="uni043B.BUL" horiz-adv-x="1077" 
d="M35 0l387 1036h229l383 -1036h-209l-252 702l-34 140h-4q-18 -85 -39 -140l-252 -702h-209z" />
    <glyph glyph-name="uni043F.BUL" horiz-adv-x="1234" 
d="M154 0v1036h192v-141l-6 -78h4q39 89 140 166q102 78 253 78q355 0 355 -397v-664h-199v618q0 126 -40 193q-41 68 -155 68q-148 0 -247 -110q-99 -109 -99 -271v-498h-198z" />
    <glyph glyph-name="uni0442.BUL" horiz-adv-x="1871" 
d="M154 0v1036h192v-141l-6 -78h4q39 97 141 170q103 74 220 74q256 0 309 -236h4q46 98 146 166q103 70 222 70q178 0 260 -98q83 -100 83 -299v-664h-199v621q0 124 -38 192t-144 68q-138 0 -223 -120q-85 -119 -85 -278v-483h-198v621q0 122 -36 191t-142 69
q-141 0 -226 -121q-86 -122 -86 -277v-483h-198z" />
    <glyph glyph-name="uni0446.BUL" horiz-adv-x="1284" 
d="M141 373v663h199v-618q0 -123 41 -191q40 -67 154 -67q153 0 245 114q92 115 92 277v485h197v-864h166v-418h-182v246h-176v143l8 76h-4q-40 -90 -144 -168q-101 -76 -241 -76q-355 0 -355 398z" />
    <glyph glyph-name="uni0448.BUL" horiz-adv-x="1869" 
d="M1716 1034v-1036h-192v141l6 78h-4q-39 -96 -142 -170t-219 -74q-256 0 -309 236h-4q-46 -98 -146 -166q-103 -70 -223 -70q-177 0 -259 99q-83 100 -83 299v663h199v-620q0 -125 38 -193q37 -67 144 -67q137 0 222 119t85 278v483h199v-620q0 -123 36 -192
q35 -68 142 -68q142 0 226 120q86 122 86 277v483h198z" />
    <glyph glyph-name="uni0449.BUL" horiz-adv-x="1923" 
d="M1716 1034v-862h156v-418h-180v244h-168v141l6 78h-4q-39 -96 -142 -170t-219 -74q-256 0 -309 236h-4q-46 -98 -146 -166q-103 -70 -223 -70q-177 0 -259 99q-83 100 -83 299v663h199v-620q0 -125 38 -193q37 -67 144 -67q137 0 222 119t85 278v483h199v-620
q0 -123 36 -192q35 -68 142 -68q142 0 226 120q86 122 86 277v483h198z" />
    <glyph glyph-name="uni044A.BUL" horiz-adv-x="1183" 
d="M272 377v489h-219v170h418v-282q0 -73 -2 -97h4q41 50 115 80q76 31 162 31q162 0 265 -104t103 -291q0 -176 -116 -287t-310 -111q-209 0 -315 112q-105 111 -105 290zM471 369q0 -103 58 -170q59 -68 163 -68q98 0 161 63q62 62 62 173q0 126 -58 183q-57 56 -152 56
q-108 0 -171 -64t-63 -173z" />
    <glyph glyph-name="uni044C.BUL" horiz-adv-x="1052" 
d="M141 377v659h199v-282q0 -64 -4 -97h4q42 48 117 79q78 32 159 32q163 0 267 -103t104 -292q0 -176 -116 -287q-115 -111 -312 -111q-207 0 -313 112q-105 111 -105 290zM340 369q0 -103 58 -170q59 -68 161 -68q101 0 164 63t63 173q0 127 -59 183t-156 56
q-109 0 -170 -64t-61 -173z" />
    <glyph glyph-name="uni044E.BUL" horiz-adv-x="1695" 
d="M154 0v1446h198v-844h189q28 200 176 330q147 129 352 129q227 0 384 -154t157 -387t-156 -389t-383 -156q-205 0 -353 130q-148 131 -177 333h-189v-438h-198zM733 520q0 -163 97 -267q98 -106 241 -106q141 0 239 106q97 104 97 267q0 160 -97 264q-98 105 -239 105
q-143 0 -241 -105q-97 -104 -97 -264z" />
    <glyph glyph-name="uni0432.BUL" horiz-adv-x="1214" 
d="M135 496v393q0 255 135 418t373 163q165 0 264 -81q101 -83 101 -203q0 -198 -248 -320v-4q88 -8 168 -48q81 -41 140 -130q60 -90 60 -213q0 -220 -140 -357q-142 -139 -367 -139q-236 0 -361 148t-125 373zM330 754h4q44 75 153 129l121 59q111 57 156 108
q47 53 47 121q0 69 -55 109q-56 41 -133 41q-140 0 -216 -104q-77 -106 -77 -269v-194zM332 457q0 -151 81 -234q81 -82 205 -82q132 0 220 85t88 239q0 140 -88 206q-89 66 -211 66q-115 0 -205 -72t-90 -208z" />
    <glyph glyph-name="uni0437.BUL" horiz-adv-x="911" 
d="M96 -178q106 -78 240 -78q137 0 217 78t80 198q0 123 -80 191t-229 68h-119v161h121q109 0 187 64q77 63 77 174q0 100 -63 157q-62 56 -162 56q-139 0 -240 -96l-92 129q152 137 362 137q183 0 289 -100q108 -101 109 -246q1 -116 -59 -205q-60 -88 -159 -133v-4
q259 -92 259 -361q0 -186 -132 -315q-130 -127 -348 -127q-205 0 -340 96z" />
    <glyph glyph-name="uni0414.ALT" horiz-adv-x="1464" 
d="M27 176h151l447 1270h211l448 -1270h152v-463h-183v287h-1042v-287h-184v463zM389 176h684l-289 840l-51 198h-4q-28 -117 -53 -198z" />
    <glyph glyph-name="uni041B.ALT" horiz-adv-x="1302" 
d="M29 0l516 1446h211l516 -1446h-215l-350 1016l-54 198h-4q-28 -131 -53 -198l-348 -1016h-219z" />
    <glyph glyph-name="uni0434.ALT" horiz-adv-x="1234" 
d="M43 164h121l334 872h237l330 -872h127v-410h-182v246h-785v-246h-182v410zM362 164h502l-207 555l-41 139h-4q-18 -83 -39 -139z" />
    <glyph glyph-name="uni043B.ALT" horiz-adv-x="1077" 
d="M35 0l387 1036h229l383 -1036h-209l-252 702l-34 140h-4q-18 -85 -39 -140l-252 -702h-209z" />
    </font>
</defs>
</svg>
